<svg width="40" height="42" viewBox="0 0 40 42" fill="none" xmlns="http://www.w3.org/2000/svg">
<mask id="mask0_393_19379" style="mask-type:alpha" maskUnits="userSpaceOnUse" x="0" y="0" width="40" height="42">
<rect y="0.198242" width="40" height="41.5013" fill="#D9D9D9"/>
</mask>
<g mask="url(#mask0_393_19379)">
<path d="M19.5035 34.6827C19.7212 34.6827 19.9444 34.6317 20.173 34.5297C20.4017 34.428 20.5865 34.3039 20.7276 34.1575L33.7214 20.676C34.14 20.2417 34.4632 19.7973 34.691 19.3428C34.9185 18.8883 35.0322 18.3894 35.0322 17.8462C35.0322 17.2963 34.9185 16.7625 34.691 16.2449C34.4632 15.7273 34.14 15.2545 33.7214 14.8265L27.4714 8.34193C27.0589 7.90761 26.6353 7.589 26.2005 7.38611C25.7655 7.18321 25.2832 7.08176 24.7535 7.08176C24.2299 7.08176 23.7437 7.18321 23.2951 7.38611C22.8462 7.589 22.4232 7.90761 22.026 8.34193L20.5739 9.84852L23.6572 13.0575C23.9883 13.3944 24.2351 13.778 24.3976 14.2083C24.5599 14.6383 24.641 15.0749 24.641 15.5182C24.641 16.4186 24.3574 17.163 23.7901 17.7515C23.2229 18.34 22.5055 18.6343 21.638 18.6343C21.2105 18.6343 20.7933 18.5667 20.3864 18.4315C19.9794 18.2963 19.6135 18.0602 19.2885 17.723L16.0993 14.4245L8.90388 21.89C8.73527 22.0652 8.60874 22.2642 8.5243 22.487C8.43985 22.7098 8.39763 22.9341 8.39763 23.1601C8.39763 23.5682 8.52374 23.9046 8.77596 24.1695C9.02791 24.4344 9.35055 24.5668 9.74388 24.5668C9.96166 24.5668 10.1849 24.5158 10.4135 24.4138C10.6421 24.312 10.8269 24.188 10.968 24.0415L16.2501 18.5612L17.4297 19.7851L12.1572 25.2654C11.9883 25.4403 11.8617 25.6392 11.7772 25.862C11.693 26.0848 11.651 26.3093 11.651 26.5355C11.651 26.9214 11.7824 27.2507 12.0451 27.5233C12.3079 27.796 12.6251 27.9323 12.9968 27.9323C13.2149 27.9323 13.4382 27.8813 13.6668 27.7793C13.8954 27.6772 14.0803 27.553 14.2214 27.4066L19.888 21.5376L21.0676 22.7611L15.4105 28.6404C15.263 28.7868 15.1418 28.9786 15.0468 29.2158C14.9515 29.453 14.9039 29.6847 14.9039 29.911C14.9039 30.2966 15.0353 30.6257 15.298 30.8983C15.5611 31.1713 15.8785 31.3077 16.2501 31.3077C16.4682 31.3077 16.6846 31.2639 16.8993 31.1763C17.114 31.0887 17.3057 30.9573 17.4743 30.7821L23.141 24.9126L24.3205 26.1365L18.6539 32.0159C18.4853 32.1911 18.3587 32.4012 18.2743 32.6462C18.1899 32.8911 18.1476 33.1155 18.1476 33.3193C18.1476 33.7274 18.286 34.0566 18.5626 34.3071C18.8393 34.5575 19.1529 34.6827 19.5035 34.6827ZM19.4939 36.412C18.6369 36.412 17.9035 36.0867 17.2935 35.4363C16.6835 34.7855 16.4158 33.9823 16.4905 33.0266C15.5461 33.0378 14.7597 32.7453 14.1314 32.149C13.5033 31.5524 13.2053 30.7199 13.2372 29.6516C12.2075 29.6625 11.3961 29.3572 10.803 28.7355C10.21 28.1136 9.94027 27.2938 9.99388 26.2761C9.06638 26.2874 8.29069 26.0169 7.6668 25.4647C7.04291 24.9128 6.73096 24.1446 6.73096 23.1601C6.73096 22.7168 6.81374 22.273 6.9793 21.8286C7.14485 21.3839 7.38999 20.9931 7.71471 20.6562L16.0993 11.9668L20.4039 16.433C20.545 16.586 20.7192 16.7118 20.9264 16.8104C21.1336 16.9089 21.3676 16.9582 21.6285 16.9582C21.9851 16.9582 22.3003 16.8291 22.5739 16.5709C22.8475 16.3126 22.9843 15.9762 22.9843 15.5614C22.9843 15.2911 22.9367 15.0484 22.8414 14.8334C22.7464 14.6184 22.6251 14.4377 22.4776 14.2913L16.7439 8.34193C16.3314 7.90761 15.9024 7.589 15.4568 7.38611C15.0112 7.18321 14.5236 7.08176 13.9939 7.08176C13.4703 7.08176 12.9949 7.18321 12.5676 7.38611C12.1401 7.589 11.7169 7.90761 11.298 8.34193L6.2243 13.6161C5.86763 13.9864 5.5793 14.4276 5.3593 14.9398C5.13902 15.4519 5.02249 15.9806 5.00972 16.5259C4.99694 16.9161 5.02902 17.2914 5.10596 17.6516C5.18291 18.0119 5.30471 18.3505 5.47138 18.6676L4.20846 19.9779C3.92846 19.5144 3.70944 18.9807 3.55138 18.3766C3.39333 17.7725 3.32069 17.1556 3.33346 16.5259C3.34624 15.7411 3.49791 14.9891 3.78846 14.2697C4.07902 13.5504 4.49471 12.9103 5.03555 12.3494L10.0772 7.11851C10.6583 6.52193 11.2732 6.07852 11.9218 5.7883C12.5701 5.49779 13.2715 5.35254 14.026 5.35254C14.7801 5.35254 15.4761 5.49779 16.1139 5.7883C16.7517 6.07852 17.3579 6.52193 17.9326 7.11851L19.3847 8.62466L20.8368 7.11851C21.4179 6.52193 22.0274 6.07852 22.6651 5.7883C23.3029 5.49779 23.999 5.35254 24.7535 5.35254C25.5076 5.35254 26.209 5.49779 26.8576 5.7883C27.506 6.07852 28.1176 6.52193 28.6926 7.11851L34.901 13.5599C35.4757 14.1562 35.919 14.8257 36.231 15.5684C36.5429 16.3111 36.6989 17.0736 36.6989 17.8561C36.6989 18.6389 36.5429 19.3611 36.231 20.0228C35.919 20.6845 35.4757 21.3136 34.901 21.9098L21.9072 35.3814C21.5611 35.7405 21.1844 36.002 20.7772 36.166C20.3703 36.33 19.9425 36.412 19.4939 36.412Z" fill="#007BFF"/>
</g>
</svg>
