<svg width="40" height="42" viewBox="0 0 40 42" fill="none" xmlns="http://www.w3.org/2000/svg">
<mask id="mask0_393_19364" style="mask-type:alpha" maskUnits="userSpaceOnUse" x="0" y="0" width="40" height="42">
<rect y="0.141602" width="40" height="41.5013" fill="#D9D9D9"/>
</mask>
<g mask="url(#mask0_393_19364)">
<path d="M27.5942 34.6367C27.4161 34.6367 27.2382 34.6153 27.0604 34.5727C26.8829 34.5297 26.7164 34.4547 26.5608 34.3475L22.6508 31.9866C22.3339 31.7976 22.0907 31.5438 21.9213 31.2253C21.7515 30.9066 21.6667 30.5584 21.6667 30.1809V25.4817C21.6667 25.1042 21.7515 24.756 21.9213 24.4373C22.0907 24.1188 22.3339 23.865 22.6508 23.676L26.5608 21.3152C26.7169 21.208 26.8842 21.1329 27.0625 21.0899C27.2411 21.0473 27.4196 21.026 27.5979 21.026C27.7763 21.026 27.9478 21.0528 28.1125 21.1064C28.2769 21.1597 28.436 21.2293 28.5896 21.3152L32.5 23.676C32.8192 23.865 33.0699 24.1188 33.2521 24.4373C33.4346 24.756 33.5258 25.1042 33.5258 25.4817V30.1809C33.5258 30.5584 33.4346 30.9066 33.2521 31.2253C33.0699 31.5438 32.8192 31.7976 32.5 31.9866L28.5904 34.3518C28.4382 34.442 28.2786 34.512 28.1117 34.5619C27.9447 34.6117 27.7722 34.6367 27.5942 34.6367ZM16.6667 19.8285C15.2917 19.8285 14.1146 19.3205 13.1354 18.3046C12.1563 17.2887 11.6667 16.0674 11.6667 14.6408C11.6667 13.2142 12.1563 11.9929 13.1354 10.977C14.1146 9.96108 15.2917 9.45312 16.6667 9.45312C18.0417 9.45312 19.2188 9.96108 20.1979 10.977C21.1771 11.9929 21.6667 13.2142 21.6667 14.6408C21.6667 16.0674 21.1771 17.2887 20.1979 18.3046C19.2188 19.3205 18.0417 19.8285 16.6667 19.8285ZM5 32.3325V29.4857C5 28.6897 5.19333 28.0013 5.58 27.4206C5.96694 26.8399 6.51292 26.3776 7.21792 26.0338C8.57042 25.351 9.96472 24.789 11.4008 24.3478C12.8367 23.9068 14.5919 23.6864 16.6667 23.6864H17.0575C17.1603 23.6864 17.2843 23.693 17.4296 23.7062C17.314 24.0031 17.2226 24.294 17.1554 24.5791C17.0882 24.8638 17.0236 25.1427 16.9617 25.4156H16.6667C14.8014 25.4156 13.1747 25.6139 11.7867 26.0104C10.3989 26.4073 9.14097 26.9206 8.01292 27.5503C7.50653 27.8276 7.15556 28.1179 6.96 28.4214C6.76444 28.7252 6.66667 29.08 6.66667 29.4857V30.6033H17.1667C17.2478 30.8759 17.3471 31.169 17.4646 31.4826C17.5821 31.7964 17.7114 32.0797 17.8525 32.3325H5ZM16.6667 18.0992C17.5833 18.0992 18.3681 17.7606 19.0208 17.0833C19.6736 16.406 20 15.5919 20 14.6408C20 13.6897 19.6736 12.8755 19.0208 12.1983C18.3681 11.521 17.5833 11.1823 16.6667 11.1823C15.75 11.1823 14.9653 11.521 14.3125 12.1983C13.6597 12.8755 13.3333 13.6897 13.3333 14.6408C13.3333 15.5919 13.6597 16.406 14.3125 17.0833C14.9653 17.7606 15.75 18.0992 16.6667 18.0992ZM23.9038 24.624L27.5963 26.8353L31.2883 24.624L27.5963 22.4223L23.9038 24.624ZM28.3333 32.7514L32.0513 30.5246V25.8146L28.3333 28.1391V32.7514ZM23.1408 30.5367L26.8592 32.7946V28.1823L23.1408 25.8911V30.5367Z" fill="#007BFF"/>
</g>
</svg>
