<svg width="40" height="42" viewBox="0 0 40 42" fill="none" xmlns="http://www.w3.org/2000/svg">
<mask id="mask0_393_19369" style="mask-type:alpha" maskUnits="userSpaceOnUse" x="0" y="0" width="40" height="42">
<rect y="0.393555" width="40" height="41.5013" fill="#D9D9D9"/>
</mask>
<g mask="url(#mask0_393_19369)">
<path d="M13.293 23.5153C13.9702 24.2179 14.8048 24.5692 15.7967 24.5692C16.7887 24.5692 17.6271 24.2179 18.3121 23.5153L23.948 17.6679C24.6288 16.9615 24.9692 16.0937 24.9692 15.0645C24.9692 14.0354 24.6306 13.1654 23.9534 12.4547C23.2684 11.7521 22.4299 11.4008 21.438 11.4008C20.446 11.4008 19.6113 11.7521 18.9338 12.4547C18.0771 12.1244 17.2235 12.0491 16.373 12.2286C15.5227 12.4082 14.8037 12.8027 14.2159 13.4123C13.6284 14.0221 13.2481 14.7681 13.0751 15.6503C12.902 16.5328 12.9746 17.4184 13.293 18.3073C12.6157 19.018 12.2771 19.8879 12.2771 20.9171C12.2771 21.9463 12.6157 22.8123 13.293 23.5153ZM11.668 36.7071V30.2026C10.0846 28.7039 8.85547 27.0195 7.98047 25.1494C7.10547 23.2795 6.66797 21.3599 6.66797 19.3906C6.66797 15.5546 7.96422 12.294 10.5567 9.60885C13.1495 6.92365 16.2977 5.58105 20.0013 5.58105C23.0035 5.58105 25.7167 6.52939 28.1409 8.42606C30.565 10.3227 32.1371 12.7719 32.8571 15.7735L34.585 22.8707C34.6959 23.309 34.6167 23.7073 34.3475 24.0656C34.0784 24.4235 33.7194 24.6025 33.2705 24.6025H30.0013V30.4551C30.0013 31.2234 29.7377 31.8811 29.2105 32.4281C28.6832 32.9751 28.0494 33.2486 27.3088 33.2486H23.3346V36.7071H21.668V31.5194H27.3088C27.608 31.5194 27.8538 31.4197 28.0463 31.2202C28.2385 31.0205 28.3346 30.7655 28.3346 30.4551V22.8733H32.8346L31.2513 16.1725C30.6124 13.5277 29.2406 11.3895 27.1359 9.75799C25.0312 8.12618 22.653 7.31028 20.0013 7.31028C16.7791 7.31028 14.0291 8.48067 11.7513 10.8215C9.47352 13.1625 8.33464 16.0093 8.33464 19.3617C8.33464 21.0851 8.67491 22.7224 9.35547 24.2735C10.036 25.8249 11.0013 27.2038 12.2513 28.4102L13.3346 29.4443V36.7071H11.668Z" fill="#007BFF"/>
</g>
</svg>
