<svg width="40" height="43" viewBox="0 0 40 43" fill="none" xmlns="http://www.w3.org/2000/svg">
<mask id="mask0_393_19359" style="mask-type:alpha" maskUnits="userSpaceOnUse" x="0" y="0" width="40" height="43">
<rect y="0.891602" width="40" height="41.5013" fill="#D9D9D9"/>
</mask>
<g mask="url(#mask0_393_19359)">
<path d="M19.9987 20.5785C18.6237 20.5785 17.4466 20.0705 16.4674 19.0546C15.4883 18.0387 14.9987 16.8174 14.9987 15.3908C14.9987 13.9642 15.4883 12.7429 16.4674 11.727C17.4466 10.7111 18.6237 10.2031 19.9987 10.2031C21.3737 10.2031 22.5508 10.7111 23.53 11.727C24.5091 12.7429 24.9987 13.9642 24.9987 15.3908C24.9987 16.8174 24.5091 18.0387 23.53 19.0546C22.5508 20.0705 21.3737 20.5785 19.9987 20.5785ZM8.33203 33.0825V30.2357C8.33203 29.5219 8.53231 28.854 8.93286 28.232C9.3337 27.6104 9.87273 27.1276 10.5499 26.7838C12.1227 26.0013 13.6965 25.4144 15.2712 25.023C16.8459 24.6319 18.4218 24.4364 19.9987 24.4364C21.5756 24.4364 23.1515 24.6319 24.7262 25.023C26.3009 25.4144 27.8747 26.0013 29.4475 26.7838C30.1247 27.1276 30.6637 27.6104 31.0645 28.232C31.4651 28.854 31.6654 29.5219 31.6654 30.2357V33.0825H8.33203ZM9.9987 31.3533H29.9987V30.2357C29.9987 29.8521 29.8795 29.4919 29.6412 29.155C29.4031 28.8181 29.0736 28.5332 28.6525 28.3003C27.2808 27.6109 25.8665 27.0828 24.4095 26.7159C22.9526 26.349 21.4823 26.1656 19.9987 26.1656C18.5151 26.1656 17.0448 26.349 15.5879 26.7159C14.1309 27.0828 12.7166 27.6109 11.3449 28.3003C10.9238 28.5332 10.5943 28.8181 10.3562 29.155C10.1179 29.4919 9.9987 29.8521 9.9987 30.2357V31.3533ZM19.9987 18.8492C20.9154 18.8492 21.7001 18.5106 22.3529 17.8333C23.0056 17.156 23.332 16.3419 23.332 15.3908C23.332 14.4397 23.0056 13.6255 22.3529 12.9483C21.7001 12.271 20.9154 11.9323 19.9987 11.9323C19.082 11.9323 18.2973 12.271 17.6445 12.9483C16.9918 13.6255 16.6654 14.4397 16.6654 15.3908C16.6654 16.3419 16.9918 17.156 17.6445 17.8333C18.2973 18.5106 19.082 18.8492 19.9987 18.8492Z" fill="#007BFF"/>
</g>
</svg>
