<svg width="40" height="43" viewBox="0 0 40 43" fill="none" xmlns="http://www.w3.org/2000/svg">
<mask id="mask0_393_19374" style="mask-type:alpha" maskUnits="userSpaceOnUse" x="0" y="0" width="40" height="43">
<rect y="0.646484" width="40" height="41.5013" fill="#D9D9D9"/>
</mask>
<g mask="url(#mask0_393_19374)">
<path d="M5.83203 35.4964V13.0165H12.4987V6.09961H27.4987V19.9334H34.1654V35.4964H22.4987V28.5795H17.4987V35.4964H5.83203ZM7.4987 33.7672H12.4987V28.5795H7.4987V33.7672ZM7.4987 26.8503H12.4987V21.6626H7.4987V26.8503ZM7.4987 19.9334H12.4987V14.7457H7.4987V19.9334ZM14.1654 26.8503H19.1654V21.6626H14.1654V26.8503ZM14.1654 19.9334H19.1654V14.7457H14.1654V19.9334ZM14.1654 13.0165H19.1654V7.82883H14.1654V13.0165ZM20.832 26.8503H25.832V21.6626H20.832V26.8503ZM20.832 19.9334H25.832V14.7457H20.832V19.9334ZM20.832 13.0165H25.832V7.82883H20.832V13.0165ZM27.4987 33.7672H32.4987V28.5795H27.4987V33.7672ZM27.4987 26.8503H32.4987V21.6626H27.4987V26.8503Z" fill="#007BFF"/>
</g>
</svg>
