<svg width="59" height="47" viewBox="0 0 59 47" fill="none" xmlns="http://www.w3.org/2000/svg">
<path d="M57.4311 22.8796L51.6169 20.5818V18.2036C51.6169 16.6841 50.3692 15.4487 48.8345 15.4487C47.2999 15.4487 46.0522 16.6841 46.0522 18.2036V18.3828L43.5755 17.4068V15.6402C43.5755 14.1206 42.3278 12.8852 40.7932 12.8852C39.402 12.8852 38.2604 13.9044 38.0545 15.2201L34.0245 13.6265C33.7063 7.30122 32.3089 2.82289 29.8385 0.284142C29.6638 0.105009 29.4205 0 29.1647 0H28.8403C28.5845 0 28.3412 0.105009 28.1666 0.284142C25.6961 2.82907 24.2987 7.30122 23.9806 13.6265L19.9505 15.2201C19.7447 13.8983 18.603 12.8852 17.2119 12.8852C15.6772 12.8852 14.4295 14.1206 14.4295 15.6402V17.4068L11.9529 18.3828V18.2036C11.9529 16.6841 10.7052 15.4487 9.17051 15.4487C7.63585 15.4487 6.38816 16.6841 6.38816 18.2036V20.5756L0.573937 22.8734C0.230822 23.0217 0 23.3614 0 23.7382V27.4691C0 27.7286 0.106053 27.9756 0.299445 28.1486C0.474121 28.3092 0.698705 28.3957 0.935766 28.3957C0.96072 28.3957 0.985674 28.3957 1.00439 28.3957L24.5295 26.6043C24.8477 29.4396 25.2532 32.1884 25.6837 34.7209L16.4071 38.3901C16.0515 38.5321 15.8207 38.8719 15.8207 39.2487V40.8918C15.8207 41.1512 15.9267 41.3983 16.1201 41.5712C16.2948 41.7318 16.5194 41.8183 16.7565 41.8183C16.7814 41.8183 16.8064 41.8183 16.8251 41.8183L26.8877 41.0524C27.3057 43.0352 27.6737 44.6412 27.9357 45.7036C28.0355 46.1237 28.4099 46.414 28.8465 46.414H29.1709C29.6014 46.414 29.9819 46.1175 30.0818 45.7036C30.3375 44.635 30.7118 43.029 31.1298 41.0524L41.1924 41.8183C41.2174 41.8183 41.2423 41.8183 41.261 41.8183C41.4981 41.8183 41.7227 41.7318 41.8974 41.5712C42.0908 41.3983 42.1968 41.1512 42.1968 40.8918V39.2487C42.1968 38.8719 41.966 38.526 41.6104 38.3901L32.3338 34.7209C32.7643 32.1945 33.176 29.4396 33.4879 26.6043L57.0131 28.3957C57.0381 28.3957 57.063 28.3957 57.0817 28.3957C57.3188 28.3957 57.5434 28.3092 57.718 28.1486C57.9114 27.9756 58.0175 27.7286 58.0175 27.4691V23.7382C58.0175 23.3614 57.7867 23.0217 57.4311 22.8796ZM47.9237 18.2036C47.9237 17.7095 48.3292 17.3018 48.8345 17.3018C49.3336 17.3018 49.7453 17.7033 49.7453 18.2036V19.8405L47.9299 19.124V18.2036H47.9237ZM39.8886 15.6402C39.8886 15.146 40.2941 14.7383 40.7994 14.7383C41.2985 14.7383 41.7102 15.1398 41.7102 15.6402V16.6656L39.8948 15.949V15.6402H39.8886ZM16.3135 15.6402C16.3135 15.146 16.719 14.7383 17.2243 14.7383C17.7234 14.7383 18.1351 15.1398 18.1351 15.6402V15.9428L16.3198 16.6594V15.6402H16.3135ZM8.27841 18.2036C8.27841 17.7095 8.68391 17.3018 9.18922 17.3018C9.6883 17.3018 10.1 17.7033 10.1 18.2036V19.1178L8.28465 19.8344V18.2036H8.27841ZM29.0087 2.15577C29.9383 3.33558 30.6682 4.9416 31.1984 6.93677C29.7948 6.3932 28.2289 6.3932 26.8253 6.93677C27.3493 4.9416 28.0792 3.33558 29.0087 2.15577ZM1.87153 26.4685V24.3683L23.9182 15.6525C23.8807 18.1666 23.9993 20.9462 24.2675 23.9791C24.2925 24.2447 24.3174 24.5042 24.3424 24.7636L1.87153 26.4685ZM17.6922 39.8911L26.0205 36.5864C26.189 37.5068 26.3574 38.3839 26.5196 39.2178L17.6922 39.8911ZM29.0087 41.9974C28.0605 37.6365 26.7504 30.7985 26.1328 23.8123C25.6213 18.0245 25.6837 13.1879 26.3075 9.39522C27.8484 8.04246 30.1753 8.04246 31.7162 9.39522C32.3338 13.1879 32.4025 18.0245 31.8909 23.8123C31.2671 30.7985 29.957 37.6427 29.0087 41.9974ZM40.3253 39.8787V39.8911L31.4979 39.2178C31.6663 38.3839 31.8285 37.5068 31.997 36.5864L40.3253 39.8787ZM56.146 26.4685L33.6751 24.7574C33.7001 24.498 33.725 24.2324 33.75 23.9729C34.0182 20.94 34.1305 18.1666 34.0993 15.6463L56.146 24.3683V26.4685Z" fill="#292F36"/>
</svg>
