<svg width="48" height="49" viewBox="0 0 48 49" fill="none" xmlns="http://www.w3.org/2000/svg">
<path d="M34 29.5V23.4889C34 23.1299 34 22.9504 33.9453 22.792C33.897 22.6518 33.8181 22.5242 33.7144 22.4183C33.5971 22.2986 33.4366 22.2183 33.1155 22.0578L24 17.5M8 19.5V33.1132C8 33.8571 8 34.229 8.11604 34.5546C8.21862 34.8425 8.3858 35.103 8.60476 35.3162C8.85243 35.5574 9.19054 35.7123 9.8667 36.0222L22.6667 41.8889C23.1572 42.1137 23.4024 42.2261 23.6579 42.2705C23.8843 42.3098 24.1157 42.3098 24.3421 42.2705C24.5976 42.2261 24.8428 42.1137 25.3333 41.8889L38.1333 36.0222C38.8095 35.7123 39.1476 35.5574 39.3952 35.3162C39.6142 35.103 39.7814 34.8425 39.884 34.5546C40 34.229 40 33.8571 40 33.1132V19.5M4 17.5L23.2845 7.85778C23.5468 7.7266 23.678 7.66101 23.8156 7.63519C23.9375 7.61233 24.0625 7.61233 24.1844 7.63519C24.322 7.66101 24.4532 7.7266 24.7155 7.85778L44 17.5L24.7155 27.1422C24.4532 27.2734 24.322 27.339 24.1844 27.3648C24.0625 27.3877 23.9375 27.3877 23.8156 27.3648C23.678 27.339 23.5468 27.2734 23.2845 27.1422L4 17.5Z" stroke="#fff" stroke-width="2" stroke-linecap="round" stroke-linejoin="round"/>
</svg>
