<svg width="63" height="63" viewBox="0 0 63 63" fill="none" xmlns="http://www.w3.org/2000/svg">
<mask id="mask0_124_16941" style="mask-type:alpha" maskUnits="userSpaceOnUse" x="0" y="0" width="63" height="63">
<rect width="63" height="63" fill="#007BFF"/>
</mask>
<g mask="url(#mask0_124_16941)">
<path d="M9.1875 52.9033V18.7783H19.6875V8.27832H43.3125V29.2783H53.8125V52.9033H35.4375V42.4033H27.5625V52.9033H9.1875ZM11.8125 50.2783H19.6875V42.4033H11.8125V50.2783ZM11.8125 39.7783H19.6875V31.9033H11.8125V39.7783ZM11.8125 29.2783H19.6875V21.4033H11.8125V29.2783ZM22.3125 39.7783H30.1875V31.9033H22.3125V39.7783ZM22.3125 29.2783H30.1875V21.4033H22.3125V29.2783ZM22.3125 18.7783H30.1875V10.9033H22.3125V18.7783ZM32.8125 39.7783H40.6875V31.9033H32.8125V39.7783ZM32.8125 29.2783H40.6875V21.4033H32.8125V29.2783ZM32.8125 18.7783H40.6875V10.9033H32.8125V18.7783ZM43.3125 50.2783H51.1875V42.4033H43.3125V50.2783ZM43.3125 39.7783H51.1875V31.9033H43.3125V39.7783Z" fill="#007BFF"/>
</g>
</svg>
