<svg width="39" height="62" viewBox="0 0 39 62" fill="none" xmlns="http://www.w3.org/2000/svg">
<path d="M24.8203 1V41.7976" stroke="#231F20" stroke-width="2" stroke-linecap="round" stroke-linejoin="round"/>
<path d="M8.21094 34.936V4.46323C8.21094 2.5475 9.76343 1 11.6742 1H33.9717C35.8875 1 37.435 2.55247 37.435 4.46323V38.4738C37.435 40.3896 35.8825 41.9371 33.9717 41.9371H17.3867" stroke="#231F20" stroke-width="2" stroke-linecap="round" stroke-linejoin="round"/>
<path d="M29.9721 44.2705V46.2708C29.9721 47.6442 29.5491 48.9779 28.7579 50.1024L21.0898 60.9946" stroke="#231F20" stroke-width="2" stroke-linecap="round" stroke-linejoin="round"/>
<path d="M29.9688 1V41.9419" stroke="#231F20" stroke-width="2" stroke-linecap="round" stroke-linejoin="round"/>
<path d="M12.0716 48.3814L19.2818 33.9609C19.9934 32.4831 19.5804 30.7069 18.2866 29.6918C16.6147 28.3781 14.1715 28.8409 13.1017 30.677C11.5243 33.3839 8.7028 37.693 6.79201 40.2705C3.44316 44.7787 1 48.7693 1 52.8894V61.0003" stroke="#231F20" stroke-width="2" stroke-linecap="round" stroke-linejoin="round"/>
<path d="M18.7695 6.79688V15.1666" stroke="#231F20" stroke-width="2" stroke-linecap="round" stroke-linejoin="round"/>
<path d="M15.0312 6.79688V15.1666" stroke="#231F20" stroke-width="2" stroke-linecap="round" stroke-linejoin="round"/>
</svg>
