<svg width="49" height="53" viewBox="0 0 49 53" fill="none" xmlns="http://www.w3.org/2000/svg">
<path d="M21.04 49.1359H5.63401C3.07506 49.1359 1 47.0609 1 44.502V5.63394C1 3.075 3.07506 1 5.63401 1H26.1971L39.005 13.1453V22.496" stroke="#231F20" stroke-width="2" stroke-linecap="round" stroke-linejoin="round"/>
<path d="M26.1914 1.08789V9.76296C26.1914 11.6462 27.7172 13.1719 29.6004 13.1719H38.9992" stroke="#231F20" stroke-width="2" stroke-linecap="round" stroke-linejoin="round"/>
<path d="M9.62891 24.3965H22.8377" stroke="#231F20" stroke-width="2" stroke-linecap="round" stroke-linejoin="round"/>
<path d="M9.62891 30.3691H22.8377" stroke="#231F20" stroke-width="2" stroke-linecap="round" stroke-linejoin="round"/>
<path d="M34.9523 52.0003C41.9632 52.0003 47.6467 46.3168 47.6467 39.3058C47.6467 32.2949 41.9632 26.6113 34.9523 26.6113C27.9413 26.6113 22.2578 32.2949 22.2578 39.3058C22.2578 46.3168 27.9413 52.0003 34.9523 52.0003Z" stroke="#231F20" stroke-width="2" stroke-linecap="round" stroke-linejoin="round"/>
<path d="M28.1172 39.1358L34.4383 33.1592L40.6416 38.6737" stroke="#231F20" stroke-width="2" stroke-linecap="round" stroke-linejoin="round"/>
<path d="M34.4375 33.1592V46.6036" stroke="#231F20" stroke-width="2" stroke-linecap="round" stroke-linejoin="round"/>
</svg>
