<svg width="49" height="50" viewBox="0 0 49 50" fill="none" xmlns="http://www.w3.org/2000/svg">
<path d="M38.8931 5.62085C38.8931 3.06914 36.8239 1 34.2722 1H5.62095C3.06924 1 1 3.06914 1 5.62085V44.3791C1 46.9309 3.06924 49 5.62095 49H26.1259L38.8974 36.8892V27.982" stroke="#231F20" stroke-width="2" stroke-linecap="round" stroke-linejoin="round"/>
<path d="M26.1211 48.8089V40.1583C26.1211 38.2804 27.6426 36.7588 29.5205 36.7588H38.8926" stroke="#231F20" stroke-width="2" stroke-linecap="round" stroke-linejoin="round"/>
<path d="M9.60547 27.0176H31.2884" stroke="#231F20" stroke-width="2" stroke-linecap="round" stroke-linejoin="round"/>
<path d="M9.60547 32.9727H31.2884" stroke="#231F20" stroke-width="2" stroke-linecap="round" stroke-linejoin="round"/>
<path d="M33.0078 21.7357L33.7555 27.691L39.4761 25.0393L47.3574 8.79457C48.2094 7.03837 47.5051 4.92127 45.7706 4.02578C43.9797 3.09986 41.7757 3.83025 40.8889 5.64297L33.0122 21.7357H33.0078Z" stroke="#231F20" stroke-width="2" stroke-linecap="round" stroke-linejoin="round"/>
<path d="M33.0078 21.7354L39.4718 25.0389" stroke="#231F20" stroke-width="2" stroke-linecap="round" stroke-linejoin="round"/>
<path d="M31.2928 7.27344H9.60547V18.6148H31.2928V7.27344Z" stroke="#231F20" stroke-width="2" stroke-linecap="round" stroke-linejoin="round"/>
</svg>
