<svg width="44" height="48" viewBox="0 0 44 48" fill="none" xmlns="http://www.w3.org/2000/svg">
<path d="M11.5545 19.8105H7.46875V23.8964H11.5545V19.8105Z" stroke="#231F20" stroke-width="2" stroke-linecap="round" stroke-linejoin="round"/>
<path d="M11.5545 27.7236H7.46875V31.8092H11.5545V27.7236Z" stroke="#231F20" stroke-width="2" stroke-linecap="round" stroke-linejoin="round"/>
<path d="M11.5545 35.6406H7.46875V39.7262H11.5545V35.6406Z" stroke="#231F20" stroke-width="2" stroke-linecap="round" stroke-linejoin="round"/>
<path d="M14.1953 20.6611H35.526" stroke="#231F20" stroke-width="2" stroke-linecap="round" stroke-linejoin="round"/>
<path d="M14.1953 23.0459H28.4754" stroke="#231F20" stroke-width="2" stroke-linecap="round" stroke-linejoin="round"/>
<path d="M14.1953 28.6621H35.526" stroke="#231F20" stroke-width="2" stroke-linecap="round" stroke-linejoin="round"/>
<path d="M14.1953 31.0459H28.4754" stroke="#231F20" stroke-width="2" stroke-linecap="round" stroke-linejoin="round"/>
<path d="M14.1953 36.6621H35.526" stroke="#231F20" stroke-width="2" stroke-linecap="round" stroke-linejoin="round"/>
<path d="M14.1953 39.043H28.4754" stroke="#231F20" stroke-width="2" stroke-linecap="round" stroke-linejoin="round"/>
<path d="M40.7998 1H2.68117C1.75268 1 1 1.75268 1 2.68117V45.3188C1 46.2473 1.75268 47 2.68117 47H40.7998C41.7283 47 42.481 46.2473 42.481 45.3188V2.68117C42.481 1.75268 41.7283 1 40.7998 1Z" stroke="#231F20" stroke-width="2" stroke-linecap="round" stroke-linejoin="round"/>
<path d="M6.21654 7.22801C7.15162 7.22801 7.90965 6.47007 7.90965 5.535C7.90965 4.59993 7.15162 3.8418 6.21654 3.8418C5.28147 3.8418 4.52344 4.59993 4.52344 5.535C4.52344 6.47007 5.28147 7.22801 6.21654 7.22801Z" stroke="#231F20" stroke-width="2" stroke-linecap="round" stroke-linejoin="round"/>
<path d="M12.7126 7.22801C13.6477 7.22801 14.4057 6.47007 14.4057 5.535C14.4057 4.59993 13.6477 3.8418 12.7126 3.8418C11.7776 3.8418 11.0195 4.59993 11.0195 5.535C11.0195 6.47007 11.7776 7.22801 12.7126 7.22801Z" stroke="#231F20" stroke-width="2" stroke-linecap="round" stroke-linejoin="round"/>
<path d="M19.2165 7.22801C20.1516 7.22801 20.9096 6.47007 20.9096 5.535C20.9096 4.59993 20.1516 3.8418 19.2165 3.8418C18.2815 3.8418 17.5234 4.59993 17.5234 5.535C17.5234 6.47007 18.2815 7.22801 19.2165 7.22801Z" stroke="#231F20" stroke-width="2" stroke-linecap="round" stroke-linejoin="round"/>
<path d="M36.9317 4.1123H26.4592C25.636 4.1123 24.9688 4.77958 24.9688 5.60271C24.9688 6.42584 25.636 7.09312 26.4592 7.09312H36.9317C37.7549 7.09312 38.4221 6.42584 38.4221 5.60271C38.4221 4.77958 37.7549 4.1123 36.9317 4.1123Z" stroke="#231F20" stroke-width="2" stroke-linecap="round" stroke-linejoin="round"/>
</svg>
