<svg width="35" height="58" viewBox="0 0 35 58" fill="none" xmlns="http://www.w3.org/2000/svg">
<path d="M28.6625 6.37988H5.69258C3.10096 6.37988 1 8.50083 1 11.117V52.2625C1 54.8787 3.10096 56.9996 5.69258 56.9996H28.6625C31.2541 56.9996 33.355 54.8787 33.355 52.2625V11.117C33.355 8.50083 31.2541 6.37988 28.6625 6.37988Z" stroke="#231F20" stroke-width="2" stroke-linecap="round" stroke-linejoin="round"/>
<path d="M11.9584 22.5576H7.26172V27.2543H11.9584V22.5576Z" stroke="#231F20" stroke-width="2" stroke-linecap="round" stroke-linejoin="round"/>
<path d="M11.9584 31.4287H7.26172V36.6472H11.9584V31.4287Z" stroke="#231F20" stroke-width="2" stroke-linecap="round" stroke-linejoin="round"/>
<path d="M11.9584 40.8223H7.26172V46.0408H11.9584V40.8223Z" stroke="#231F20" stroke-width="2" stroke-linecap="round" stroke-linejoin="round"/>
<path d="M15.0898 23.0791H26.0488" stroke="#231F20" stroke-width="2" stroke-linecap="round" stroke-linejoin="round"/>
<path d="M15.0898 26.21H21.3521" stroke="#231F20" stroke-width="2" stroke-linecap="round" stroke-linejoin="round"/>
<path d="M15.0898 32.9941H26.0488" stroke="#231F20" stroke-width="2" stroke-linecap="round" stroke-linejoin="round"/>
<path d="M15.0898 35.6035H21.3521" stroke="#231F20" stroke-width="2" stroke-linecap="round" stroke-linejoin="round"/>
<path d="M15.0898 42.3877H26.0488" stroke="#231F20" stroke-width="2" stroke-linecap="round" stroke-linejoin="round"/>
<path d="M15.0898 44.9971H21.3521" stroke="#231F20" stroke-width="2" stroke-linecap="round" stroke-linejoin="round"/>
<path d="M11.7852 1L12.808 3.50479C13.0585 4.12058 13.6586 4.52251 14.3214 4.52251H26.9085C27.5138 4.52251 28.067 4.18844 28.354 3.65615L29.763 1" stroke="#231F20" stroke-width="2" stroke-linecap="round" stroke-linejoin="round"/>
</svg>
