<svg width="43" height="52" viewBox="0 0 43 52" fill="none" xmlns="http://www.w3.org/2000/svg">
<path d="M24.5239 30.1029V36.6679C24.5239 37.9243 23.5051 38.9431 22.2488 38.9431H7.6291L2.62635 43.2287C1.98674 43.7769 1 43.32 1 42.4794V22.9256C1 21.6692 2.0188 20.6504 3.27517 20.6504H14.7653" stroke="#231F20" stroke-width="2" stroke-linecap="round" stroke-linejoin="round"/>
<path d="M20.0668 26.9634H34.4808L39.4744 31.2396C40.1185 31.7924 41.1099 31.3356 41.1099 30.4858V11.1467C41.1099 9.77606 39.9997 8.66602 38.6291 8.66602H20.0668C18.6962 8.66602 17.5859 9.77606 17.5859 11.1467V24.4825C17.5859 25.8531 18.6962 26.9634 20.0668 26.9634Z" stroke="#231F20" stroke-width="2" stroke-linecap="round" stroke-linejoin="round"/>
<path d="M23.5195 14.8936H35.5808" stroke="#231F20" stroke-width="2" stroke-linecap="round" stroke-linejoin="round"/>
<path d="M23.5195 20.6543H35.5808" stroke="#231F20" stroke-width="2" stroke-linecap="round" stroke-linejoin="round"/>
<path d="M33.3945 38.6182V50.8668" stroke="#231F20" stroke-width="2" stroke-linecap="round" stroke-linejoin="round"/>
<path d="M41.1094 38.6182V50.8668" stroke="#231F20" stroke-width="2" stroke-linecap="round" stroke-linejoin="round"/>
<path d="M1 1V12.9836" stroke="#231F20" stroke-width="2" stroke-linecap="round" stroke-linejoin="round"/>
<path d="M8.71484 1V12.9836" stroke="#231F20" stroke-width="2" stroke-linecap="round" stroke-linejoin="round"/>
</svg>
