<svg width="40" height="42" viewBox="0 0 40 42" fill="none" xmlns="http://www.w3.org/2000/svg">
<path fill-rule="evenodd" clip-rule="evenodd" d="M19.5474 42C15.264 42 12.7043 31.9056 12.7043 22.1358C12.7043 13.7438 14.475 6.23263 17.112 3.47466C17.2597 3.32695 17.4309 3.27652 17.6056 3.30354C17.7803 3.33056 17.9514 3.45124 18.0253 3.59894C18.3207 4.18973 18.9115 4.53557 19.5509 4.53557C20.1922 4.53557 20.783 4.18973 21.0766 3.59894C21.1504 3.45124 21.3216 3.32695 21.4963 3.30354C21.671 3.28012 21.8421 3.32695 21.9898 3.47466C24.6233 6.2324 26.3975 13.7402 26.3975 22.1358C26.3975 31.9074 23.8379 42 19.5545 42H19.5474ZM17.4813 4.75196C15.291 7.68083 13.8392 14.5005 13.8392 22.1321C13.8392 33.1847 16.8419 40.8906 19.553 40.8906C22.2639 40.8906 25.2667 33.1847 25.2667 22.1321C25.2667 14.5001 23.8149 7.68055 21.6246 4.75196C21.0842 5.31937 20.3421 5.66522 19.5586 5.66522C18.775 5.66522 18.0329 5.31937 17.4925 4.75196H17.4813Z" fill="black"/>
<path fill-rule="evenodd" clip-rule="evenodd" d="M32.5978 33.7791C28.5576 33.7791 22.2318 31.5887 16.127 28.0653C7.68295 23.1677 0.198477 15.9051 2.33854 12.2124C2.78165 11.4235 3.88764 10.4886 6.49763 10.4886C10.5378 10.4886 16.8637 12.6789 22.9685 16.2254C30.2546 20.4115 35.8656 25.7019 36.9266 29.3729C36.9771 29.544 36.95 29.7422 36.8293 29.8665C36.7051 30.0142 36.5339 30.088 36.3628 30.088H36.2656C35.3289 30.088 34.5688 30.8481 34.5688 31.7848C34.5688 32.1306 34.666 32.4495 34.8408 32.7214C34.938 32.8691 34.965 33.0673 34.8912 33.2384C34.8173 33.4095 34.6931 33.5338 34.4985 33.5842C33.9581 33.7085 33.3187 33.7824 32.6036 33.7824L32.5978 33.7791ZM6.4974 11.6217C5.3392 11.6217 3.86398 11.8198 3.32 12.7565C1.96365 15.0945 7.10987 21.5681 16.687 27.0835C22.6456 30.5276 28.7264 32.6493 32.5902 32.6493C32.936 32.6493 33.2548 32.6493 33.5484 32.5988C33.4746 32.3539 33.4241 32.0585 33.4241 31.7865C33.4241 30.459 34.3608 29.3242 35.6145 29.0287C34.1843 25.6586 29.0163 21.0061 22.3932 17.1871C16.4346 13.7431 10.3538 11.6214 6.49001 11.6214L6.4974 11.6217Z" fill="black"/>
<path fill-rule="evenodd" clip-rule="evenodd" d="M6.49704 33.7791C5.78194 33.7791 5.1407 33.7053 4.60211 33.581C4.40397 33.5306 4.28328 33.4099 4.20944 33.2352C4.13558 33.0604 4.159 32.8659 4.25987 32.7182C4.43099 32.4462 4.53186 32.1274 4.53186 31.7816C4.53186 30.8449 3.77175 30.0848 2.83507 30.0848H2.7378C2.56668 30.0848 2.39196 30.0109 2.27128 29.8632C2.147 29.7389 2.12358 29.5444 2.17402 29.3697C3.23496 25.7041 8.84599 20.4101 16.1322 16.2222C22.2365 12.6755 28.5645 10.4854 32.603 10.4854C35.213 10.4854 36.319 11.422 36.7621 12.2092C38.902 15.9035 31.4232 23.1663 22.9755 28.0386C16.8711 31.5852 10.5431 33.7754 6.50464 33.7754L6.49704 33.7791ZM5.53879 32.5975C5.83419 32.6479 6.1512 32.6479 6.49704 32.6479C10.3607 32.6479 16.4434 30.5315 22.4002 27.0822C31.9777 21.5667 37.1238 15.093 35.7672 12.7551C35.2268 11.8185 33.748 11.6204 32.5898 11.6204C28.7261 11.6204 22.6434 13.7368 16.6866 17.1861C10.0654 20.9994 4.89575 25.6574 3.46535 29.0277C4.71905 29.3231 5.65568 30.4579 5.65568 31.7855C5.65568 32.0575 5.60524 32.3529 5.53139 32.5978L5.53879 32.5975Z" fill="black"/>
<path fill-rule="evenodd" clip-rule="evenodd" d="M19.5474 26.0733C17.3805 26.0733 15.6099 24.3027 15.6099 22.1357C15.6099 19.9688 17.3805 18.1982 19.5474 18.1982C21.7144 18.1982 23.485 19.9688 23.485 22.1357C23.485 24.3027 21.7144 26.0733 19.5474 26.0733ZM19.5474 19.3276C17.9983 19.3276 16.7393 20.5813 16.7393 22.1357C16.7393 23.6902 17.993 24.9438 19.5474 24.9438C21.1019 24.9438 22.3556 23.6901 22.3556 22.1357C22.3556 20.5812 21.1019 19.3276 19.5474 19.3276Z" fill="black"/>
<path fill-rule="evenodd" clip-rule="evenodd" d="M19.5471 5.66313C17.998 5.66313 16.7156 4.38066 16.7156 2.83157C16.7156 1.28247 17.998 0 19.5471 0C21.0962 0 22.3787 1.28247 22.3787 2.83157C22.3787 4.38066 21.0962 5.66313 19.5471 5.66313ZM19.5471 1.10775C18.6105 1.10775 17.8504 1.89669 17.8504 2.83157C17.8504 3.7682 18.6105 4.52836 19.5471 4.52836C20.4838 4.52836 21.2439 3.76824 21.2439 2.83157C21.2439 1.89489 20.4838 1.10775 19.5471 1.10775Z" fill="black"/>
<path fill-rule="evenodd" clip-rule="evenodd" d="M36.2632 34.6133C34.7141 34.6133 33.4316 33.3308 33.4316 31.7817C33.4316 30.2326 34.7141 28.9501 36.2632 28.9501C37.8123 28.9501 39.0948 30.2326 39.0948 31.7817C39.0948 33.3308 37.8123 34.6133 36.2632 34.6133ZM36.2632 30.0849C35.3266 30.0849 34.5664 30.845 34.5664 31.7817C34.5664 32.7184 35.3265 33.5055 36.2632 33.5055C37.1999 33.5055 37.987 32.7166 37.987 31.7817C37.987 30.8451 37.1981 30.0849 36.2632 30.0849Z" fill="black"/>
<path fill-rule="evenodd" clip-rule="evenodd" d="M2.83157 34.6133C1.28247 34.6133 0 33.3308 0 31.7817C0 30.2326 1.28247 28.9501 2.83157 28.9501C4.38066 28.9501 5.66313 30.2326 5.66313 31.7817C5.66313 33.3308 4.38066 34.6133 2.83157 34.6133ZM2.83157 30.0849C1.89493 30.0849 1.10775 30.845 1.10775 31.7817C1.10775 32.7184 1.89669 33.5055 2.83157 33.5055C3.7682 33.5055 4.52836 32.7166 4.52836 31.7817C4.52836 30.8451 3.76824 30.0849 2.83157 30.0849Z" fill="black"/>
</svg>
