<svg width="53" height="53" viewBox="0 0 53 53" fill="none" xmlns="http://www.w3.org/2000/svg">
<mask id="mask0_441_232" style="mask-type:alpha" maskUnits="userSpaceOnUse" x="0" y="0" width="53" height="53">
<rect width="53" height="53" fill="#D9D9D9"/>
</mask>
<g mask="url(#mask0_441_232)">
<path d="M11.0416 44.1673V35.2401C11.0416 34.2582 11.3909 33.4195 12.0895 32.7243C12.788 32.0294 13.628 31.682 14.6092 31.682H38.3907C39.372 31.682 40.2119 32.0312 40.9104 32.7298C41.609 33.4284 41.9583 34.2681 41.9583 35.249V44.1673H11.0416ZM20.5121 27.7749C17.8919 27.7749 15.6583 26.8514 13.8114 25.0045C11.9649 23.158 11.0416 20.9246 11.0416 18.3044C11.0416 15.6842 11.9649 13.4507 13.8114 11.6038C15.6583 9.75725 17.8919 8.83398 20.5121 8.83398H32.4879C35.108 8.83398 37.3416 9.75725 39.1885 11.6038C41.035 13.4507 41.9583 15.6842 41.9583 18.3044C41.9583 20.9246 41.035 23.158 39.1885 25.0045C37.3416 26.8514 35.108 27.7749 32.4879 27.7749H20.5121ZM13.25 41.959H39.75V35.249C39.75 34.8526 39.6226 34.527 39.3679 34.2723C39.1129 34.0176 38.7871 33.8903 38.3907 33.8903H14.6092C14.2128 33.8903 13.8871 34.0176 13.632 34.2723C13.3773 34.527 13.25 34.8526 13.25 35.249V41.959ZM20.5121 25.5665H32.4879C34.5265 25.5665 36.2464 24.8657 37.6476 23.4642C39.0492 22.0626 39.75 20.3427 39.75 18.3044C39.75 16.2658 39.0492 14.5458 37.6476 13.1447C36.2464 11.7431 34.5265 11.0423 32.4879 11.0423H20.5121C18.4734 11.0423 16.7535 11.7431 15.3523 13.1447C13.9507 14.5458 13.25 16.2658 13.25 18.3044C13.25 20.3427 13.9507 22.0626 15.3523 23.4642C16.7535 24.8657 18.4734 25.5665 20.5121 25.5665ZM20.5104 19.9182C20.9672 19.9182 21.3507 19.7636 21.6609 19.4544C21.9709 19.1456 22.1258 18.7628 22.1258 18.3061C22.1258 17.849 21.9712 17.4654 21.6621 17.1555C21.3533 16.8456 20.9705 16.6907 20.5137 16.6907C20.0566 16.6907 19.6731 16.8451 19.3632 17.1539C19.0533 17.463 18.8983 17.846 18.8983 18.3028C18.8983 18.7595 19.0527 19.143 19.3615 19.4533C19.6707 19.7632 20.0537 19.9182 20.5104 19.9182ZM32.4862 19.9182C32.9433 19.9182 33.3268 19.7636 33.6367 19.4544C33.9466 19.1456 34.1016 18.7628 34.1016 18.3061C34.1016 17.849 33.9472 17.4654 33.6384 17.1555C33.3292 16.8456 32.9463 16.6907 32.4895 16.6907C32.0328 16.6907 31.6492 16.8451 31.339 17.1539C31.0291 17.463 30.8741 17.846 30.8741 18.3028C30.8741 18.7595 31.0287 19.143 31.3379 19.4533C31.6467 19.7632 32.0294 19.9182 32.4862 19.9182Z" fill="#1C1B1F"/>
</g>
</svg>
