<svg width="778" height="1734" viewBox="0 0 778 1734" fill="none" xmlns="http://www.w3.org/2000/svg">
<g opacity="0.4">
<path d="M620.029 1691.2C702.372 1685.48 767.347 1621.29 802.987 1510.46C814.547 1474.38 824.423 1434.36 834.88 1392C845.259 1349.94 855.993 1306.44 869.33 1262.9C895.21 1178.44 932.442 1091.35 993.824 971.735C1045.86 870.203 1093.83 771.385 1109.13 678.629C1124.13 586.731 1110.95 493.676 1069.93 402.033C992.228 229.003 856.764 96.783 716.404 56.9595C691.768 50.0128 667.718 47.3028 644.915 48.8886C548.836 55.5702 478.715 138.587 422.797 218.909C413.702 231.997 404.409 245.453 394.887 259.253C356.922 314.231 313.897 376.551 265.634 440.841C254.202 456.066 242.306 471.62 230.799 486.664C177.057 556.932 121.489 629.585 78.2611 713.835C27.3199 813.188 8.76394 923.426 26.0134 1024.24C42.1009 1117.53 85.8061 1219.35 155.92 1326.89C282.495 1520.7 421.656 1647.14 547.779 1682.92C572.966 1690 597.275 1692.78 620.029 1691.2ZM644.87 46.7758C667.773 45.1831 691.93 47.9081 716.666 54.8751C857.365 94.8024 993.161 227.355 1071.06 400.821C1112.31 492.976 1125.56 586.609 1110.45 679.119C1095.09 772.28 1047.02 871.315 994.892 973.03C933.58 1092.52 896.396 1179.47 870.567 1263.79C857.252 1307.25 846.527 1350.7 836.155 1392.73C825.688 1435.14 815.8 1475.2 804.207 1511.38C786.757 1565.64 762.588 1608.83 732.363 1639.75C700.511 1672.32 662.733 1690.34 620.074 1693.31C597.217 1694.9 572.805 1692.1 547.517 1685C484.716 1667.18 418.444 1626.78 350.533 1564.91C283.168 1503.54 217.37 1423.96 154.951 1328.4C84.6687 1220.6 40.8434 1118.45 24.6889 1024.8C7.32772 923.335 25.9723 812.426 77.1955 712.53C120.505 628.124 176.131 555.39 229.923 485.054C241.428 470.02 253.319 454.471 264.74 439.247C312.993 374.994 356.003 312.693 393.96 257.72C403.476 243.93 412.779 230.464 421.871 217.371C477.978 136.772 548.344 53.4885 644.87 46.7758Z" fill="#007BFF" fill-opacity="0.5"/>
<path d="M621.423 1664.33C703.382 1658.63 767.368 1597.26 801.594 1491.52C813.73 1454.07 823.787 1412.99 834.431 1369.49C843.908 1330.78 853.706 1290.74 865.713 1250.28C871.38 1231.35 877.846 1211.63 884.93 1191.68C908.424 1125.53 938.97 1055.72 983.97 965.307C1033.22 866.039 1078.6 769.43 1092.81 678.692C1106.74 588.948 1093.71 498.325 1054.09 409.337C1008.46 306.708 943.251 221.411 865.522 162.661C815.878 124.257 761.393 96.7827 707.945 83.1864C684.412 76.9422 661.362 74.5499 639.444 76.0741C580.55 80.1696 526.59 111.696 469.637 175.289C454.049 192.803 437.991 213.003 420.554 237.038C406.776 255.787 392.735 275.169 377.865 295.682C344.529 341.653 306.759 393.766 265.705 447.304C258.976 456.021 252.189 464.765 245.362 473.557C198.935 533.365 150.922 595.209 110.418 664.761C100.793 681.274 91.8157 697.832 83.7439 713.982C35.0755 810.975 17.4342 918.704 34.062 1017.32C49.6478 1109.32 91.7393 1209.07 159.15 1313.78C204.054 1384.63 254.67 1447.99 309.591 1502.12C347.735 1540.19 387.475 1572.98 427.701 1599.58C468.1 1626.23 506.739 1644.2 549.31 1656.15C574.351 1663.16 598.616 1665.92 621.423 1664.33ZM639.399 73.9708C661.415 72.4398 684.563 74.8342 708.189 81.1083C761.764 94.7275 816.384 122.284 866.138 160.771C944.072 219.675 1009.46 305.21 1055.22 408.126C1095.07 497.616 1108.16 588.808 1094.14 679.16C1079.87 770.311 1034.4 867.122 985.05 966.578C940.095 1056.91 909.586 1126.64 886.126 1192.68C879.059 1212.59 872.607 1232.25 866.952 1251.14C854.967 1291.54 845.178 1331.54 835.711 1370.22C825.052 1413.77 814.983 1454.9 802.814 1492.44C768.353 1598.91 703.949 1660.7 621.468 1666.44C598.558 1668.03 574.195 1665.27 549.056 1658.23C506.381 1646.25 467.64 1628.23 427.15 1601.52C386.853 1574.88 347.051 1542.03 308.841 1503.9C253.841 1449.69 203.143 1386.23 158.167 1315.27C90.5915 1210.3 48.3901 1110.24 32.7372 1017.87C16.0056 918.608 33.7308 810.226 82.6634 712.701C90.7601 696.513 99.7572 679.912 109.404 663.371C149.973 593.696 198.021 531.805 244.493 471.943C251.321 463.155 258.11 454.411 264.831 445.69C305.87 392.176 342.01 342.324 376.964 294.115C391.831 273.598 405.873 254.217 419.652 235.468C437.127 211.384 453.216 191.146 468.842 173.597C526.026 109.738 580.22 78.0861 639.399 73.9708Z" fill="#007BFF" fill-opacity="0.5"/>
<path d="M623.354 1637.47C704.78 1631.8 767.678 1573.31 800.459 1472.76C813.206 1433.9 823.415 1391.76 834.225 1347.14C842.776 1311.85 851.616 1275.36 862.295 1238.13C867.654 1219.75 873.782 1200.53 880.513 1180.97C902.832 1116.12 931.728 1047.87 974.209 959.671C1020.63 862.799 1063.39 768.514 1076.49 679.881C1089.32 592.375 1076.47 504.287 1038.28 418.053C993.481 316.301 929.559 234.678 853.426 181.995C805.415 147.096 753.749 123.279 699.851 111.219C677.462 105.669 655.471 103.599 634.489 105.058C576.914 109.062 523.752 138.86 467.176 198.826C451.81 215.299 436.034 234.258 418.94 256.79C398.789 282.643 377.872 310.126 355.733 339.225C327.569 376.24 298.451 414.513 266.556 455.164L263.147 459.463C212.074 523.732 159.271 590.193 115.685 666.937C106.504 683.071 97.9156 699.322 90.1784 715.214C43.8351 809.745 27.1162 914.834 43.1114 1011.13C58.1833 1101.76 98.6063 1199.31 163.248 1301.07C206.092 1370.71 255.052 1430.72 312.926 1484.55C350.171 1520.07 388.69 1550.23 430.676 1576.78C468.777 1600.74 504.869 1616.48 551.348 1629.4C576.244 1636.34 600.469 1639.06 623.354 1637.47ZM634.444 102.948C655.518 101.483 677.6 103.564 700.074 109.126C754.094 121.224 805.889 145.1 854.008 180.087C930.358 232.91 994.475 314.778 1039.41 416.852C1077.82 503.58 1090.74 592.221 1077.82 680.324C1064.66 769.348 1021.82 863.844 975.3 960.912C932.864 1049.02 904.002 1117.19 881.717 1181.94C875.001 1201.45 868.887 1220.64 863.54 1238.97C852.881 1276.14 844.045 1312.6 835.503 1347.86C824.684 1392.53 814.458 1434.72 801.678 1473.69C785.558 1523.13 762.055 1562.69 731.817 1591.25C700.901 1620.46 664.423 1636.72 623.399 1639.57C600.413 1641.17 576.085 1638.44 551.088 1631.47C504.508 1618.53 468.336 1602.76 430.147 1578.73C388.09 1552.13 349.509 1521.92 312.203 1486.36C254.229 1432.43 205.179 1372.3 162.26 1302.55C97.454 1200.53 56.9163 1102.67 41.788 1011.68C25.6866 914.747 42.4843 809.012 89.0916 713.959C96.8509 698.015 105.457 681.744 114.665 665.559C158.323 588.687 211.176 522.168 262.296 457.832L265.694 453.547C297.573 412.911 326.693 374.634 354.856 337.627C376.999 308.523 397.913 281.036 418.07 255.179C435.187 232.622 450.997 213.62 466.406 197.098C523.206 136.889 576.602 106.97 634.444 102.948Z" fill="#007BFF" fill-opacity="0.5"/>
<path d="M625.483 1610.52C705.287 1604.97 768.799 1547.82 799.738 1453.72C813.176 1413.28 823.531 1370 834.496 1324.19C842.127 1292.31 850.013 1259.35 859.406 1225.42C864.48 1207.57 870.283 1188.8 876.658 1169.65C897.84 1106.03 925.143 1039.26 965.187 953.169C1008.87 858.593 1049.08 766.534 1061.11 679.888C1072.88 594.523 1060.17 508.87 1023.35 425.312C979.305 324.33 916.553 246.291 841.866 199.619C796.176 168.67 745.76 147.758 692.003 137.427C670.747 132.563 649.807 130.817 629.752 132.211C573.373 136.132 520.872 164.242 464.518 220.667C449.339 236.141 433.809 253.88 417.045 274.907C387.412 310.553 355.88 350.129 322.497 392.018C304.638 414.439 286.172 437.615 266.838 461.646C216.205 523.37 163.172 590.131 120.104 667.96C111.315 683.786 103.108 699.729 95.701 715.368C51.5916 807.529 35.77 910.108 51.1584 1004.2C65.7431 1093.55 104.577 1189.01 166.573 1287.93C207.847 1356.98 255.244 1413.79 315.755 1466.73C351.494 1499.16 389.959 1527.64 433.375 1553.82C474.095 1578.2 508.189 1590.15 553.322 1602.54C578.157 1609.44 602.434 1612.12 625.483 1610.52ZM629.707 130.107C649.847 128.706 670.875 130.47 692.208 135.346C746.074 145.697 796.617 166.668 842.412 197.677C917.33 244.488 980.294 322.794 1024.48 424.12C1061.52 508.158 1074.29 594.356 1062.44 680.304C1050.37 767.344 1010.08 859.618 966.299 954.378C926.292 1040.39 899.021 1107.07 877.873 1170.59C871.51 1189.71 865.721 1208.43 860.657 1226.24C851.286 1260.11 843.399 1293.04 835.778 1324.89C824.799 1370.77 814.427 1414.11 800.955 1454.66C769.784 1549.46 705.844 1607.04 625.528 1612.63C602.378 1614.24 577.998 1611.54 553.065 1604.62C507.854 1592.2 473.688 1580.23 432.863 1555.78C389.382 1529.56 350.849 1501.04 315.065 1468.56C254.436 1415.52 206.936 1358.58 165.576 1289.38C103.418 1190.22 64.4772 1094.45 49.8334 1004.73C34.3493 910.015 50.2424 806.81 94.6034 714.126C102.026 698.46 110.26 682.469 119.069 666.606C162.221 588.63 215.312 521.788 265.995 460.006C285.318 435.984 303.787 412.808 321.646 390.397C355.031 348.489 386.569 308.912 416.202 273.276C432.995 252.206 448.563 234.428 463.778 218.91C520.351 162.261 573.074 134.045 629.707 130.107Z" fill="#007BFF" fill-opacity="0.5"/>
<path d="M627.693 1585.46C706.819 1579.96 769.118 1525.64 798.618 1436.41C812.769 1394.22 823.218 1349.72 834.283 1302.62C840.97 1274.15 847.886 1244.7 855.99 1214.16C860.758 1196.83 866.223 1178.51 872.244 1159.7C892.237 1097.24 917.89 1031.89 955.427 947.784C994.662 859.088 1033.88 765.412 1044.78 680.687C1055.46 597.347 1042.92 514.02 1007.52 433.019C964.315 332.675 902.84 258.103 829.746 217.364C786.57 190.312 737.499 172.25 683.872 163.66C663.824 159.479 644.012 158.028 624.974 159.352C569.866 163.184 518.079 189.633 462.002 242.583C447.048 257.052 431.802 273.601 415.379 293.17C369.846 344.428 320.208 404.67 267.654 468.453C221.16 523.402 167.899 590.263 125.347 669.549C116.977 685.065 109.161 700.73 102.104 716.132C60.3092 806.03 45.419 906.221 60.1838 998.248C74.2523 1086.44 111.43 1179.94 170.68 1276.14C210.577 1345.1 256.35 1398.88 319.105 1450.55C353.544 1480.31 390.806 1506.39 436.361 1532.64C478.188 1556.51 511.068 1565.47 552.703 1576.82L555.376 1577.54C580.139 1584.42 604.468 1587.08 627.693 1585.46ZM624.929 157.245C644.049 155.915 663.941 157.365 684.051 161.569C737.785 170.175 786.98 188.287 830.246 215.397C903.593 256.264 965.293 331.115 1008.66 431.835C1044.27 513.303 1056.87 597.162 1046.12 681.067C1035.17 766.187 995.866 860.086 956.55 948.961C919.05 1032.98 893.429 1098.25 873.464 1160.61C867.458 1179.39 862 1197.67 857.249 1214.95C849.157 1245.44 842.248 1274.86 835.566 1303.32C824.487 1350.49 814.021 1395.05 799.831 1437.35C770.099 1527.28 707.372 1582.03 627.738 1587.57C604.413 1589.19 579.981 1586.52 555.119 1579.62L552.449 1578.9C510.752 1567.53 477.82 1558.55 435.871 1534.61C390.245 1508.33 352.933 1482.21 318.442 1452.4C255.546 1400.63 209.667 1346.7 169.671 1277.58C110.272 1181.14 72.9901 1087.33 58.8573 998.772C43.9973 906.138 58.9644 805.332 100.992 714.918C108.07 699.482 115.918 683.766 124.302 668.207C166.939 588.761 220.272 521.813 266.826 466.796C319.381 403.009 369.034 342.752 414.582 291.493C431.012 271.901 446.293 255.304 461.293 240.791C517.587 187.634 569.583 161.094 624.929 157.245Z" fill="#007BFF" fill-opacity="0.5"/>
<path d="M628.177 1559.78C707.303 1554.28 769.602 1499.95 799.102 1410.72C813.253 1368.53 823.702 1324.04 834.767 1276.93C841.454 1248.47 848.37 1219.02 856.474 1188.48C861.242 1171.14 866.707 1152.82 872.728 1134.02C892.721 1071.56 918.374 1006.2 955.911 922.1C995.146 833.404 1034.37 739.729 1045.27 655.004C1055.94 571.663 1043.41 488.336 1008.01 407.335C964.799 306.991 903.325 232.419 830.23 191.681C787.054 164.628 737.984 146.567 684.356 137.977C664.308 133.795 644.496 132.344 625.458 133.668C570.35 137.501 518.564 163.949 462.486 216.899C447.532 231.368 432.286 247.918 415.864 267.487C370.33 318.744 320.692 378.986 268.138 442.77C221.644 497.718 168.384 564.579 125.831 643.865C117.462 659.382 109.646 675.046 102.588 690.448C60.7935 780.346 45.9033 880.538 60.6681 972.564C74.7366 1060.76 111.915 1154.26 171.164 1250.46C211.061 1319.42 256.835 1373.2 319.59 1424.86C354.028 1454.62 391.29 1480.71 436.846 1506.95C478.673 1530.82 511.552 1539.78 553.188 1551.14L555.86 1551.86C580.624 1558.73 604.953 1561.39 628.177 1559.78ZM625.413 131.561C644.534 130.232 664.425 131.682 684.535 135.886C738.269 144.491 787.464 162.603 830.731 189.713C904.078 230.58 965.777 305.432 1009.14 406.151C1044.75 487.619 1057.36 571.478 1046.61 655.384C1035.65 740.503 996.351 834.403 957.035 923.278C919.535 1007.3 893.913 1072.57 873.948 1134.93C867.943 1153.71 862.485 1171.99 857.733 1189.27C849.641 1219.76 842.732 1249.18 836.05 1277.63C824.971 1324.8 814.505 1369.36 800.316 1411.67C770.584 1501.6 707.857 1556.35 628.222 1561.89C604.897 1563.51 580.465 1560.84 555.604 1553.94L552.933 1553.21C511.236 1541.84 478.305 1532.86 436.355 1508.93C390.729 1482.65 353.418 1456.52 318.927 1426.72C256.031 1374.94 210.151 1321.02 170.155 1251.9C110.757 1155.46 73.4744 1061.64 59.3417 973.089C44.4816 880.455 59.4487 779.648 101.477 689.234C108.554 673.799 116.402 658.082 124.786 642.524C167.423 563.077 220.756 496.129 267.311 441.113C319.865 377.325 369.518 317.068 415.067 265.809C431.496 246.217 446.778 229.62 461.777 215.107C518.071 161.951 570.067 135.41 625.413 131.561Z" fill="#007BFF" fill-opacity="0.5"/>
<path d="M628.664 1534.09C707.79 1528.59 770.089 1474.27 799.589 1385.04C813.74 1342.85 824.189 1298.36 835.254 1251.25C841.941 1222.78 848.857 1193.34 856.961 1162.8C861.729 1145.46 867.194 1127.14 873.215 1108.34C893.208 1045.88 918.861 980.52 956.398 896.417C995.633 807.72 1034.85 714.045 1045.75 629.32C1056.43 545.98 1043.89 462.652 1008.49 381.652C965.286 281.307 903.812 206.736 830.717 165.997C787.541 138.945 738.471 120.883 684.843 112.293C664.795 108.112 644.983 106.661 625.945 107.985C570.838 111.817 519.051 138.265 462.973 191.216C448.019 205.685 432.773 222.234 416.351 241.803C370.817 293.06 321.179 353.303 268.625 417.086C222.131 472.035 168.871 538.896 126.318 618.182C117.949 633.698 110.132 649.363 103.075 664.765C61.2805 754.663 46.3903 854.854 61.1551 946.881C75.2236 1035.08 112.402 1128.57 171.651 1224.78C211.548 1293.74 257.322 1347.52 320.077 1399.18C354.515 1428.94 391.777 1455.02 437.333 1481.27C479.16 1505.14 512.039 1514.1 553.675 1525.45L556.347 1526.18C581.111 1533.05 605.44 1535.71 628.664 1534.09ZM625.9 105.878C645.021 104.548 664.912 105.998 685.022 110.202C738.756 118.808 787.951 136.92 831.218 164.03C904.565 204.896 966.264 279.748 1009.63 380.468C1045.24 461.936 1057.85 545.795 1047.1 629.7C1036.14 714.82 996.838 808.719 957.522 897.594C920.022 981.613 894.4 1046.88 874.436 1109.25C868.43 1128.02 862.972 1146.3 858.22 1163.59C850.128 1194.07 843.219 1223.49 836.537 1251.95C825.458 1299.12 814.992 1343.68 800.803 1385.98C771.071 1475.91 708.344 1530.66 628.709 1536.2C605.384 1537.82 580.952 1535.16 556.091 1528.25L553.421 1527.53C511.723 1516.16 478.792 1507.18 436.842 1483.24C391.216 1456.96 353.905 1430.84 319.414 1401.03C256.518 1349.26 210.638 1295.34 170.642 1226.22C111.244 1129.77 73.9614 1035.96 59.8286 947.405C44.9686 854.771 59.9357 753.965 101.964 663.551C109.041 648.115 116.889 632.399 125.273 616.84C167.91 537.394 221.243 470.446 267.798 415.429C320.352 351.641 370.005 291.384 415.554 240.126C431.983 220.534 447.265 203.936 462.264 189.423C518.558 136.267 570.554 109.727 625.9 105.878Z" fill="#007BFF" fill-opacity="0.5"/>
<path d="M629.149 1508.41C708.275 1502.91 770.573 1448.58 800.073 1359.35C814.224 1317.16 824.673 1272.67 835.738 1225.57C842.425 1197.1 849.341 1167.65 857.445 1137.11C862.214 1119.78 867.679 1101.46 873.699 1082.65C893.693 1020.19 919.346 954.836 956.883 870.732C996.117 782.036 1035.34 688.361 1046.24 603.636C1056.91 520.295 1044.38 436.968 1008.98 355.967C965.771 255.623 904.296 181.051 831.201 140.313C788.026 113.26 738.955 95.1986 685.327 86.6085C665.279 82.4272 645.467 80.9762 626.43 82.3001C571.322 86.1324 519.535 112.581 463.458 165.531C448.504 180 433.257 196.549 416.835 216.118C371.302 267.376 321.664 327.618 269.109 391.401C222.615 446.35 169.355 513.211 126.802 592.497C118.433 608.014 110.617 623.678 103.559 639.08C61.7648 728.978 46.8745 829.17 61.6393 921.196C75.7079 1009.39 112.886 1102.89 172.135 1199.09C212.032 1268.05 257.806 1321.83 320.561 1373.5C354.999 1403.26 392.261 1429.34 437.817 1455.58C479.644 1479.46 512.524 1488.42 554.159 1499.77L556.832 1500.49C581.595 1507.36 605.924 1510.03 629.149 1508.41ZM626.385 80.1932C645.505 78.8635 665.397 80.3134 685.506 84.5176C739.24 93.1231 788.435 111.235 831.702 138.345C905.049 179.212 966.749 254.063 1010.11 354.783C1045.72 436.251 1058.33 520.11 1047.58 604.015C1036.63 689.135 997.322 783.034 958.006 871.909C920.506 955.929 894.885 1021.2 874.92 1083.56C868.914 1102.34 863.456 1120.62 858.705 1137.9C850.612 1168.39 843.704 1197.81 837.021 1226.26C825.942 1273.43 815.477 1318 801.287 1360.3C771.555 1450.23 708.828 1504.98 629.193 1510.52C605.869 1512.14 581.437 1509.47 556.575 1502.57L553.905 1501.85C512.207 1490.48 479.276 1481.5 437.327 1457.56C391.701 1431.28 354.389 1405.15 319.898 1375.35C257.002 1323.58 211.122 1269.65 171.127 1200.53C111.728 1104.09 74.4457 1010.28 60.3129 921.72C45.4528 829.087 60.42 728.28 102.448 637.866C109.525 622.43 117.374 606.714 125.758 591.156C168.394 511.709 221.728 444.761 268.282 389.744C320.836 325.957 370.489 265.7 416.038 214.441C432.467 194.849 447.749 178.252 462.748 163.739C519.042 110.582 571.038 84.042 626.385 80.1932Z" fill="#007BFF" fill-opacity="0.5"/>
<path d="M629.639 1482.73C708.765 1477.22 771.063 1422.9 800.563 1333.67C814.714 1291.48 825.163 1246.99 836.228 1199.88C842.915 1171.41 849.831 1141.97 857.935 1111.43C862.704 1094.09 868.169 1075.77 874.189 1056.97C894.183 994.506 919.836 929.151 957.373 845.048C996.607 756.351 1035.83 662.676 1046.73 577.951C1057.4 494.61 1044.87 411.283 1009.47 330.283C966.261 229.938 904.786 155.367 831.691 114.628C788.515 87.5754 739.445 69.514 685.817 60.9239C665.769 56.7426 645.957 55.2917 626.92 56.6156C571.812 60.4478 520.025 86.8963 463.948 139.846C448.994 154.315 433.747 170.865 417.325 190.434C371.792 241.691 322.154 301.934 269.599 365.717C223.105 420.666 169.845 487.526 127.292 566.813C118.923 582.329 111.107 597.993 104.049 613.396C62.2547 703.293 47.3645 803.485 62.1293 895.512C76.1979 983.707 113.376 1077.2 172.625 1173.41C212.522 1242.37 258.296 1296.15 321.051 1347.81C355.489 1377.57 392.751 1403.65 438.307 1429.9C480.134 1453.77 513.014 1462.73 554.649 1474.08L557.322 1474.81C582.085 1481.68 606.414 1484.34 629.639 1482.73ZM626.875 54.5086C645.995 53.179 665.887 54.6289 685.996 58.833C739.73 67.4385 788.925 85.5505 832.192 112.661C905.539 153.527 967.238 228.379 1010.6 329.099C1046.21 410.567 1058.82 494.426 1048.07 578.331C1037.12 663.451 997.812 757.35 958.496 846.225C920.996 930.244 895.375 995.515 875.41 1057.88C869.404 1076.65 863.946 1094.93 859.195 1112.22C851.102 1142.7 844.194 1172.12 837.511 1200.58C826.432 1247.75 815.967 1292.31 801.777 1334.61C772.045 1424.55 709.318 1479.29 629.683 1484.83C606.359 1486.45 581.927 1483.79 557.065 1476.89L554.395 1476.16C512.697 1464.79 479.766 1455.81 437.817 1431.88C392.191 1405.59 354.879 1379.47 320.388 1349.66C257.492 1297.89 211.612 1243.97 171.617 1174.85C112.218 1078.4 74.9357 984.591 60.8029 896.036C45.9428 803.402 60.91 702.596 102.938 612.182C110.015 596.746 117.864 581.029 126.248 565.471C168.884 486.024 222.218 419.076 268.772 364.06C321.326 300.272 370.979 240.015 416.528 188.757C432.957 169.165 448.239 152.567 463.238 138.054C519.532 84.8979 571.528 58.3574 626.875 54.5086Z" fill="#007BFF" fill-opacity="0.5"/>
<path d="M630.123 1457.04C709.249 1451.54 771.548 1397.21 801.048 1307.99C815.198 1265.8 825.648 1221.3 836.713 1174.2C843.4 1145.73 850.315 1116.28 858.42 1085.74C863.188 1068.41 868.653 1050.09 874.673 1031.28C894.667 968.822 920.32 903.467 957.857 819.363C997.092 730.667 1036.31 636.992 1047.21 552.266C1057.89 468.926 1045.35 385.599 1009.95 304.598C966.745 204.254 905.27 129.682 832.175 88.9435C789 61.8908 739.929 43.8294 686.301 35.2394C666.254 31.058 646.442 29.6071 627.404 30.931C572.296 34.7632 520.509 61.2117 464.432 114.162C449.478 128.631 434.231 145.18 417.809 164.749C372.276 216.007 322.638 276.249 270.084 340.032C223.59 394.981 170.329 461.842 127.777 541.128C119.407 556.644 111.591 572.309 104.533 587.711C62.739 677.609 47.8488 777.801 62.6136 869.827C76.6821 958.023 113.86 1051.52 173.11 1147.72C213.007 1216.68 258.78 1270.46 321.535 1322.13C355.974 1351.89 393.235 1377.97 438.791 1404.21C480.618 1428.09 513.498 1437.05 555.133 1448.4L557.806 1449.12C582.569 1456 606.898 1458.66 630.123 1457.04ZM627.359 28.824C646.479 27.4944 666.371 28.9443 686.481 33.1484C740.214 41.7539 789.409 59.866 832.676 86.976C906.023 127.843 967.723 202.694 1011.09 303.414C1046.7 384.882 1059.3 468.741 1048.55 552.646C1037.6 637.766 998.296 731.665 958.98 820.54C921.48 904.559 895.859 969.83 875.894 1032.19C869.888 1050.97 864.43 1069.25 859.679 1086.53C851.586 1117.02 844.678 1146.44 837.996 1174.89C826.917 1222.06 816.451 1266.63 802.261 1308.93C772.529 1398.86 709.802 1453.61 630.168 1459.15C606.843 1460.77 582.411 1458.1 557.549 1451.2L554.879 1450.48C513.182 1439.11 480.25 1430.13 438.301 1406.19C392.675 1379.91 355.363 1353.79 320.872 1323.98C257.976 1272.21 212.097 1218.28 172.101 1149.16C112.702 1052.72 75.4199 958.906 61.2871 870.351C46.4271 777.718 61.3942 676.911 103.422 586.497C110.5 571.061 118.348 555.345 126.732 539.786C169.369 460.34 222.702 393.392 269.256 338.375C321.81 274.588 371.463 214.331 417.012 163.072C433.442 143.48 448.723 126.883 463.722 112.37C520.016 59.2133 572.012 32.6729 627.359 28.824Z" fill="#007BFF" fill-opacity="0.5"/>
</g>
</svg>
