<svg width="46" height="51" viewBox="0 0 46 51" fill="none" xmlns="http://www.w3.org/2000/svg">
<path d="M22.5613 49.3362H1.93484V39.7513C1.93484 34.5094 6.16405 30.2401 11.3884 30.1687L8.77632 41.1789C8.7094 41.46 8.79863 41.7544 9.00831 41.953L12.7424 45.4639C12.8985 45.6089 13.0948 45.6825 13.2956 45.6825C13.4941 45.6825 13.6926 45.6089 13.8488 45.4639L17.5828 41.953C17.7925 41.7544 17.8817 41.46 17.8148 41.1789L15.2028 30.171C16.1775 30.1844 17.1367 30.3428 18.058 30.6484C18.4795 30.7867 18.9368 30.5592 19.0774 30.1353C19.2179 29.7138 18.9881 29.2565 18.5643 29.1159C18.2498 29.0133 17.9331 28.9241 17.6141 28.8483C19.4722 27.5969 20.7615 25.5626 21.0046 23.2204H21.8857C22.3318 23.2204 22.691 22.859 22.691 22.4151V19.3503C22.691 18.9041 22.3296 18.545 21.8857 18.545H21.705C21.5467 16.901 20.9065 15.324 19.8647 14.0347C18.774 12.6896 17.2862 11.7059 15.6332 11.2308V10.9876C15.6332 9.69836 14.5827 8.64771 13.2933 8.64771C12.004 8.64771 10.9534 9.69831 10.9534 10.9876V11.2308C9.28931 11.7104 7.79034 12.7052 6.6996 14.0659C5.66905 15.3485 5.04005 16.9144 4.88165 18.5472H4.70097C4.25484 18.5472 3.89569 18.9086 3.89569 19.3525V22.4173C3.89569 22.8635 4.25705 23.2226 4.70097 23.2226H5.58208C5.82521 25.5626 7.11228 27.5969 8.97038 28.8483C4.01841 30.0037 0.320312 34.4538 0.320312 39.7539V50.1439C0.320312 50.5901 0.681671 50.9492 1.12559 50.9492H22.5572C23.0033 50.9492 23.3625 50.5879 23.3625 50.1439C23.3625 49.6978 23.0011 49.3387 22.5572 49.3387L22.5613 49.3362ZM13.2973 43.7708L10.4533 41.0985L13.0453 30.1683H13.5472L16.1392 41.0985L13.2951 43.7708H13.2973ZM20.0875 18.5447H18.3476L18.9767 15.5623C19.5656 16.4434 19.9559 17.4628 20.0853 18.5447H20.0875ZM12.5727 10.9876C12.5727 10.586 12.8984 10.2604 13.2998 10.2604C13.6991 10.2604 14.027 10.5861 14.027 10.9876V13.8829C14.027 14.2822 13.7013 14.61 13.2998 14.61C12.8984 14.61 12.5727 14.2844 12.5727 13.8829V10.9876ZM13.2998 16.2228C14.5891 16.2228 15.6398 15.1745 15.6398 13.8829V12.9237C16.3781 13.1936 17.054 13.5885 17.6451 14.0791L16.7016 18.5448H9.89824L8.95249 14.0613C9.54134 13.5772 10.2195 13.1891 10.9623 12.9214V13.8806C10.9623 15.1699 12.0128 16.2205 13.3022 16.2205L13.2998 16.2228ZM7.61403 15.5358L8.24977 18.5449H6.50765C6.63479 17.4452 7.02069 16.4191 7.61403 15.5358ZM5.51501 20.1577H21.0849V21.612H5.51501V20.1577ZM7.21476 23.2225H19.3847C18.9877 26.2272 16.4113 28.5559 13.2997 28.5559C10.1882 28.5559 7.61169 26.2294 7.21476 23.2225ZM44.584 34.681L43.5379 34.4066L43.2992 33.5144L44.0688 32.7515C44.4681 32.3567 44.5506 31.7433 44.2695 31.257L43.0226 29.1C42.7416 28.616 42.1705 28.3795 41.6285 28.5267L40.5846 28.8123L39.931 28.1587L40.2165 27.1148C40.3638 26.575 40.1295 26.0017 39.6455 25.7229L37.4907 24.476C37.0045 24.1949 36.391 24.2775 35.9962 24.6767L35.2334 25.4463L34.3411 25.2076L34.0668 24.1615C33.924 23.6195 33.4333 23.2402 32.8734 23.2402H30.3818C29.8219 23.2402 29.3312 23.6195 29.1885 24.1615L28.9141 25.2076L28.0218 25.4463L27.259 24.6767C26.8642 24.2775 26.2508 24.1949 25.7645 24.476L23.6075 25.7229C23.1235 26.004 22.887 26.575 23.0342 27.1148L23.3197 28.1587L22.6662 28.8123L21.6223 28.5267C21.0825 28.3795 20.5092 28.6137 20.2304 29.1L18.9835 31.257C18.7024 31.7433 18.7849 32.3567 19.1842 32.7515L19.9538 33.5144L19.7151 34.4066L18.669 34.681C18.127 34.8215 17.7477 35.3122 17.7477 35.8743V38.3659C17.7477 38.9258 18.1269 39.4165 18.669 39.5593L19.7151 39.8336L19.9538 40.7259L19.1842 41.4887C18.7849 41.8836 18.7024 42.497 18.9835 42.9833L20.2304 45.1402C20.5114 45.6243 21.0825 45.8607 21.6245 45.7135L22.6684 45.428L23.322 46.0815L23.0365 47.1255C22.8892 47.6653 23.1235 48.2385 23.6097 48.5174L25.7667 49.7643C26.253 50.0453 26.8664 49.9628 27.2612 49.5635L28.0241 48.7939L28.9163 49.0326L29.1907 50.0787C29.3334 50.6208 29.8242 51 30.384 51H32.8756C33.4355 51 33.9262 50.6208 34.069 50.0787L34.3434 49.0326L35.2356 48.7939L35.9985 49.5635C36.3933 49.9628 37.0067 50.0453 37.493 49.7643L39.65 48.5174C40.134 48.2363 40.3704 47.6652 40.221 47.1255L39.9355 46.0815L40.589 45.428L41.6307 45.7135C42.1705 45.8607 42.7438 45.6265 43.0248 45.1425L44.2718 42.9855C44.5528 42.4992 44.4703 41.8858 44.071 41.491L43.3014 40.7281L43.5401 39.8359L44.5862 39.5615C45.1283 39.421 45.5075 38.9302 45.5075 38.3682V35.8765C45.5075 35.3167 45.1283 34.826 44.5862 34.6832L44.584 34.681ZM43.8925 38.0741L42.6768 38.393C42.3957 38.4667 42.1771 38.6853 42.1013 38.9641L41.6195 40.7597C41.5437 41.0385 41.6262 41.3374 41.8314 41.5404L42.7259 42.426L41.7712 44.0744L40.5577 43.742C40.2789 43.6662 39.98 43.7443 39.7748 43.9495L38.4587 45.2656C38.2535 45.4708 38.1754 45.7697 38.2512 46.0485L38.5836 47.262L36.9352 48.2167L36.0496 47.3222C35.8466 47.117 35.5477 47.0345 35.2689 47.1103L33.4733 47.5921C33.1944 47.668 32.9758 47.8866 32.9022 48.1676L32.5833 49.3833H30.6761L30.3571 48.1676C30.2835 47.8865 30.0649 47.6679 29.7861 47.5921L27.9905 47.1103C27.7116 47.0345 27.4128 47.117 27.2097 47.3222L26.3242 48.2167L24.6758 47.262L25.0081 46.0485C25.084 45.7697 25.0059 45.4708 24.8007 45.2656L23.4846 43.9495C23.2794 43.7443 22.9805 43.6662 22.7017 43.742L21.4882 44.0744L20.5335 42.426L21.428 41.5404C21.6332 41.3374 21.7157 41.0385 21.6399 40.7597L21.1581 38.9641C21.0822 38.6853 20.8636 38.4667 20.5826 38.393L19.3669 38.0741V36.1691L20.5826 35.8502C20.8636 35.7766 21.0822 35.558 21.1581 35.2791L21.6399 33.4835C21.7157 33.2047 21.6332 32.9058 21.428 32.7028L20.5335 31.8172L21.4882 30.1688L22.7017 30.5012C22.9805 30.577 23.2794 30.4989 23.4846 30.2937L24.8007 28.9777C25.0059 28.7724 25.084 28.4735 25.0081 28.1947L24.6758 26.9813L26.3242 26.0265L27.2097 26.921C27.4127 27.1262 27.7116 27.2088 27.9905 27.1329L29.7861 26.6511C30.0649 26.5753 30.2835 26.3567 30.3571 26.0756L30.6761 24.8599H32.5833L32.9022 26.0756C32.9758 26.3567 33.1944 26.5753 33.4733 26.6511L35.2689 27.1329C35.5477 27.2088 35.8466 27.1262 36.0496 26.921L36.9352 26.0265L38.5836 26.9813L38.2512 28.1947C38.1754 28.4735 38.2535 28.7724 38.4587 28.9777L39.7748 30.2937C39.98 30.4989 40.2789 30.577 40.5577 30.5012L41.7712 30.1688L42.7259 31.8172L41.8314 32.7028C41.6262 32.9058 41.5436 33.2047 41.6195 33.4835L42.1013 35.2791C42.1771 35.558 42.3957 35.7766 42.6768 35.8502L43.8925 36.1691V38.0741ZM31.6306 29.1739C27.2474 29.1739 23.6829 32.7384 23.6829 37.1193C23.6829 41.5002 27.2474 45.0647 31.6306 45.0647C36.0138 45.0647 39.576 41.5002 39.576 37.1193C39.576 32.7384 36.0115 29.1739 31.6306 29.1739ZM31.6306 43.4544C28.1375 43.4544 25.2955 40.6126 25.2955 37.1193C25.2955 33.6261 28.1373 30.7842 31.6306 30.7842C35.1237 30.7842 37.9657 33.626 37.9657 37.1193C37.9657 40.6124 35.1239 43.4544 31.6306 43.4544ZM12.4894 6.37066V0.805277C12.4894 0.359154 12.8508 0 13.2947 0H31.6261C32.0723 0 32.4314 0.361358 32.4314 0.805277V21.0902C32.4314 21.5364 32.0701 21.8955 31.6261 21.8955C31.18 21.8955 30.8209 21.5341 30.8209 21.0902V1.61044H14.1026V6.37055C14.1026 6.81667 13.7413 7.17582 13.2973 7.17582C12.8512 7.17582 12.4921 6.81447 12.4921 6.37055L12.4894 6.37066ZM16.8926 3.68947C16.4465 3.68947 16.0874 4.05083 16.0874 4.49475V7.55962C16.0874 8.00574 16.4487 8.36489 16.8926 8.36489H19.9575C20.4036 8.36489 20.7628 8.00354 20.7628 7.55962V4.49475C20.7628 4.04862 20.4014 3.68947 19.9575 3.68947H16.8926ZM19.1522 6.75434H17.6979V5.29997H19.1522V6.75434ZM28.8062 4.49475C28.8062 4.04862 28.4448 3.68947 28.0009 3.68947H24.936C24.4899 3.68947 24.1308 4.05083 24.1308 4.49475V7.55962C24.1308 8.00574 24.4921 8.36489 24.936 8.36489H28.0009C28.447 8.36489 28.8062 8.00354 28.8062 7.55962V4.49475ZM27.1935 6.75434H25.7391V5.29997H27.1935V6.75434ZM27.9987 11.2156H24.9339C24.4878 11.2156 24.1286 11.5769 24.1286 12.0208V15.0857C24.1286 15.5318 24.49 15.891 24.9339 15.891H27.9987C28.4449 15.891 28.804 15.5296 28.804 15.0857V12.0208C28.804 11.5747 28.4427 11.2156 27.9987 11.2156ZM27.1935 14.2804H25.7391V12.8261H27.1935V14.2804Z" fill="#292F36"/>
</svg>
