<svg width="398" height="736" viewBox="0 0 398 736" fill="none" xmlns="http://www.w3.org/2000/svg">
<path d="M10.1519 389.934C12.7368 334.059 55.2417 290.22 102.624 263.024C135.957 243.898 159.096 234.686 184.653 188.584C196.535 167.156 201.476 142.763 203.602 118.691C203.748 116.988 205.874 116.227 207.125 117.429C207.125 117.429 217.173 133.45 220.696 138.697C220.967 139.098 221.154 139.519 221.279 139.919C224.552 149.091 261.825 261.001 193.93 406.997C176.732 443.966 155.26 482.137 135.04 515.582C134.748 516.063 134.352 516.443 133.872 516.744C102.77 535.749 80.8196 567.492 76.1293 604.521C75.8999 606.264 74.3991 607.585 72.5855 607.585H3.6689C1.64685 607.585 0 606.003 0 604.061V591.924C0 590.863 0.500289 589.862 1.35497 589.181C12.2991 580.749 86.5522 522.551 122.574 470.081C161.535 413.345 143.482 373.892 129.391 356.749C106.96 329.473 48.6752 322.544 26.1408 382.504C25.9115 383.105 25.4737 383.926 24.7858 384.407L11.6737 392.718C10.7774 392.718 10.0477 391.997 10.0894 391.136" fill="white"/>
<path d="M267.824 707.198C267.388 706.159 266.163 705.66 265.083 706.079C233.648 718.506 173.185 705.979 151.467 680.985C150.657 680.066 150.408 678.547 150.388 677.748C150.242 676.869 152.028 677.608 152.713 677.848C207.299 696.869 303.122 695.83 311.074 635.331C311.302 633.613 309.309 632.454 307.835 633.473C252.065 671.614 148.809 654.712 107.989 603.364C107.553 602.825 107.428 602.105 107.636 601.466C108.072 600.107 109.754 599.548 110.958 600.347C139.736 619.548 186.557 630.896 223.495 627.899C265.395 624.083 303.267 609.278 304.637 572.895C304.7 571.117 302.436 570.178 301.128 571.457C262.384 609.258 173.808 590.118 138.511 554.814C137.805 554.114 137.722 553.036 138.262 552.216C138.947 551.197 140.38 550.938 141.397 551.677C174.494 575.712 264.004 580.827 259.519 527.841C259.291 525.204 258.273 524.465 256.633 523.705C244.009 517.931 222.311 510.459 202.441 510.459C139.881 510.459 89.1568 559.269 89.1568 619.468C85.9593 707.418 197.977 757.287 267.098 709.635C267.887 709.076 268.198 708.077 267.824 707.198Z" fill="white"/>
<path d="M364.978 606.008C366.333 551.343 333.665 503.492 285.529 481.209C267.788 471.41 218.901 461.431 218.901 461.431L238.539 421.935C239.018 420.953 238.602 419.771 237.58 419.29L228.678 416.986C228.115 416.725 228.303 415.904 228.928 415.904H370.002C370.648 415.904 371.211 415.523 371.461 414.962L397.875 353.364C398.313 352.362 397.541 351.26 396.415 351.26H233.14C232.535 351.26 231.972 351.6 231.722 352.121L158.673 500.907C157.902 502.49 159.465 504.173 161.175 503.632C175.789 498.923 191.591 496.719 207.998 497.54C274.73 500.887 327.682 554.65 327.557 618.873C327.453 669.771 294.931 712.993 249.109 731.028C246.461 732.07 247.608 735.837 250.422 735.336C314.277 723.954 363.331 670.873 364.957 605.968L364.978 606.008Z" fill="white"/>
<path d="M83.0114 39.832L93.9391 36.0064C107.358 32.2609 109.409 33.7631 119.5 43.4373C120.086 44.0181 120.714 44.619 121.342 45.2599C123.477 47.6034 125.592 50.0069 127.622 52.4104C128.187 53.0714 129.025 53.3919 129.841 53.2917C130.197 53.2516 130.553 53.1315 130.888 52.9111C131.851 52.2902 132.144 51.1085 131.579 50.107C130.03 47.4231 128.418 44.7192 126.743 42.0953C126.262 41.2541 125.801 40.4529 125.34 39.6718L125.131 39.3313C118.265 28.0147 117.553 26.833 126.555 20.043L135.619 14.2746C136.519 13.6937 136.812 12.6522 136.331 11.7309C135.808 10.7494 134.447 10.0484 133.086 10.5291L122.137 14.3747C109.179 18.0601 107.19 16.6781 96.179 8.98686L94.6508 7.92531C93.9181 7.42457 93.1435 6.90381 92.348 6.36302C89.5847 4.36009 86.7377 2.39721 83.9115 0.514459C82.7392 -0.266684 81.1063 -0.14651 80.3108 0.794868C79.6409 1.57601 79.7456 2.63756 80.583 3.39868C82.9067 5.50175 85.2095 7.72501 87.4285 9.92824C88.0775 10.6493 88.7055 11.3303 89.2707 11.9712C94.0856 17.4593 96.3255 20.4837 96.0743 22.9072C95.865 24.83 94.0647 26.8931 89.5638 30.3181L80.5411 36.0665C79.641 36.6473 79.3479 37.7089 79.8294 38.6302C80.3318 39.5916 81.6925 40.3127 83.0532 39.832H83.0114Z" fill="white"/>
<path d="M149.82 76.6761L165.078 69.8582C183.238 63.1806 185.995 65.7073 193.272 82.9325C193.666 83.9551 194.08 85.0179 194.495 86.1409C195.76 90.2517 196.838 94.4427 197.688 98.5936C197.916 99.6965 198.786 100.118 199.553 100.037C199.553 100.037 199.553 100.037 199.574 100.037C200.714 99.897 201.958 98.6738 201.937 97.1097C201.813 92.4374 201.481 87.705 200.922 83.0528C200.818 81.5689 200.673 80.1652 200.548 78.8217L200.113 75.5331C197.791 57.9269 197.314 54.2572 211.867 41.8246C216.407 38.4157 220.927 35.0067 225.446 31.6178C226.566 30.7756 226.586 29.4321 226.027 28.5297C225.425 27.5872 224.306 27.2464 223.269 27.7076L207.97 34.5254C190.39 41.0024 188.006 38.5159 176.604 26.5245C175.692 25.5619 174.697 24.5392 173.64 23.4364C172.79 22.5741 171.878 21.6918 170.883 20.7694C167.648 17.3805 164.186 14.0517 160.621 10.9035C159.501 9.92089 157.988 10.1014 157.179 10.8233C156.392 11.5251 156.33 12.628 157.014 13.4903C159.833 17.0396 162.549 20.7894 165.036 24.5794C165.762 25.8026 166.425 26.9857 167.047 28.0685C176.065 45.1734 176.459 49.2842 161.346 62.4989C156.827 65.9078 152.287 69.3167 147.747 72.7257C146.607 73.588 146.586 74.9916 147.146 75.8739C147.726 76.7763 148.825 77.0972 149.82 76.656V76.6761Z" fill="white"/>
<path d="M143.132 195.177C142.819 181.73 138.132 169.664 130.82 161.1C129.965 160.099 128.403 159.959 127.32 160.719L121.674 164.721C121.195 165.062 120.57 164.541 120.862 164.041C122.403 161.46 124.841 157.318 125.611 155.977L136.59 137.347C137.611 135.626 136.215 133.505 134.174 133.645L71.8635 137.527C70.9677 137.587 70.1761 138.068 69.7594 138.828L30.9901 207.324C30.0109 209.044 31.4068 211.126 33.4275 210.986L66.1345 208.944C67.3845 208.864 68.4886 209.665 68.8011 210.845C74.03 230.336 88.8629 244.263 106.029 243.903C127.091 243.462 143.694 221.651 143.09 195.177H143.132Z" fill="white"/>
<path d="M30.6762 454.958L16.8908 437.017V454.958H13.1426V431.59H16.995L30.5721 449.121V431.59H34.3204V454.958H30.6971H30.6762Z" fill="white"/>
<path d="M40.8945 454.958V431.59H57.6907V434.674H44.634V441.507H57.4192V444.592H44.634V451.874H57.6907V454.958H40.8945Z" fill="white"/>
<path d="M80.2048 454.939L72.6818 445.42L65.1587 454.939H60.6113L70.2509 442.962L61.1771 431.59H65.7245L72.6818 440.563L79.5971 431.59H84.1445L75.1545 442.943L84.7102 454.958H80.2048V454.939Z" fill="white"/>
<path d="M94.8663 454.958V434.674H86.9023V431.59H106.62V434.674H98.6984V454.958H94.8449H94.8663Z" fill="white"/>
<path d="M263.973 454.958V445.186L254.135 431.59H258.456L265.84 442.026L273.14 431.59H277.503L267.707 445.186V454.958H263.931H263.973Z" fill="white"/>
<path d="M281.154 454.958V431.59H297.951V434.674H284.894V441.507H297.679V444.592H284.894V451.874H297.951V454.958H281.154Z" fill="white"/>
<path d="M321.52 454.958L319.472 450.117H307.078L305.03 454.958H300.871L310.921 431.59H315.65L325.7 454.958H321.541H321.52ZM313.243 434.616L308.155 446.993H318.353L313.243 434.616Z" fill="white"/>
<path d="M344.105 454.958L338.305 445.959H333.746V454.958H330.082V431.59H340.34C344.981 431.59 348.156 434.46 348.156 438.774C348.156 443.089 345.204 445.217 342.09 445.607L348.339 454.958H344.105ZM339.872 434.655H333.725V442.854H339.872C342.497 442.854 344.411 441.214 344.411 438.755C344.411 436.295 342.518 434.655 339.872 434.655Z" fill="white"/>
<path d="M354.143 449.07C355.872 450.875 358.625 452.46 362.188 452.46C366.328 452.46 367.779 450.474 367.779 448.749C367.779 446.222 364.877 445.5 361.612 444.718C357.515 443.715 352.756 442.592 352.756 437.698C352.756 433.727 356.469 430.859 361.804 430.859C365.752 430.859 368.846 432.043 371.108 434.209L368.889 436.876C366.926 434.931 364.258 434.068 361.505 434.068C358.753 434.068 356.725 435.432 356.725 437.458C356.725 439.624 359.478 440.306 362.658 441.068C366.84 442.111 371.706 443.334 371.706 448.448C371.706 452.199 368.953 455.689 362.06 455.689C357.494 455.689 354.165 454.144 351.988 451.878L354.165 449.11L354.143 449.07Z" fill="white"/>
</svg>
