<svg width="53" height="53" viewBox="0 0 53 53" fill="none" xmlns="http://www.w3.org/2000/svg">
<mask id="mask0_441_216" style="mask-type:alpha" maskUnits="userSpaceOnUse" x="0" y="0" width="53" height="53">
<rect width="53" height="53" fill="#D9D9D9"/>
</mask>
<g mask="url(#mask0_441_216)">
<path d="M10.5194 42.9776V39.4106H17.1952L11.4789 20.7159C10.5135 20.2489 9.74427 19.5807 9.17121 18.7113C8.59778 17.8423 8.31107 16.8431 8.31107 15.7135C8.31107 14.1846 8.84898 12.8822 9.92481 11.8064C11.0006 10.7306 12.303 10.1927 13.8319 10.1927C15.1823 10.1927 16.3409 10.6067 17.3078 11.4349C18.2747 12.263 18.9223 13.3212 19.2506 14.6093H27.3364V11.2968C27.3364 10.9825 27.4419 10.7199 27.6528 10.509C27.864 10.2981 28.1266 10.1927 28.4406 10.1927C28.6872 10.1927 28.903 10.2663 29.0882 10.4135C29.2737 10.5607 29.392 10.7532 29.4432 10.991V11.5856L33.4518 7.88221C33.7547 7.5793 34.0939 7.39601 34.4693 7.33233C34.8444 7.26866 35.2102 7.33307 35.5669 7.52556L43.9249 11.4155C44.1965 11.5514 44.4009 11.7461 44.5382 11.9996C44.6755 12.2529 44.6805 12.5111 44.5531 12.7742C44.4173 13.0462 44.2226 13.2183 43.969 13.2904C43.7158 13.3626 43.4574 13.335 43.1939 13.2076L34.8194 9.30934L29.5447 14.1677V17.2593L34.8194 22.0073L43.1939 18.1084C43.4574 17.9811 43.718 17.9557 43.9757 18.0323C44.2333 18.1084 44.4258 18.2783 44.5531 18.5418C44.6889 18.8135 44.6862 19.0739 44.5449 19.323C44.4031 19.5722 44.1965 19.7647 43.9249 19.9005L35.5669 23.8159C35.2102 24.0087 34.8444 24.0662 34.4693 23.9881C34.0939 23.9101 33.7547 23.7338 33.4518 23.4592L29.4432 19.8409V20.4355C29.392 20.6563 29.2737 20.8446 29.0882 21.0003C28.903 21.1563 28.6872 21.2343 28.4406 21.2343C28.1266 21.2343 27.864 21.1287 27.6528 20.9174C27.4419 20.7066 27.3364 20.4441 27.3364 20.1302V16.8177H19.2506C19.1402 17.3101 18.9569 17.7984 18.7007 18.2824C18.4446 18.7667 18.1635 19.1703 17.8577 19.4931L28.5598 39.4106H37.0194V42.9776H10.5194ZM13.8319 19.026C14.7406 19.026 15.5198 18.701 16.1694 18.051C16.8194 17.4014 17.1444 16.6222 17.1444 15.7135C17.1444 14.8044 16.8194 14.0251 16.1694 13.3754C15.5198 12.7258 14.7406 12.401 13.8319 12.401C12.9232 12.401 12.1438 12.7258 11.4938 13.3754C10.8442 14.0251 10.5194 14.8044 10.5194 15.7135C10.5194 16.6222 10.8442 17.4014 11.4938 18.051C12.1438 18.701 12.9232 19.026 13.8319 19.026ZM19.5139 39.4106H26.0285L16.0231 20.8092C15.7968 20.9509 15.4769 21.0713 15.0636 21.1703C14.6503 21.2693 14.2736 21.2907 13.9335 21.2343L19.5139 39.4106Z" fill="#1C1B1F"/>
</g>
</svg>
