<svg width="54" height="53" viewBox="0 0 54 53" fill="none" xmlns="http://www.w3.org/2000/svg">
<path d="M51.5327 26.6892H42.9264C42.5451 26.6892 42.2353 26.9984 42.2353 27.3803C42.2353 36.0002 35.2228 43.0127 26.6029 43.0127C17.9829 43.0127 10.9704 36.0002 10.9704 27.3803C10.9704 26.999 10.6612 26.6892 10.2793 26.6892H1.67302C1.29172 26.6892 0.981941 26.9984 0.981941 27.3803V31.4292C0.981941 32.3763 1.75224 33.1466 2.6999 33.1466H6.41247C6.85231 34.6884 7.46831 36.1746 8.24984 37.578L5.62325 40.2046C5.29929 40.528 5.12135 40.9595 5.12135 41.4189C5.12135 41.8788 5.29988 42.3098 5.62325 42.6338L11.3494 48.3593C11.6733 48.6832 12.1043 48.8612 12.5636 48.8612C13.0236 48.8612 13.4545 48.6827 13.7779 48.3593L16.4045 45.7327C17.8091 46.5148 19.2954 47.1314 20.836 47.5707V51.2826C20.836 52.2297 21.6063 53 22.5539 53H30.6512C31.5983 53 32.3686 52.2297 32.3686 51.2826V47.5701C33.9104 47.1302 35.3966 46.5142 36.8 45.7327L39.4266 48.3593C39.75 48.6832 40.1816 48.8612 40.6409 48.8612C41.1002 48.8612 41.5318 48.6827 41.8558 48.3593L47.5819 42.6332C47.9053 42.3098 48.0838 41.8782 48.0838 41.4189C48.0838 40.9595 47.9053 40.528 47.5819 40.2046L44.9553 37.578C45.7374 36.1734 46.354 34.6878 46.7933 33.1466H50.5052C51.4523 33.1466 52.2226 32.3763 52.2226 31.4286V27.3797C52.2232 26.999 51.914 26.6892 51.5327 26.6892ZM50.8416 31.4292C50.8416 31.6113 50.6879 31.765 50.5058 31.765H46.2653C45.9502 31.765 45.6748 31.9784 45.5961 32.2835C45.1397 34.0564 44.4339 35.7584 43.4986 37.341C43.3384 37.6123 43.3822 37.9582 43.6051 38.181L46.6059 41.1818C46.6904 41.2664 46.7028 41.3669 46.7028 41.4189C46.7028 41.4709 46.6904 41.572 46.6059 41.6565L40.8797 47.3827C40.7952 47.4672 40.6947 47.4796 40.6421 47.4796C40.5895 47.4796 40.489 47.4672 40.405 47.3827L37.4042 44.3819C37.1814 44.159 36.8355 44.1152 36.5642 44.2754C34.9822 45.2101 33.2808 45.916 31.5061 46.3729C31.201 46.4516 30.9876 46.7271 30.9876 47.0421V51.2832C30.9876 51.4653 30.8339 51.619 30.6518 51.619H22.5539C22.3718 51.619 22.2181 51.4653 22.2181 51.2832V47.0427C22.2181 46.7276 22.0047 46.4521 21.6997 46.3735C19.9267 45.9171 18.2247 45.2113 16.6422 44.276C16.5328 44.2116 16.4116 44.1797 16.291 44.1797C16.1125 44.1797 15.9351 44.2488 15.8021 44.3819L12.8013 47.3827C12.7168 47.4672 12.6163 47.4796 12.5642 47.4796C12.5116 47.4796 12.4111 47.4672 12.3266 47.3827L6.60047 41.6571C6.51593 41.5726 6.50351 41.4721 6.50351 41.4195C6.50351 41.3669 6.51593 41.2664 6.60047 41.1818L9.60127 38.181C9.82414 37.9582 9.86789 37.6123 9.70768 37.341C8.77303 35.759 8.06717 34.0576 7.61019 32.2829C7.53157 31.9778 7.25608 31.7644 6.94098 31.7644H2.6999C2.51781 31.7644 2.36411 31.6107 2.36411 31.4286V28.0708H9.60186C9.96602 37.1341 17.4527 44.3949 26.6029 44.3949C35.7537 44.3949 43.2397 37.1341 43.6039 28.0713H50.8416V31.4292ZM3.35196 21.3479C4.9635 21.3479 6.31256 20.2046 6.6318 18.687H16.5127V26.6892H15.7288C15.3475 26.6892 15.0377 26.9984 15.0377 27.3803C15.0377 33.7573 20.2259 38.9448 26.6023 38.9448C32.9787 38.9448 38.1674 33.7567 38.1674 27.3803C38.1674 26.999 37.8582 26.6892 37.4763 26.6892H36.6924V18.687H46.5733C46.8926 20.2046 48.2416 21.3479 49.8532 21.3479C51.7012 21.3479 53.2051 19.844 53.2051 17.996C53.2051 16.1479 51.7012 14.644 49.8532 14.644C48.2416 14.644 46.8926 15.7873 46.5733 17.3049H36.002C35.6206 17.3049 35.3109 17.6141 35.3109 17.996V26.6892H33.7561V18.2448C33.7561 17.8635 33.4469 17.5538 33.065 17.5538C32.6831 17.5538 32.3739 17.8629 32.3739 18.2448V26.6898H30.8185V11.804H40.6994C41.0187 13.3221 42.3683 14.4649 43.9799 14.4649C45.8279 14.4649 47.3318 12.9609 47.3318 11.1129C47.3318 9.26489 45.8279 7.76094 43.9799 7.76094C42.3683 7.76094 41.0187 8.90368 40.6994 10.4218H30.1275C29.7461 10.4218 29.4364 10.731 29.4364 11.1129V26.6892H27.2934V6.6318C28.8109 6.31256 29.9542 4.9635 29.9542 3.35196C29.9542 1.50395 28.4509 0 26.6023 0C24.7543 0 23.2503 1.50395 23.2503 3.35196C23.2503 4.9635 24.3936 6.31256 25.9112 6.6318V26.6892H23.7688V11.1129C23.7688 10.7316 23.4596 10.4218 23.0777 10.4218H12.5069C12.1877 8.90368 10.838 7.76094 9.22647 7.76094C7.37845 7.76094 5.8745 9.26489 5.8745 11.1129C5.8745 12.9609 7.37845 14.4649 9.22647 14.4649C10.838 14.4649 12.1877 13.3215 12.5069 11.804H22.3872V26.6892H20.8318V18.2448C20.8318 17.8635 20.5226 17.5538 20.1407 17.5538C19.7588 17.5538 19.4497 17.8629 19.4497 18.2448V26.6898H17.8949V17.996C17.8949 17.6146 17.5857 17.3049 17.2038 17.3049H6.6318C6.31256 15.7873 4.9635 14.644 3.35196 14.644C1.50395 14.644 0 16.1479 0 17.996C0 19.8446 1.50395 21.3479 3.35196 21.3479ZM49.8538 16.0262C50.9398 16.0262 51.8236 16.91 51.8236 17.996C51.8236 19.0819 50.9398 19.9657 49.8538 19.9657C48.7678 19.9657 47.884 19.0819 47.884 17.996C47.884 16.91 48.7678 16.0262 49.8538 16.0262ZM43.9793 9.14311C45.0653 9.14311 45.9491 10.0269 45.9491 11.1129C45.9491 12.1989 45.0653 13.0827 43.9793 13.0827C42.8933 13.0827 42.0095 12.1989 42.0095 11.1129C42.0095 10.0269 42.8933 9.14311 43.9793 9.14311ZM24.6331 3.35196C24.6331 2.26597 25.5169 1.38217 26.6029 1.38217C27.6889 1.38217 28.5727 2.26597 28.5727 3.35196C28.5727 4.43795 27.6889 5.32176 26.6029 5.32176C25.5169 5.32176 24.6331 4.43854 24.6331 3.35196ZM9.22647 13.0827C8.14048 13.0827 7.25667 12.1989 7.25667 11.1129C7.25667 10.0269 8.14048 9.14311 9.22647 9.14311C10.3125 9.14311 11.1963 10.0269 11.1963 11.1129C11.1963 12.1995 10.3125 13.0827 9.22647 13.0827ZM26.6029 37.5632C21.2202 37.5632 16.8 33.3653 16.4429 28.0713H36.7622C36.4057 33.3647 31.9855 37.5632 26.6029 37.5632ZM3.35196 16.0262C4.43795 16.0262 5.32176 16.91 5.32176 17.996C5.32176 19.0819 4.43795 19.9657 3.35196 19.9657C2.26597 19.9657 1.38217 19.0819 1.38217 17.996C1.38217 16.91 2.26538 16.0262 3.35196 16.0262Z" fill="#292F36"/>
</svg>
