<svg width="52" height="52" viewBox="0 0 52 52" fill="none" xmlns="http://www.w3.org/2000/svg">
<path d="M51.3897 22.852L43.5177 20.6676C43.1742 19.5254 42.7168 18.4251 42.155 17.3874L46.1874 10.291C46.3731 9.966 46.3174 9.55742 46.0528 9.29278L42.7168 5.95687C42.4522 5.69223 42.0436 5.63651 41.7163 5.82223L34.6241 9.8569C33.5679 9.28351 32.4675 8.82617 31.3393 8.48957L29.1688 0.610511C29.0689 0.250688 28.7416 0 28.3678 0H23.6507C23.2769 0 22.9496 0.248394 22.8498 0.610511L20.6699 8.48244C19.5278 8.82833 18.4274 9.28336 17.3898 9.84513L10.2934 5.81278C9.96838 5.62707 9.5598 5.68278 9.29516 5.94742L5.95925 9.28333C5.69461 9.54797 5.63889 9.95654 5.82461 10.2839L9.85696 17.3713C9.28589 18.4229 8.82855 19.5256 8.49194 20.6585L0.610511 22.8313C0.250688 22.9311 0 23.2584 0 23.6322V28.3494C0 28.7231 0.248394 29.0504 0.610511 29.1503L8.48244 31.3301C8.82833 32.4723 9.28336 33.5726 9.84514 34.6103L5.81278 41.7091C5.62707 42.0341 5.68278 42.4426 5.94742 42.7073L9.28333 46.0432C9.54797 46.3078 9.95654 46.3635 10.2839 46.1778L17.3761 42.1432C18.4323 42.7166 19.5327 43.1739 20.6609 43.5105L22.8314 51.3872C22.9312 51.7493 23.2586 52 23.6323 52H28.3448C28.7186 52 29.0459 51.7516 29.1458 51.3895L31.3302 43.5176C32.4724 43.174 33.5727 42.7166 34.6104 42.1549L41.7068 46.1872C42.0318 46.3729 42.4404 46.3172 42.705 46.0526L46.0409 42.7167C46.3056 42.452 46.3613 42.0435 46.1756 41.7161L42.1409 34.6239C42.7143 33.5677 43.1716 32.4673 43.5082 31.3391L51.3849 29.1686C51.7494 29.0688 52.0001 28.7414 52.0001 28.3677V23.6552C52.0001 23.2791 51.7518 22.9519 51.3897 22.852ZM50.3358 27.734L42.6195 29.8604C42.334 29.9393 42.1135 30.1622 42.0369 30.4477C41.691 31.7454 41.164 33.0106 40.4722 34.2061C40.3979 34.3338 40.3608 34.4847 40.3608 34.6309C40.3608 34.7749 40.3979 34.9165 40.4699 35.0418L44.4209 41.9879L41.9811 44.4277L35.0285 40.4766C34.7709 40.3304 34.4575 40.3327 34.2021 40.479C33.0298 41.1545 31.7646 41.6814 30.4391 42.0436C30.1559 42.1202 29.9354 42.3407 29.8564 42.624L27.716 50.3336L24.2664 50.336L22.14 42.6197C22.061 42.3342 21.8382 42.1137 21.5526 42.0371C20.255 41.6912 18.9898 41.1642 17.7943 40.4724C17.5435 40.3262 17.2116 40.3262 16.9586 40.4701L10.0125 44.4212L7.5727 41.9813L11.5238 35.0287C11.67 34.7711 11.6677 34.4577 11.5214 34.2023C10.8459 33.03 10.319 31.7648 9.95679 30.4393C9.88018 30.1561 9.65965 29.9356 9.37644 29.8566L1.66437 27.7186V24.2666L9.3806 22.1379C9.66613 22.0589 9.88667 21.8361 9.96328 21.5505C10.3115 20.2436 10.8385 18.9761 11.5279 17.7829C11.6765 17.5275 11.6765 17.2118 11.5302 16.9565L7.57918 10.0128L10.019 7.57296L16.9716 11.524C17.2293 11.6703 17.5427 11.6679 17.798 11.5217C18.9704 10.8462 20.2355 10.3192 21.561 9.95706C21.8442 9.88045 22.0648 9.65991 22.1437 9.3767L24.2795 1.66702H27.7314L29.8602 9.38324C29.9391 9.66878 30.162 9.88931 30.4475 9.96592C31.7452 10.3118 33.0103 10.8388 34.2059 11.5306C34.4566 11.6768 34.7886 11.6768 35.0416 11.5329L41.9876 7.58182L44.4274 10.0217L40.4764 16.9742C40.3301 17.2319 40.3324 17.5453 40.4787 17.8006C41.1542 18.973 41.6812 20.2382 42.0433 21.5637C42.1199 21.8469 42.3405 22.0674 42.6237 22.1463L50.3358 24.2867L50.3358 27.734ZM35.1351 16.6493C37.6747 19.131 39.0722 22.4506 39.0722 25.9999C39.0722 32.7622 34.0023 38.3569 27.2792 39.0094C27.2514 39.0117 27.2258 39.014 27.198 39.014C26.7755 39.014 26.4133 38.6913 26.3715 38.2619C26.3274 37.8046 26.6617 37.3983 27.119 37.3542C32.9853 36.7832 37.4073 31.9035 37.4073 26.0004C37.4073 22.9036 36.1862 20.004 33.9716 17.8408C33.642 17.5205 33.6374 16.9935 33.9577 16.6638C34.2781 16.3342 34.805 16.3296 35.1347 16.6499L35.1351 16.6493ZM21.0951 37.2473C20.9465 37.5329 20.6563 37.6954 20.3568 37.6954C20.2268 37.6954 20.0968 37.6652 19.9738 37.6002C15.6281 35.3414 12.9285 30.896 12.9285 25.9997C12.9285 20.4027 16.485 15.4303 21.7781 13.6243C22.2122 13.4757 22.6857 13.7078 22.8343 14.1443C22.9829 14.5784 22.7507 15.0519 22.3143 15.2005C17.697 16.7767 14.5933 21.1155 14.5933 25.9999C14.5933 30.2713 16.9495 34.1529 20.743 36.1259C21.1492 36.3372 21.3094 36.8409 21.0958 37.2472L21.0951 37.2473ZM31.7043 24.9997C31.5557 24.742 31.2818 24.5818 30.9823 24.5818H27.9598L33.6265 13.843C33.7635 13.5854 33.7542 13.2743 33.6033 13.0259C33.4524 12.7752 33.1831 12.6243 32.8906 12.6243H25.2231C24.8401 12.6243 24.5058 12.8866 24.4152 13.258L20.7079 28.4052C20.6475 28.6536 20.7033 28.9159 20.8611 29.1179C21.019 29.3199 21.2604 29.4359 21.5158 29.4359H24.8122L22.0196 39.1579C21.9035 39.5618 22.1055 39.9866 22.4931 40.1515C22.5999 40.1979 22.7113 40.2188 22.8205 40.2188C23.1083 40.2188 23.3869 40.0679 23.5401 39.8056L31.702 25.8327C31.8506 25.575 31.8528 25.2573 31.7043 24.9997ZM25.4571 33.227L26.72 28.8325C26.7919 28.5818 26.7432 28.3102 26.5853 28.1012C26.4275 27.8923 26.1814 27.7693 25.9214 27.7693L22.5762 27.7716L25.8773 14.2884H31.5114L25.8448 25.0248C25.7078 25.2825 25.7171 25.5936 25.868 25.842C26.0189 26.0927 26.2882 26.2436 26.5807 26.2436H29.5336L25.4571 33.227Z" fill="#292F36"/>
</svg>
