<svg width="38" height="37" viewBox="0 0 38 37" fill="none" xmlns="http://www.w3.org/2000/svg">
<path d="M30.4661 0C32.3745 0 34.0062 0.66943 35.3613 2.00829C36.7164 3.34715 37.394 4.95933 37.394 6.84482V29.6609C37.394 31.5464 36.7164 33.1586 35.3613 34.4974C34.0062 35.8363 32.3745 36.5057 30.4661 36.5057H25.9438V22.3645H30.7307L31.4524 16.8506H25.9438V13.3331C25.9438 12.4459 26.1322 11.7804 26.509 11.3367C26.8859 10.8931 27.6196 10.6713 28.7101 10.6713L31.6448 10.6475V5.72779C30.6345 5.58519 29.2072 5.51389 27.363 5.51389C25.182 5.51389 23.438 6.14767 22.131 7.41523C20.824 8.68279 20.1705 10.4732 20.1705 12.7865V16.8506H15.3595V22.3645H20.1705V36.5057H7.37319C5.46482 36.5057 3.83308 35.8363 2.47797 34.4974C1.12287 33.1586 0.445312 31.5464 0.445312 29.6609V6.84482C0.445312 4.95933 1.12287 3.34715 2.47797 2.00829C3.83308 0.66943 5.46482 0 7.37319 0H30.4661Z" fill="white"/>
</svg>
