<svg width="51" height="42" viewBox="0 0 51 42" fill="none" xmlns="http://www.w3.org/2000/svg">
<path fill-rule="evenodd" clip-rule="evenodd" d="M39.0871 19.0407C40.4625 19.0407 41.7068 19.5984 42.6067 20.4983C43.5066 21.3982 44.0643 22.6447 44.0643 24.0179C44.0643 25.3934 43.5066 26.6377 42.6067 27.5376C41.7046 28.4397 40.4603 28.9952 39.0871 28.9952C37.7116 28.9952 36.4673 28.4375 35.5674 27.5376C34.6653 26.6377 34.1098 25.3912 34.1098 24.0179C34.1098 22.6425 34.6675 21.3982 35.5674 20.4983C36.4673 19.5962 37.7116 19.0407 39.0871 19.0407ZM24.9863 14.1612V6.5929C24.9863 6.45291 24.933 6.31293 24.8263 6.20405L18.9844 0.36216C18.9667 0.344384 18.9489 0.328829 18.9289 0.313275C18.9045 0.293277 18.8756 0.275501 18.8467 0.26217C18.7711 0.222174 18.6845 0.199951 18.5912 0.199951H6.68098C6.37656 0.199951 6.13215 0.44659 6.13215 0.748782V14.1629H2.56586C1.94595 14.1629 1.38156 14.4163 0.974899 14.8229C0.568242 15.2296 0.314941 15.7939 0.314941 16.4139V31.621C0.314941 32.2409 0.568247 32.8031 0.974899 33.2119C1.38152 33.6186 1.94589 33.8741 2.56586 33.8741H13.038V37.8915H10.1784C9.93616 37.8915 9.7184 37.9893 9.56066 38.147C9.4029 38.3048 9.30513 38.5248 9.30513 38.7647V40.9267C9.30513 41.1689 9.40289 41.3867 9.56066 41.5444C9.71842 41.7022 9.9384 41.7999 10.1784 41.7999H20.9418C21.184 41.7999 21.4017 41.7022 21.5595 41.5444C21.7172 41.3867 21.815 41.1667 21.815 40.9267V38.7647C21.815 38.5225 21.7172 38.3048 21.5595 38.147C21.4017 37.9893 21.1817 37.8915 20.9418 37.8915H18.0821V33.8741H28.5543C29.1742 33.8741 29.7363 33.6208 30.1452 33.2119C30.4074 32.9498 30.6052 32.6231 30.7141 32.2609L31.6895 33.2341C31.8628 33.4075 32.1383 33.4474 32.3583 33.3163L35.5113 31.4188C35.6558 31.4877 35.8002 31.5543 35.9424 31.6143C36.0846 31.6721 36.2313 31.7276 36.3824 31.781L37.2601 35.3139C37.3045 35.5717 37.5312 35.7694 37.8 35.7694L40.3708 35.7672C40.6175 35.7672 40.8419 35.6006 40.9019 35.3495L41.7885 31.781C41.9418 31.7276 42.0884 31.6721 42.2307 31.6143C42.3729 31.5543 42.5173 31.4899 42.6617 31.421L45.777 33.2942C45.9925 33.4475 46.2925 33.4275 46.4836 33.2364L48.3012 31.4166C48.4745 31.2433 48.5145 30.9678 48.3834 30.7478L46.4858 27.5947C46.5547 27.4503 46.6214 27.3059 46.6791 27.1637C46.7369 27.0215 46.7924 26.8748 46.8458 26.7237L50.3787 25.846C50.6365 25.8016 50.8342 25.5749 50.8342 25.3061L50.832 22.7352C50.832 22.4886 50.6654 22.2642 50.4143 22.2042L46.8458 21.3176C46.7924 21.1643 46.7369 21.0176 46.6791 20.8754C46.6191 20.7332 46.5547 20.5888 46.4858 20.4444L48.359 17.3291C48.5123 17.1136 48.4923 16.8136 48.3012 16.6225L46.4814 14.8049C46.3081 14.6316 46.0326 14.5916 45.8126 14.7227L42.6595 16.6203C42.5151 16.5514 42.3707 16.4847 42.2285 16.4269C42.0863 16.3692 41.9396 16.3136 41.7885 16.2603L40.9086 12.7273C40.8642 12.4696 40.6375 12.2718 40.3686 12.2718L37.7978 12.2741C37.5512 12.2741 37.3268 12.4407 37.2668 12.6918L36.378 16.2603C36.2246 16.3136 36.078 16.3692 35.938 16.427C35.7958 16.4869 35.6514 16.5514 35.5069 16.6203L32.3917 14.7471C32.1761 14.5938 31.8762 14.6138 31.6851 14.8049L30.7119 15.7803C30.603 15.4159 30.4052 15.0915 30.143 14.8293C29.7364 14.4227 29.172 14.1693 28.5521 14.1693L24.9858 14.1627L24.9863 14.1612ZM30.8055 18.9807L31.6832 20.4406C31.6143 20.585 31.5476 20.7294 31.4899 20.8716C31.4321 21.0138 31.3743 21.1605 31.3232 21.3116L30.8077 21.4405L30.8055 18.9807ZM30.4277 22.6648C30.4033 22.6737 30.3788 22.6781 30.3522 22.6848L28.4346 23.1625V24.8779L30.3455 25.3534C30.3766 25.3579 30.4055 25.3667 30.4344 25.3756L31.8787 25.7356C32.0609 25.78 32.2142 25.9156 32.272 26.1067C32.3365 26.3155 32.412 26.5288 32.5031 26.7444C32.5898 26.9555 32.6831 27.1554 32.7831 27.3421C32.8808 27.5088 32.8853 27.7221 32.7809 27.8998L30.9499 30.944L32.1631 32.1572L35.2095 30.3262C35.3695 30.2307 35.5717 30.2196 35.7472 30.3129C35.9405 30.4151 36.1449 30.5129 36.3649 30.6018C36.5715 30.6862 36.7737 30.7617 36.9737 30.824C37.1648 30.8706 37.3248 31.0195 37.3759 31.2261L38.2336 34.6702H39.9489L40.8066 31.2261C40.8511 31.0439 40.9888 30.8906 41.1799 30.8328C41.3888 30.7684 41.6021 30.6929 41.8176 30.6018C42.0287 30.5151 42.2287 30.4218 42.4154 30.3218C42.582 30.224 42.7953 30.2196 42.9731 30.324L46.0172 32.155L47.2304 30.9418L45.3995 27.8976C45.3039 27.7376 45.2928 27.5354 45.3862 27.3599C45.4884 27.1666 45.5861 26.9621 45.6772 26.7422C45.7617 26.5355 45.8372 26.3333 45.8994 26.1334C45.9461 25.9423 46.0972 25.7823 46.3016 25.7312L49.7457 24.8735V23.1581L46.3016 22.3005C46.1194 22.256 45.9661 22.1182 45.9083 21.9272C45.8439 21.7183 45.7683 21.505 45.6772 21.2894C45.5906 21.0784 45.4972 20.8784 45.3973 20.6917C45.2995 20.5251 45.295 20.3118 45.3995 20.134L47.2304 17.0898L46.0172 15.8766L42.9731 17.7076C42.8131 17.8031 42.6109 17.8142 42.4354 17.7209C42.242 17.6187 42.0376 17.5209 41.8177 17.4321C41.611 17.3476 41.4088 17.2721 41.2088 17.2099C41.0177 17.1632 40.8578 17.0143 40.8067 16.8077L39.949 13.3636H38.2336L37.3759 16.8077C37.3315 16.9899 37.1937 17.1432 37.0026 17.201C36.7938 17.2654 36.5805 17.341 36.3649 17.4321C36.1538 17.5187 35.9538 17.6143 35.7672 17.712C35.6005 17.8098 35.3872 17.8143 35.2095 17.7098L32.1653 15.8789L30.9521 17.0921L32.7831 20.1362C32.8786 20.2962 32.8897 20.4984 32.7964 20.6739C32.6942 20.8673 32.5964 21.0717 32.5075 21.2894C32.4231 21.4961 32.3476 21.6983 32.2853 21.8982C32.2387 22.0893 32.0898 22.2493 31.8832 22.3004L30.4277 22.6648ZM29.7078 21.7138L27.7902 22.1915C27.5325 22.2359 27.3347 22.4626 27.3347 22.7315L27.3369 25.3023C27.3369 25.5489 27.5036 25.7733 27.7547 25.8333L29.7078 26.32V28.2931L1.41076 28.2953V16.4142C1.41076 16.0986 1.53964 15.8098 1.75073 15.6009C1.9596 15.392 2.24846 15.2609 2.56399 15.2609H6.13027V23.0955C6.13027 23.3999 6.37691 23.6443 6.6791 23.6443H24.4374C24.7418 23.6443 24.9863 23.3976 24.9863 23.0955V15.2609H28.5525C28.8681 15.2609 29.1569 15.3898 29.3658 15.6009C29.5747 15.8098 29.7058 16.0986 29.7058 16.4142L29.7078 21.7138ZM30.8055 26.5955L31.321 26.7244C31.3743 26.8777 31.4299 27.0243 31.4876 27.1665C31.5476 27.3087 31.6121 27.4532 31.6809 27.5976L30.8032 29.0575V28.8486L30.8055 26.5955ZM1.41059 29.393H29.7076V31.6217C29.7076 31.9372 29.5788 32.2261 29.3677 32.4349C29.1588 32.6438 28.8699 32.7749 28.5544 32.7749H2.56397C2.24845 32.7749 1.95959 32.646 1.75071 32.4349C1.54184 32.2261 1.41075 31.9372 1.41075 31.6217L1.41059 29.393ZM16.9846 33.8748V37.8921H14.136V33.8748H16.9846ZM11.3497 16.7746C11.0452 16.7746 10.8008 16.5279 10.8008 16.2257C10.8008 15.9213 11.0475 15.6769 11.3497 15.6769L19.7689 15.6747C20.0733 15.6747 20.3177 15.9213 20.3177 16.2235C20.3177 16.5279 20.0711 16.7723 19.7689 16.7723L11.3497 16.7746ZM11.3497 13.1061C11.0452 13.1061 10.8008 12.8594 10.8008 12.5572C10.8008 12.2528 11.0475 12.0084 11.3497 12.0084H19.7689C20.0733 12.0084 20.3177 12.255 20.3177 12.5572C20.3177 12.8617 20.0711 13.1061 19.7689 13.1061H11.3497ZM11.3497 9.442C11.0452 9.442 10.8008 9.19536 10.8008 8.89317C10.8008 8.58875 11.0475 8.34434 11.3497 8.34434L19.7689 8.34212C20.0733 8.34212 20.3177 8.58876 20.3177 8.89095C20.3177 9.19536 20.0711 9.43978 19.7689 9.43978L11.3497 9.442ZM11.3497 5.7735C11.0452 5.7735 10.8008 5.52686 10.8008 5.22467C10.8008 4.92025 11.0475 4.67584 11.3497 4.67584H19.7689C20.0733 4.67584 20.3177 4.92248 20.3177 5.22467C20.3177 5.52908 20.0711 5.7735 19.7689 5.7735H11.3497ZM11.3497 20.4385C11.0452 20.4385 10.8008 20.1919 10.8008 19.8897C10.8008 19.5853 11.0475 19.3409 11.3497 19.3409H19.7689C20.0733 19.3409 20.3177 19.5875 20.3177 19.8897C20.3177 20.1941 20.0711 20.4385 19.7689 20.4385H11.3497ZM20.7177 40.7031H10.4008V38.99H20.7177V40.7031ZM18.3646 1.29851L23.8885 6.82236V22.5477H7.22802V1.29902L18.3646 1.29851ZM41.8289 21.2741C41.1268 20.572 40.1558 20.1387 39.0848 20.1387C38.0138 20.1387 37.0428 20.572 36.3406 21.2741C35.6384 21.9763 35.2052 22.9473 35.2052 24.0183C35.2052 25.0893 35.6385 26.0603 36.3406 26.7624C37.0428 27.4646 38.0138 27.8979 39.0848 27.8979C40.1558 27.8979 41.1268 27.4646 41.8289 26.7624C42.5311 26.0603 42.9644 25.0893 42.9644 24.0183C42.9666 22.9473 42.5311 21.9763 41.8289 21.2741Z" fill="#292F36"/>
</svg>
