<svg width="38" height="37" viewBox="0 0 38 37" fill="none" xmlns="http://www.w3.org/2000/svg">
<path d="M18.9988 13.7262C18.0926 13.7262 17.2068 13.9916 16.4533 14.489C15.6999 14.9864 15.1126 15.6934 14.7659 16.5206C14.4191 17.3477 14.3284 18.2579 14.5052 19.136C14.6819 20.0141 15.1183 20.8207 15.759 21.4537C16.3998 22.0868 17.2162 22.5179 18.1049 22.6926C18.9937 22.8673 19.9149 22.7776 20.7521 22.435C21.5893 22.0924 22.3048 21.5122 22.8082 20.7678C23.3117 20.0234 23.5804 19.1482 23.5804 18.2529C23.5804 17.6584 23.4619 17.0698 23.2316 16.5206C23.0014 15.9714 22.6639 15.4723 22.2385 15.052C21.813 14.6317 21.3079 14.2982 20.7521 14.0707C20.1962 13.8432 19.6004 13.7262 18.9988 13.7262ZM37.3438 9.2542C37.3341 7.84464 37.0713 6.44795 36.5679 5.12905C36.197 4.16395 35.6233 3.28751 34.8845 2.55756C34.1457 1.82762 33.2586 1.26076 32.2818 0.89439C30.9469 0.396934 29.5333 0.137373 28.1066 0.12777C25.7234 -1.22395e-07 25.0214 0 18.9988 0C12.9761 0 12.2741 -1.22395e-07 9.89091 0.12777C8.46424 0.137373 7.05061 0.396934 5.7157 0.89439C4.73889 1.26076 3.85182 1.82762 3.11301 2.55756C2.37421 3.28751 1.80047 4.16395 1.42966 5.12905C0.926164 6.44795 0.663454 7.84464 0.653734 9.2542C0.524414 11.6088 0.524414 12.3024 0.524414 18.2529C0.524414 24.2033 0.524414 24.8969 0.653734 27.2515C0.67362 28.666 0.935975 30.067 1.42966 31.3949C1.79883 32.3556 2.37209 33.227 3.11082 33.9503C3.84646 34.6847 4.73544 35.2515 5.7157 35.6113C7.05061 36.1088 8.46424 36.3684 9.89091 36.378C12.2741 36.5057 12.9761 36.5057 18.9988 36.5057C25.0214 36.5057 25.7234 36.5057 28.1066 36.378C29.5333 36.3684 30.9469 36.1088 32.2818 35.6113C33.2621 35.2515 34.1511 34.6847 34.8867 33.9503C35.6254 33.227 36.1987 32.3556 36.5679 31.3949C37.0709 30.0696 37.3335 28.667 37.3438 27.2515C37.4731 24.8969 37.4731 24.2033 37.4731 18.2529C37.4731 12.3024 37.4731 11.6088 37.3438 9.2542ZM32.6513 23.8565C32.592 24.9829 32.3487 26.0924 31.9308 27.142C31.5721 28.0176 31.039 28.8129 30.363 29.4808C29.687 30.1487 28.8819 30.6755 27.9958 31.0299C26.9233 31.4197 25.7941 31.6355 24.6519 31.6687C23.1924 31.6687 22.8045 31.6687 18.9988 31.6687C15.193 31.6687 14.8051 31.6687 13.3456 31.6687C12.2034 31.6355 11.0742 31.4197 10.0018 31.0299C9.08561 30.6935 8.25828 30.1569 7.58161 29.4601C6.91222 28.8053 6.39527 28.0143 6.06672 27.142C5.67055 26.0836 5.45818 24.9666 5.43859 23.8382C5.43859 22.3963 5.43859 22.013 5.43859 18.2529C5.43859 14.4928 5.43859 14.1095 5.43859 12.6675C5.45818 11.5391 5.67055 10.4222 6.06672 9.36372C6.40716 8.45856 6.9503 7.64115 7.65551 6.97259C8.3212 6.3148 9.12101 5.80458 10.0018 5.47586C11.0742 5.08599 12.2034 4.87025 13.3456 4.83701C14.8051 4.83701 15.193 4.83701 18.9988 4.83701C22.8045 4.83701 23.1924 4.83701 24.6519 4.83701C25.7941 4.87025 26.9233 5.08599 27.9958 5.47586C28.9119 5.81222 29.7392 6.34885 30.4159 7.04561C31.0853 7.70042 31.6022 8.49147 31.9308 9.36372C32.3254 10.4233 32.5438 11.539 32.5774 12.6675C32.5774 14.1095 32.5774 14.4928 32.5774 18.2529C32.5774 22.013 32.7067 22.3963 32.6513 23.8382V23.8565ZM29.6954 10.2764C29.4754 9.68677 29.1286 9.15133 28.6789 8.70701C28.2292 8.26268 27.6873 7.92003 27.0905 7.70271C26.2711 7.42209 25.4081 7.28616 24.5411 7.30115C23.1001 7.30115 22.6936 7.30115 18.9988 7.30115C15.3039 7.30115 14.8975 7.30115 13.4565 7.30115C12.585 7.30956 11.7218 7.47023 10.907 7.77572C10.3194 7.98317 9.78319 8.31183 9.33406 8.73984C8.88493 9.16785 8.53315 9.6854 8.30211 10.2581C8.03382 11.071 7.90275 11.922 7.91415 12.777C7.91415 14.2007 7.91415 14.6023 7.91415 18.2529C7.91415 21.9034 7.91415 22.305 7.91415 23.7287C7.93247 24.5888 8.09477 25.4399 8.39448 26.2476C8.61444 26.8372 8.96125 27.3726 9.41097 27.817C9.86069 28.2613 10.4026 28.6039 10.9994 28.8213C11.7876 29.1077 12.6171 29.2679 13.4565 29.2958C14.8975 29.2958 15.3039 29.2958 18.9988 29.2958C22.6936 29.2958 23.1001 29.2958 24.5411 29.2958C25.4126 29.2874 26.2757 29.1268 27.0905 28.8213C27.6873 28.6039 28.2292 28.2613 28.6789 27.817C29.1286 27.3726 29.4754 26.8372 29.6954 26.2476C30.0046 25.4425 30.1672 24.5898 30.1757 23.7287C30.1757 22.305 30.1757 21.9034 30.1757 18.2529C30.1757 14.6023 30.1757 14.2007 30.1757 12.777C30.1763 11.9151 30.0133 11.0607 29.6954 10.2581V10.2764ZM18.9988 25.2255C18.0729 25.2255 17.1561 25.045 16.3009 24.6943C15.4457 24.3437 14.6689 23.8298 14.0151 23.1821C13.3612 22.5344 12.8432 21.7656 12.4905 20.9198C12.1379 20.0739 11.9576 19.1677 11.96 18.2529C11.96 16.873 12.3744 15.5242 13.1507 14.3772C13.927 13.2302 15.0302 12.3365 16.3208 11.8093C17.6115 11.2821 19.0314 11.1451 20.4008 11.4156C21.7703 11.6861 23.0277 12.352 24.014 13.329C25.0002 14.3059 25.6709 15.55 25.9411 16.9038C26.2113 18.2576 26.0689 19.6601 25.5319 20.9338C24.9949 22.2076 24.0875 23.2953 22.9245 24.0592C21.7616 24.8232 20.3953 25.2291 18.9988 25.2255ZM26.3885 12.6492C25.9801 12.6065 25.6022 12.416 25.3275 12.1144C25.0528 11.8127 24.9008 11.4213 24.9008 11.0156C24.9008 10.6099 25.0528 10.2185 25.3275 9.91683C25.6022 9.61521 25.9801 9.42468 26.3885 9.38197C26.7969 9.42468 27.1748 9.61521 27.4495 9.91683C27.7242 10.2185 27.8762 10.6099 27.8762 11.0156C27.8762 11.4213 27.7242 11.8127 27.4495 12.1144C27.1748 12.416 26.7969 12.6065 26.3885 12.6492Z" fill="white"/>
</svg>
