<svg width="19" height="19" viewBox="0 0 19 19" fill="none" xmlns="http://www.w3.org/2000/svg">
<path d="M4.82978 6.59473H1.35938V17.8036H4.82978V6.59473Z" stroke="#292F36" stroke-width="0.99723"/>
<path d="M3.07578 5.12855C4.21262 5.12855 5.13007 4.20118 5.13007 3.06433C5.13007 1.92749 4.21262 1 3.07578 1C1.93893 1 1.02148 1.92749 1.02148 3.06433C1.02148 4.20118 1.93893 5.12855 3.07578 5.12855Z" stroke="#292F36" stroke-width="0.99723"/>
<path d="M10.3779 11.9194C10.3779 10.3438 11.1058 9.40638 12.492 9.40638C13.7684 9.40638 14.3768 10.3039 14.3768 11.9194V17.803H17.8271V10.7027C17.8271 7.70104 16.1219 6.24512 13.7485 6.24512C11.3751 6.24512 10.3679 8.09995 10.3679 8.09995V6.59412H7.03711V17.803H10.3679V11.9194H10.3779Z" stroke="#292F36" stroke-width="0.99723"/>
</svg>
