<svg width="38" height="37" viewBox="0 0 38 37" fill="none" xmlns="http://www.w3.org/2000/svg">
<path d="M32.2764 0H5.40467C4.06839 0 2.78683 0.524472 1.84194 1.45804C0.897047 2.3916 0.366211 3.65779 0.366211 4.97805L0.366211 31.5277C0.366211 32.8479 0.897047 34.1141 1.84194 35.0477C2.78683 35.9813 4.06839 36.5057 5.40467 36.5057H32.2764C33.6127 36.5057 34.8943 35.9813 35.8392 35.0477C36.7841 34.1141 37.3149 32.8479 37.3149 31.5277V4.97805C37.3149 3.65779 36.7841 2.3916 35.8392 1.45804C34.8943 0.524472 33.6127 0 32.2764 0ZM12.9624 28.8893C12.9626 28.9905 12.9427 29.0908 12.9037 29.1844C12.8646 29.278 12.8073 29.3631 12.735 29.4348C12.6626 29.5065 12.5767 29.5633 12.482 29.6021C12.3874 29.6409 12.2859 29.6609 12.1835 29.6609H8.86441C8.76177 29.6612 8.6601 29.6414 8.56522 29.6027C8.47034 29.564 8.38414 29.5072 8.31157 29.4355C8.23899 29.3638 8.18148 29.2786 8.14233 29.1849C8.10318 29.0912 8.08317 28.9907 8.08345 28.8893V15.1416C8.08345 14.9369 8.16573 14.7407 8.31218 14.596C8.45864 14.4513 8.65728 14.37 8.86441 14.37H12.1835C12.3903 14.3705 12.5884 14.4521 12.7344 14.5967C12.8804 14.7414 12.9624 14.9373 12.9624 15.1416V28.8893ZM10.5229 13.0674C9.90008 13.0674 9.29125 12.8849 8.77339 12.543C8.25553 12.2012 7.85191 11.7153 7.61357 11.1467C7.37523 10.5782 7.31287 9.95266 7.43437 9.34913C7.55588 8.7456 7.85579 8.19122 8.2962 7.7561C8.7366 7.32098 9.2977 7.02466 9.90855 6.90461C10.5194 6.78456 11.1526 6.84617 11.728 7.08166C12.3034 7.31714 12.7952 7.71592 13.1412 8.22757C13.4872 8.73922 13.6719 9.34075 13.6719 9.95611C13.6719 10.7813 13.3402 11.5726 12.7496 12.1561C12.159 12.7396 11.3581 13.0674 10.5229 13.0674ZM30.3114 28.9432C30.3117 29.0365 30.2933 29.1288 30.2573 29.215C30.2214 29.3012 30.1685 29.3795 30.1018 29.4454C30.035 29.5114 29.9558 29.5636 29.8685 29.5992C29.7813 29.6347 29.6878 29.6529 29.5935 29.6526H26.0245C25.9302 29.6529 25.8367 29.6347 25.7495 29.5992C25.6622 29.5636 25.583 29.5114 25.5162 29.4454C25.4495 29.3795 25.3966 29.3012 25.3607 29.215C25.3247 29.1288 25.3063 29.0365 25.3066 28.9432V22.5029C25.3066 21.5405 25.5921 18.2881 22.76 18.2881C20.5662 18.2881 20.1191 20.5137 20.0309 21.5135V28.9515C20.0309 29.1379 19.9567 29.3168 19.8243 29.4495C19.6919 29.5822 19.512 29.6582 19.3234 29.6609H15.8763C15.7821 29.6609 15.6888 29.6425 15.6018 29.6069C15.5148 29.5712 15.4358 29.5189 15.3693 29.453C15.3028 29.3871 15.2501 29.3089 15.2143 29.2228C15.1784 29.1368 15.1601 29.0446 15.1604 28.9515V15.0814C15.1601 14.9884 15.1784 14.8962 15.2143 14.8101C15.2501 14.7241 15.3028 14.6459 15.3693 14.58C15.4358 14.5141 15.5148 14.4618 15.6018 14.4261C15.6888 14.3904 15.7821 14.3721 15.8763 14.3721H19.3234C19.5138 14.3721 19.6964 14.4468 19.8311 14.5798C19.9657 14.7129 20.0414 14.8933 20.0414 15.0814V16.2803C20.8559 15.0711 22.0631 14.1418 24.639 14.1418C30.345 14.1418 30.3072 19.4061 30.3072 22.2975L30.3114 28.9432Z" fill="white"/>
</svg>
