<svg width="40" height="42" viewBox="0 0 40 42" fill="none" xmlns="http://www.w3.org/2000/svg">
<path fill-rule="evenodd" clip-rule="evenodd" d="M19.5476 42C15.2642 42 12.7046 31.9056 12.7046 22.1358C12.7046 13.7438 14.4752 6.23263 17.1123 3.47466C17.26 3.32695 17.4311 3.27652 17.6058 3.30354C17.7805 3.33056 17.9517 3.45124 18.0255 3.59894C18.3209 4.18973 18.9117 4.53557 19.5512 4.53557C20.1924 4.53557 20.7832 4.18973 21.0768 3.59894C21.1507 3.45124 21.3218 3.32695 21.4965 3.30354C21.6713 3.28012 21.8424 3.32695 21.9901 3.47466C24.6235 6.2324 26.3978 13.7402 26.3978 22.1358C26.3978 31.9074 23.8382 42 19.5547 42H19.5476ZM17.4816 4.75196C15.2913 7.68083 13.8395 14.5005 13.8395 22.1321C13.8395 33.1847 16.8421 40.8906 19.5532 40.8906C22.2641 40.8906 25.267 33.1847 25.267 22.1321C25.267 14.5001 23.8152 7.68055 21.6249 4.75196C21.0845 5.31937 20.3424 5.66522 19.5588 5.66522C18.7753 5.66522 18.0331 5.31937 17.4927 4.75196H17.4816Z" fill="black"/>
<path fill-rule="evenodd" clip-rule="evenodd" d="M32.5978 33.7791C28.5576 33.7791 22.2318 31.5887 16.127 28.0653C7.68295 23.1677 0.198477 15.9051 2.33854 12.2124C2.78165 11.4235 3.88764 10.4886 6.49763 10.4886C10.5378 10.4886 16.8637 12.6789 22.9685 16.2254C30.2546 20.4115 35.8656 25.7019 36.9266 29.3729C36.9771 29.544 36.95 29.7422 36.8293 29.8665C36.7051 30.0142 36.5339 30.088 36.3628 30.088H36.2656C35.3289 30.088 34.5688 30.8481 34.5688 31.7848C34.5688 32.1306 34.666 32.4495 34.8408 32.7214C34.938 32.8691 34.965 33.0673 34.8912 33.2384C34.8173 33.4095 34.6931 33.5338 34.4985 33.5842C33.9581 33.7085 33.3187 33.7824 32.6036 33.7824L32.5978 33.7791ZM6.4974 11.6217C5.3392 11.6217 3.86398 11.8198 3.32 12.7565C1.96365 15.0945 7.10987 21.5681 16.687 27.0835C22.6456 30.5276 28.7264 32.6493 32.5902 32.6493C32.936 32.6493 33.2548 32.6493 33.5484 32.5988C33.4746 32.3539 33.4241 32.0585 33.4241 31.7865C33.4241 30.459 34.3608 29.3242 35.6145 29.0287C34.1843 25.6586 29.0163 21.0061 22.3932 17.1871C16.4346 13.7431 10.3538 11.6214 6.49001 11.6214L6.4974 11.6217Z" fill="black"/>
<path fill-rule="evenodd" clip-rule="evenodd" d="M6.49729 33.7791C5.78218 33.7791 5.14094 33.7053 4.60235 33.581C4.40421 33.5306 4.28353 33.4099 4.20968 33.2352C4.13583 33.0604 4.15924 32.8659 4.26012 32.7182C4.43123 32.4462 4.5321 32.1274 4.5321 31.7816C4.5321 30.8449 3.77199 30.0848 2.83531 30.0848H2.73805C2.56693 30.0848 2.3922 30.0109 2.27153 29.8632C2.14724 29.7389 2.12383 29.5444 2.17426 29.3697C3.23521 25.7041 8.84623 20.4101 16.1324 16.2222C22.2368 12.6755 28.5647 10.4854 32.6032 10.4854C35.2133 10.4854 36.3192 11.422 36.7623 12.2092C38.9022 15.9035 31.4235 23.1663 22.9757 28.0386C16.8714 31.5852 10.5434 33.7754 6.50489 33.7754L6.49729 33.7791ZM5.53903 32.5975C5.83443 32.6479 6.15145 32.6479 6.49729 32.6479C10.361 32.6479 16.4437 30.5315 22.4005 27.0822C31.978 21.5667 37.1241 15.093 35.7675 12.7551C35.2271 11.8185 33.7483 11.6204 32.5901 11.6204C28.7264 11.6204 22.6437 13.7368 16.6869 17.1861C10.0656 20.9994 4.896 25.6574 3.46559 29.0277C4.71929 29.3231 5.65592 30.4579 5.65592 31.7855C5.65592 32.0575 5.60549 32.3529 5.53164 32.5978L5.53903 32.5975Z" fill="black"/>
<path fill-rule="evenodd" clip-rule="evenodd" d="M19.5474 26.0733C17.3805 26.0733 15.6099 24.3027 15.6099 22.1357C15.6099 19.9688 17.3805 18.1982 19.5474 18.1982C21.7144 18.1982 23.485 19.9688 23.485 22.1357C23.485 24.3027 21.7144 26.0733 19.5474 26.0733ZM19.5474 19.3276C17.9983 19.3276 16.7393 20.5813 16.7393 22.1357C16.7393 23.6902 17.993 24.9438 19.5474 24.9438C21.1019 24.9438 22.3556 23.6901 22.3556 22.1357C22.3556 20.5812 21.1019 19.3276 19.5474 19.3276Z" fill="black"/>
<path fill-rule="evenodd" clip-rule="evenodd" d="M19.5474 5.66313C17.9983 5.66313 16.7158 4.38066 16.7158 2.83157C16.7158 1.28247 17.9983 0 19.5474 0C21.0965 0 22.3789 1.28247 22.3789 2.83157C22.3789 4.38066 21.0965 5.66313 19.5474 5.66313ZM19.5474 1.10775C18.6108 1.10775 17.8506 1.89669 17.8506 2.83157C17.8506 3.7682 18.6107 4.52836 19.5474 4.52836C20.4841 4.52836 21.2442 3.76824 21.2442 2.83157C21.2442 1.89489 20.4841 1.10775 19.5474 1.10775Z" fill="black"/>
<path fill-rule="evenodd" clip-rule="evenodd" d="M36.2632 34.6133C34.7141 34.6133 33.4316 33.3308 33.4316 31.7817C33.4316 30.2326 34.7141 28.9501 36.2632 28.9501C37.8123 28.9501 39.0948 30.2326 39.0948 31.7817C39.0948 33.3308 37.8123 34.6133 36.2632 34.6133ZM36.2632 30.0849C35.3266 30.0849 34.5664 30.845 34.5664 31.7817C34.5664 32.7184 35.3265 33.5055 36.2632 33.5055C37.1999 33.5055 37.987 32.7166 37.987 31.7817C37.987 30.8451 37.1981 30.0849 36.2632 30.0849Z" fill="black"/>
<path fill-rule="evenodd" clip-rule="evenodd" d="M2.83157 34.6133C1.28247 34.6133 0 33.3308 0 31.7817C0 30.2326 1.28247 28.9501 2.83157 28.9501C4.38066 28.9501 5.66313 30.2326 5.66313 31.7817C5.66313 33.3308 4.38066 34.6133 2.83157 34.6133ZM2.83157 30.0849C1.89493 30.0849 1.10775 30.845 1.10775 31.7817C1.10775 32.7184 1.89669 33.5055 2.83157 33.5055C3.7682 33.5055 4.52836 32.7166 4.52836 31.7817C4.52836 30.8451 3.76824 30.0849 2.83157 30.0849Z" fill="black"/>
</svg>
