<svg width="44" height="44" viewBox="0 0 44 44" fill="none" xmlns="http://www.w3.org/2000/svg">
<path d="M25.945 17.4483H18.4271C18.0098 17.4483 17.6685 17.7897 17.6685 18.2069V25.7931C17.6685 26.2104 18.0098 26.5518 18.4271 26.5518H25.945C26.3623 26.5518 26.7036 26.2104 26.7036 25.7931V18.2069C26.7036 17.7897 26.3698 17.4483 25.945 17.4483ZM25.1864 25.0345H19.1857V18.9655H25.1864V25.0345Z" fill="#292F36"/>
<path d="M40.9883 37.931C39.5848 37.931 38.4166 38.9021 38.0828 40.2069H28.2131V30.3448H29.7076C30.1248 30.3448 30.4662 30.0034 30.4662 29.5862V22.7586H34.32C34.6538 24.0634 35.8297 25.0345 37.2255 25.0345C38.8869 25.0345 40.2372 23.6766 40.2372 22C40.2372 20.3234 38.8869 18.9655 37.2255 18.9655C35.8221 18.9655 34.6538 19.9366 34.32 21.2414H30.4662V17.4483H40.9883C41.4055 17.4483 41.7469 17.1069 41.7469 16.6897V5.96276C43.0365 5.62138 44 4.44552 44 3.03448C44 1.35793 42.6497 0 40.9883 0C39.3269 0 37.9766 1.35793 37.9766 3.03448C37.9766 4.44552 38.94 5.62138 40.2297 5.96276V15.931H30.4662V14.4138C30.4662 13.9966 30.1248 13.6552 29.7076 13.6552H22.7586V9.75586C24.0559 9.41448 25.0117 8.23862 25.0117 6.82759C25.0117 5.15103 23.6614 3.7931 22 3.7931C20.3386 3.7931 18.9883 5.15103 18.9883 6.82759C18.9883 8.23862 19.9517 9.41448 21.2414 9.75586V13.6552H17.3041V3.03448C17.3041 2.61724 16.9628 2.27586 16.5455 2.27586H5.92483C5.59103 0.971034 4.41517 0 3.01931 0C1.35034 0 0 1.35793 0 3.03448C0 4.71103 1.35034 6.06897 3.01172 6.06897C4.41517 6.06897 5.58345 5.09793 5.91724 3.7931H15.7869V13.6552H14.6641C14.2469 13.6552 13.9055 13.9966 13.9055 14.4138V21.2414H10.0517C9.71793 19.9366 8.54207 18.9655 7.14621 18.9655C5.48483 18.9655 4.13448 20.3234 4.13448 22C4.13448 23.6766 5.48483 25.0345 7.14621 25.0345C8.54965 25.0345 9.71793 24.0634 10.0517 22.7586H13.9055V26.5517H3.08C2.66276 26.5517 2.32138 26.8931 2.32138 27.3103V38.0372C0.986207 38.371 0 39.5545 0 40.9655C0 42.6421 1.38069 44 3.08 44C4.77931 44 6.16 42.6421 6.16 40.9655C6.16 39.5545 5.17379 38.371 3.83862 38.0372V28.069H13.9131V29.5862C13.9131 30.0034 14.2545 30.3448 14.6717 30.3448H21.2414V34.2441C19.9441 34.5855 18.9883 35.7614 18.9883 37.1724C18.9883 38.849 20.3386 40.2069 22 40.2069C23.6614 40.2069 25.0117 38.849 25.0117 37.1724C25.0117 35.7614 24.0483 34.5855 22.7586 34.2441V30.3448H26.6959V40.9655C26.6959 41.3828 27.0372 41.7241 27.4545 41.7241H38.0828C38.4166 43.029 39.5924 44 40.9883 44C42.6497 44 44 42.6421 44 40.9655C44 39.289 42.6497 37.931 40.9883 37.931ZM37.2255 20.4828C38.0524 20.4828 38.72 21.1655 38.72 22C38.72 22.8345 38.0448 23.5172 37.2255 23.5172C36.4062 23.5172 35.731 22.8345 35.731 22C35.731 21.1655 36.3986 20.4828 37.2255 20.4828ZM39.4862 3.03448C39.4862 2.2 40.1614 1.51724 40.9807 1.51724C41.8 1.51724 42.4828 2.2 42.4828 3.03448C42.4828 3.86897 41.8076 4.55172 40.9883 4.55172C40.169 4.55172 39.4862 3.86897 39.4862 3.03448ZM3.01172 4.55172C2.19241 4.55172 1.51724 3.86897 1.51724 3.03448C1.51724 2.2 2.19241 1.51724 3.01172 1.51724C3.83103 1.51724 4.50621 2.2 4.50621 3.03448C4.50621 3.86897 3.83862 4.55172 3.01172 4.55172ZM7.14621 23.5172C6.31931 23.5172 5.65172 22.8345 5.65172 22C5.65172 21.1655 6.3269 20.4828 7.14621 20.4828C7.96552 20.4828 8.64069 21.1655 8.64069 22C8.64069 22.8345 7.9731 23.5172 7.14621 23.5172ZM4.63517 40.9655C4.63517 41.8 3.93724 42.4828 3.07241 42.4828C2.20759 42.4828 1.51724 41.8 1.51724 40.9655C1.51724 40.131 2.21517 39.4483 3.08 39.4483C3.94483 39.4483 4.63517 40.131 4.63517 40.9655ZM20.5055 6.82759C20.5055 5.9931 21.1807 5.31034 22 5.31034C22.8193 5.31034 23.4945 5.9931 23.4945 6.82759C23.4945 7.66207 22.8193 8.34483 22 8.34483C21.1807 8.34483 20.5055 7.66207 20.5055 6.82759ZM23.4945 37.1724C23.4945 38.0069 22.8193 38.6897 22 38.6897C21.1807 38.6897 20.5055 38.0069 20.5055 37.1724C20.5055 36.3379 21.1807 35.6552 22 35.6552C22.8193 35.6552 23.4945 36.3379 23.4945 37.1724ZM15.4303 28.8276V15.1724H28.949V28.8276H15.4303ZM40.9883 42.4828C40.1614 42.4828 39.4938 41.8 39.4938 40.9655C39.4938 40.131 40.169 39.4483 40.9883 39.4483C41.8076 39.4483 42.4828 40.131 42.4828 40.9655C42.4828 41.8 41.8076 42.4828 40.9883 42.4828Z" fill="#292F36"/>
</svg>
