<svg width="48" height="48" viewBox="0 0 48 48" fill="none" xmlns="http://www.w3.org/2000/svg">
<path d="M30.1323 19.495C30.1323 19.7836 30.0177 20.0604 29.8136 20.2644C29.6095 20.4685 29.3327 20.5832 29.0441 20.5832C28.7555 20.5832 28.4787 20.4685 28.2747 20.2644C28.0706 20.0604 27.9559 19.7836 27.9559 19.495V7.19847H2.19856V26.3941H14.8977C15.1899 26.3941 15.4702 26.5102 15.6768 26.7168C15.8834 26.9234 15.9995 27.2037 15.9995 27.4959C15.9995 27.7881 15.8834 28.0683 15.6768 28.275C15.4702 28.4816 15.1899 28.5977 14.8977 28.5977H1.09405C0.805441 28.5977 0.528657 28.483 0.324582 28.2789C0.120507 28.0749 0.00585938 27.7981 0.00585938 27.5095V6.11028C0.00585938 5.82168 0.120507 5.54489 0.324582 5.34082C0.528657 5.13674 0.805441 5.02209 1.09405 5.02209H29.0441C29.3327 5.02209 29.6095 5.13674 29.8136 5.34082C30.0177 5.54489 30.1323 5.82168 30.1323 6.11028V19.495Z" fill="#292F36"/>
<path d="M30.1319 6.11035V11.6003C30.133 12.428 29.9695 13.2478 29.651 14.0119C29.3325 14.7759 28.8653 15.469 28.2765 16.0509C27.0926 17.2327 25.4878 17.8962 23.815 17.8954H6.3006C4.63184 17.8911 3.03258 17.2267 1.85208 16.0472C0.671573 14.8677 0.00574386 13.269 0 11.6003V6.11035H2.17637V11.6003C2.1747 12.1387 2.2796 12.6722 2.48504 13.1699C2.69048 13.6676 2.99239 14.1198 3.37338 14.5003C4.14563 15.2696 5.18884 15.7052 6.27884 15.7136H23.8204C24.3607 15.7124 24.8954 15.6046 25.394 15.3964C25.8926 15.1882 26.3452 14.8836 26.7259 14.5003C27.1152 14.1243 27.4248 13.6738 27.6361 13.1755C27.8473 12.6772 27.956 12.1415 27.9555 11.6003V6.11035H30.1319Z" fill="#292F36"/>
<path d="M20.0556 7.19844H9.60355V2.69879C9.60177 2.34485 9.67064 1.99411 9.80611 1.66712C9.94157 1.34012 10.1409 1.04345 10.3925 0.79446C10.6421 0.540352 10.9403 0.33907 11.2693 0.202598C11.5984 0.0661265 11.9515 -0.00274526 12.3077 8.37471e-05H18.4505C18.8024 -0.000948895 19.1509 0.0688503 19.4753 0.205324C19.7996 0.341798 20.0932 0.542154 20.3385 0.79446C20.5901 1.04373 20.7898 1.34034 20.9261 1.66719C21.0625 1.99403 21.1327 2.34464 21.1329 2.69879V3.73801H18.9565V2.69879C18.955 2.63231 18.9403 2.5668 18.9132 2.50608C18.8861 2.44536 18.8472 2.39064 18.7987 2.34513C18.7514 2.29871 18.6952 2.26226 18.6335 2.23796C18.5718 2.21366 18.5059 2.202 18.4396 2.20366H12.3077C12.1691 2.20127 12.0348 2.25187 11.9323 2.34513C11.8867 2.39172 11.8512 2.44712 11.8278 2.50793C11.8044 2.56874 11.7937 2.63368 11.7962 2.69879V5.01118H20.0556V7.19844Z" fill="#292F36"/>
<path d="M9.05322 14.6744C9.05322 14.3858 9.16787 14.109 9.37195 13.9049C9.57602 13.7008 9.8528 13.5862 10.1414 13.5862C10.43 13.5862 10.7068 13.7008 10.9109 13.9049C11.1149 14.109 11.2296 14.3858 11.2296 14.6744V19.1033C11.2296 19.3919 11.1149 19.6687 10.9109 19.8728C10.7068 20.0768 10.43 20.1915 10.1414 20.1915C9.8528 20.1915 9.57602 20.0768 9.37195 19.8728C9.16787 19.6687 9.05322 19.3919 9.05322 19.1033V14.6744Z" fill="#292F36"/>
<path d="M19.1025 14.6744C19.1025 14.3858 19.2172 14.109 19.4213 13.9049C19.6253 13.7008 19.9021 13.5862 20.1907 13.5862C20.4793 13.5862 20.7561 13.7008 20.9602 13.9049C21.1643 14.109 21.2789 14.3858 21.2789 14.6744V19.1033C21.2789 19.3919 21.1643 19.6687 20.9602 19.8728C20.7561 20.0768 20.4793 20.1915 20.1907 20.1915C19.9021 20.1915 19.6253 20.0768 19.4213 19.8728C19.2172 19.6687 19.1025 19.3919 19.1025 19.1033V14.6744Z" fill="#292F36"/>
<path d="M9.19514 29.1419L26.0892 20.6595C26.2395 20.5776 26.4078 20.5347 26.5789 20.5347C26.75 20.5347 26.9184 20.5776 27.0686 20.6595L43.9355 29.1419C44.1928 29.2714 44.3882 29.4976 44.479 29.7709C44.5697 30.0443 44.5484 30.3424 44.4198 30.6001C44.3189 30.8111 44.1477 30.9804 43.9355 31.0789L27.0686 39.5613C26.9184 39.6432 26.75 39.6861 26.5789 39.6861C26.4078 39.6861 26.2395 39.6432 26.0892 39.5613L9.19514 31.0734C8.93885 30.943 8.74462 30.7164 8.6549 30.4431C8.56518 30.1699 8.58727 29.8723 8.71634 29.6153C8.81695 29.4059 8.98581 29.2371 9.19514 29.1365V29.1419ZM26.5735 22.8468L12.1224 30.1158L26.5735 37.374L41.0137 30.1158L26.5735 22.8468Z" fill="#292F36"/>
<path d="M38.2061 32.1614C38.2061 31.8728 38.3208 31.596 38.5248 31.392C38.7289 31.1879 39.0057 31.0732 39.2943 31.0732C39.5829 31.0732 39.8597 31.1879 40.0638 31.392C40.2678 31.596 40.3825 31.8728 40.3825 32.1614V41.1607L39.9363 41.4872C36.6718 43.8431 31.5791 45.3938 26.2741 45.3938C21.7038 45.3938 16.9593 44.2457 13.069 41.5035L12.6011 41.1771V35.6219C12.6011 35.3333 12.7157 35.0565 12.9198 34.8524C13.1239 34.6483 13.4007 34.5337 13.6893 34.5337C13.8322 34.5337 13.9737 34.5618 14.1057 34.6165C14.2377 34.6712 14.3577 34.7514 14.4587 34.8524C14.5598 34.9534 14.6399 35.0734 14.6946 35.2054C14.7493 35.3375 14.7774 35.479 14.7774 35.6219V40.029C18.1726 42.2598 22.2751 43.1902 26.2578 43.1902C30.8663 43.1902 35.268 41.9497 38.1735 40.0453L38.2061 32.1614Z" fill="#292F36"/>
<path d="M44.4306 41.1282L47.0912 46.4168C47.1544 46.5453 47.1915 46.6851 47.2005 46.828C47.2095 46.971 47.1902 47.1143 47.1437 47.2498C47.0972 47.3853 47.0244 47.5102 46.9295 47.6175C46.8346 47.7248 46.7194 47.8123 46.5906 47.8749C46.4428 47.9529 46.2789 47.9957 46.1118 48.0001H40.8069C40.5183 48.0001 40.2415 47.8854 40.0375 47.6814C39.8334 47.4773 39.7188 47.2005 39.7188 46.9119C39.7258 46.721 39.778 46.5346 39.8711 46.3678L42.4882 41.1717C42.6186 40.9154 42.8452 40.7212 43.1185 40.6315C43.3917 40.5417 43.6894 40.5638 43.9464 40.6929C44.1572 40.7932 44.3279 40.962 44.4306 41.1717V41.1282ZM44.3381 45.8128L43.4676 44.0608L42.5807 45.8128H44.3381Z" fill="#292F36"/>
<path d="M44.556 30.1156H42.3633V41.6232H44.556V30.1156Z" fill="#292F36"/>
</svg>
