<svg width="42" height="42" viewBox="0 0 42 42" fill="none" xmlns="http://www.w3.org/2000/svg">
<mask id="mask0_497_198" style="mask-type:alpha" maskUnits="userSpaceOnUse" x="0" y="0" width="42" height="42">
<rect width="42" height="42" fill="#D9D9D9"/>
</mask>
<g mask="url(#mask0_497_198)">
<path d="M8.07712 35C7.27154 35 6.59896 34.7302 6.05938 34.1906C5.51979 33.651 5.25 32.9785 5.25 32.1729V15.0771C5.25 14.2715 5.51979 13.599 6.05938 13.0594C6.59896 12.5198 7.27154 12.25 8.07712 12.25H15.75V9.82669C15.75 9.0214 16.0198 8.34896 16.5594 7.80938C17.099 7.26979 17.7715 7 18.5771 7H23.4229C24.2285 7 24.901 7.26979 25.4406 7.80938C25.9802 8.34896 26.25 9.0214 26.25 9.82669V12.25H33.9229C34.7285 12.25 35.401 12.5198 35.9406 13.0594C36.4802 13.599 36.75 14.2715 36.75 15.0771V32.1729C36.75 32.9785 36.4802 33.651 35.9406 34.1906C35.401 34.7302 34.7285 35 33.9229 35H8.07712ZM17.5 12.25H24.5V9.82669C24.5 9.55748 24.3879 9.31073 24.1636 9.08644C23.9393 8.86215 23.6924 8.75 23.4229 8.75H18.5771C18.3076 8.75 18.0607 8.86215 17.8364 9.08644C17.6121 9.31073 17.5 9.55748 17.5 9.82669V12.25ZM35 25.375H24.5V28H17.5V25.375H7V32.1729C7 32.4424 7.11215 32.6893 7.33644 32.9136C7.56073 33.1379 7.80762 33.25 8.07712 33.25H33.9229C34.1924 33.25 34.4393 33.1379 34.6636 32.9136C34.8879 32.6893 35 32.4424 35 32.1729V25.375ZM19.25 26.25H22.75V22.75H19.25V26.25ZM7 23.625H17.5V21H24.5V23.625H35V15.0771C35 14.8076 34.8879 14.5607 34.6636 14.3364C34.4393 14.1121 34.1924 14 33.9229 14H8.07712C7.80762 14 7.56073 14.1121 7.33644 14.3364C7.11215 14.5607 7 14.8076 7 15.0771V23.625Z" fill="#1C1B1F"/>
</g>
</svg>
