<svg width="42" height="42" viewBox="0 0 42 42" fill="none" xmlns="http://www.w3.org/2000/svg">
<path d="M0.203246 14.7222V12.3096C0.203246 11.8219 0.532575 11.3962 1.00199 11.2743L2.08458 10.9904L2.35205 9.98789L1.55512 9.20005C1.20942 8.85798 1.13664 8.32306 1.38227 7.90273L2.59045 5.81393C2.83426 5.39362 3.33096 5.188 3.80043 5.31721L4.8794 5.61196L5.61265 4.87871L5.31789 3.79975C5.1887 3.33033 5.39431 2.83361 5.81461 2.58976L7.90341 1.38159C8.32553 1.13778 8.85865 1.20874 9.20073 1.55626L9.98857 2.35319L10.9911 2.08572L11.2749 1.00313C11.3987 0.531884 11.8244 0.204386 12.3103 0.204386H14.7229C15.2106 0.204386 15.6363 0.533715 15.7582 1.00499L16.0421 2.08758L17.0446 2.35505L17.8325 1.55813C18.1745 1.21242 18.7094 1.13964 19.1298 1.38528L21.2186 2.59345C21.6389 2.83726 21.8445 3.33397 21.7153 3.80344L21.4187 4.8824L22.4231 5.88674C22.6796 6.14329 22.6796 6.55995 22.4231 6.81651C22.1665 7.07306 21.7498 7.07306 21.4933 6.81651L20.2196 5.54285C20.0522 5.37545 19.9886 5.13164 20.0504 4.9042L20.3961 3.6378L18.6349 2.61888L17.7105 3.5541C17.545 3.72149 17.3012 3.78882 17.0737 3.72695L15.3343 3.26116C15.1068 3.1993 14.9285 3.02098 14.8685 2.79173L14.5355 1.5217H12.4995L12.1665 2.79173C12.1065 3.02099 11.9282 3.1993 11.7007 3.26116L9.96126 3.72695C9.73383 3.78881 9.49002 3.72149 9.32443 3.5541L8.40011 2.61888L6.63886 3.6378L6.98457 4.9042C7.04643 5.13163 6.98275 5.37544 6.81535 5.54285L5.54169 6.81651C5.37429 6.9839 5.13049 7.04758 4.90304 6.98572L3.63665 6.64001L2.61773 8.40127L3.55294 9.32559C3.72034 9.49116 3.78766 9.73498 3.7258 9.96242L3.26 11.7019C3.19814 11.9293 3.01983 12.1076 2.79058 12.1677L1.52055 12.5006V14.5367L2.79058 14.8696C3.01984 14.9297 3.19815 15.108 3.26 15.3354L3.7258 17.0749C3.78766 17.3023 3.72034 17.5461 3.55294 17.7117L2.61773 18.636L3.63665 20.3973L4.90304 20.0516C5.13048 19.9897 5.37429 20.0534 5.54169 20.2208L6.81535 21.4944C7.0719 21.751 7.0719 22.1677 6.81535 22.4242C6.68617 22.5534 6.51877 22.6171 6.35138 22.6171C6.18399 22.6171 6.01477 22.5534 5.88741 22.4242L4.88489 21.4199L3.80593 21.7164C3.3365 21.8456 2.83978 21.64 2.59594 21.2197L1.38776 19.1309C1.14395 18.7088 1.21491 18.1757 1.56062 17.8336L2.35754 17.0458L2.09007 16.0432L1.00748 15.7594C0.536236 15.6357 0.208737 15.2099 0.208737 14.7241L0.203246 14.7222ZM13.5165 8.3339C16.375 8.3339 18.6985 10.6592 18.6985 13.5158C18.6985 13.8797 18.9932 14.1727 19.3553 14.1727C19.7192 14.1727 20.0122 13.8779 20.0122 13.5158C20.0122 9.93324 17.0973 7.0185 13.5148 7.0185C9.93225 7.0185 7.01751 9.93334 7.01751 13.5158C7.01751 17.0983 9.93234 20.0132 13.5148 20.0132C13.8787 20.0132 14.1717 19.7184 14.1717 19.3563C14.1717 18.9924 13.8769 18.6995 13.5148 18.6995C10.6564 18.6995 8.33291 16.3741 8.33291 13.5175C8.33291 10.6591 10.6582 8.33558 13.5148 8.33558L13.5165 8.3339ZM41.3984 6.96927C41.3311 6.74729 41.1528 6.57808 40.929 6.52167C40.7052 6.46527 40.4668 6.53077 40.303 6.69452L34.8826 12.1149L30.9452 11.0596L29.8899 7.12226L35.3103 1.70183C35.4741 1.53808 35.5396 1.30155 35.4832 1.0759C35.4268 0.852102 35.2558 0.673793 35.0356 0.606476C31.6695 -0.406995 28.0361 0.506405 25.5544 2.99003C23.24 5.30446 22.2811 8.66524 23.0052 11.8438L11.8425 23.0065C8.66387 22.2824 5.30328 23.2412 2.98875 25.5557C0.505149 28.0375 -0.406453 31.671 0.605201 35.0369C0.672522 35.2588 0.850832 35.4281 1.07463 35.4845C1.29843 35.5409 1.53678 35.4754 1.70056 35.3116L7.12098 29.8912L11.0584 30.9465L12.1137 34.8839L6.69325 40.3043C6.52949 40.4681 6.46399 40.7046 6.5204 40.9302C6.5768 41.154 6.74783 41.3323 6.96799 41.3997C7.85225 41.6653 8.77294 41.7999 9.69544 41.7999C10.4596 41.7999 11.2238 41.709 11.9753 41.5252C13.6747 41.1122 15.2213 40.2443 16.4494 39.0161C17.1336 38.332 17.7049 37.5623 18.1488 36.7235C18.318 36.4033 18.1961 36.0048 17.8759 35.8338C17.5557 35.6646 17.1572 35.7865 16.9861 36.1067C16.604 36.8291 16.1091 37.495 15.5196 38.0845C13.6838 39.9204 11.0145 40.7683 8.46708 40.388L13.3104 35.5447C13.476 35.3791 13.5415 35.1353 13.4796 34.9097L12.2278 30.2392C12.1659 30.0117 11.9894 29.8352 11.7638 29.7752L7.09332 28.5234C6.86588 28.4633 6.62389 28.527 6.4583 28.6926L1.61127 33.5396C1.21462 30.9741 2.05158 28.3502 3.91838 26.4838C5.99079 24.4114 9.03837 23.5999 11.8713 24.3659C12.0988 24.4278 12.3426 24.3623 12.5082 24.1967L24.1949 12.51C24.3623 12.3426 24.426 12.1006 24.3641 11.8731C23.5963 9.04018 24.4078 5.9925 26.482 3.92019C28.3488 2.05339 30.9725 1.21459 33.5378 1.61307L28.6908 6.46011C28.5252 6.62568 28.4597 6.8695 28.5216 7.09512L29.7734 11.7656C29.8353 11.9931 30.0118 12.1696 30.2374 12.2296L34.9079 13.4814C35.1353 13.5415 35.3773 13.4778 35.5429 13.3122L40.3862 8.46889C40.7665 11.0162 39.9168 13.6853 38.0827 15.5214C37.6151 15.9891 37.0984 16.3966 36.547 16.7351C36.2377 16.9243 36.1413 17.33 36.3305 17.6394C36.5197 17.9487 36.9255 18.0451 37.2348 17.8559C37.8753 17.4629 38.472 16.9898 39.0125 16.4512C40.2406 15.2231 41.1067 13.6765 41.5215 11.9771C41.9255 10.3177 41.8818 8.58554 41.396 6.96794L41.3984 6.96927ZM41.4693 27.881V30.0626C41.4693 30.532 41.1528 30.9414 40.6997 31.0597L39.7554 31.3071L39.5316 32.1423L40.2267 32.8301C40.5596 33.1594 40.6288 33.6743 40.3941 34.0801L39.3023 35.9687C39.0676 36.3745 38.5891 36.571 38.136 36.4472L37.1954 36.1889L36.584 36.8002L36.8424 37.7409C36.9661 38.1921 36.7696 38.6725 36.3639 38.9072L34.4752 39.9989C34.0695 40.2336 33.5546 40.1645 33.2252 39.8315L32.5375 39.1365L31.7023 39.3603L31.4548 40.3046C31.3366 40.7576 30.9254 41.0742 30.4578 41.0742H28.2762C27.8067 41.0742 27.3974 40.7576 27.2791 40.3046L27.0316 39.3621L26.1965 39.1383L25.5087 39.8333C25.1794 40.1663 24.6644 40.2354 24.2587 40.0007L22.37 38.909C21.9643 38.6743 21.7678 38.1958 21.8915 37.7445L22.1499 36.8039L21.5386 36.1925L20.5979 36.4509C20.1466 36.5746 19.6681 36.3781 19.4316 35.9724L18.3399 34.0837C18.1051 33.678 18.1743 33.163 18.5073 32.8337L19.2023 32.1459L18.9785 31.3108L18.036 31.0633C17.583 30.945 17.2664 30.5338 17.2664 30.0662V27.8847C17.2664 27.4152 17.583 27.0058 18.036 26.8876L18.9785 26.6401L19.2023 25.805L18.5073 25.1172C18.1743 24.7878 18.1052 24.2729 18.3399 23.8672L19.4316 21.9785C19.6663 21.5728 20.1448 21.3763 20.5961 21.5L21.5367 21.7584L22.1481 21.147L21.8897 20.2064C21.766 19.7551 21.9625 19.2766 22.3682 19.0401L24.2569 17.9483C24.6626 17.7136 25.1776 17.7828 25.5069 18.1157L26.1947 18.8108L27.0298 18.587L27.2773 17.6445C27.3955 17.1915 27.8067 16.8749 28.2744 16.8749H30.4559C30.9254 16.8749 31.3348 17.1915 31.453 17.6445L31.7005 18.587L32.5356 18.8108L33.2234 18.1157C33.5528 17.7828 34.0677 17.7136 34.4734 17.9483L36.3621 19.0401C36.7678 19.2748 36.9643 19.7533 36.8406 20.2045L36.5822 21.1452L37.1936 21.7566L38.1342 21.4982C38.5855 21.3745 39.0658 21.571 39.3005 21.9767L40.3923 23.8654C40.627 24.2711 40.5578 24.786 40.2249 25.1154L39.5298 25.8031L39.7536 26.6383L40.6979 26.8858C41.151 27.004 41.4675 27.4152 41.4675 27.8828L41.4693 27.881ZM40.1539 28.0994L39.053 27.8101C38.8238 27.75 38.6455 27.5717 38.5836 27.3443L38.1615 25.7704C38.0996 25.543 38.167 25.2992 38.3343 25.1336L39.1459 24.3311L38.2725 22.821L37.1735 23.1212C36.9461 23.183 36.7023 23.1194 36.5349 22.952L35.3831 21.8002C35.2157 21.6328 35.152 21.389 35.2139 21.1615L35.5141 20.0626L34.0039 19.1892L33.2015 19.9989C33.0359 20.1663 32.7921 20.2336 32.5646 20.1717L30.9908 19.7496C30.7633 19.6877 30.585 19.5094 30.525 19.2802L30.2357 18.1794H28.4908L28.2015 19.2802C28.1414 19.5094 27.9631 19.6878 27.7357 19.7496L26.1618 20.1717C25.9344 20.2336 25.6906 20.1663 25.525 19.9989L24.7226 19.1892L23.2124 20.0626L23.5126 21.1615C23.5745 21.389 23.5108 21.6328 23.3434 21.8002L22.1916 22.952C22.0242 23.1194 21.7804 23.183 21.553 23.1212L20.454 22.821L19.5806 24.3311L20.3921 25.1336C20.5595 25.2991 20.6268 25.543 20.565 25.7704L20.1429 27.3443C20.081 27.5717 19.9027 27.75 19.6734 27.8101L18.5726 28.0994V29.8443L19.6734 30.1336C19.9027 30.1936 20.081 30.3719 20.1429 30.5993L20.565 32.1732C20.6268 32.4007 20.5595 32.6445 20.3921 32.81L19.5806 33.6125L20.454 35.1227L21.553 34.8224C21.7804 34.7606 22.0242 34.8243 22.1916 34.9917L23.3434 36.1434C23.5108 36.3108 23.5745 36.5546 23.5126 36.7821L23.2124 37.8811L24.7226 38.7544L25.525 37.9429C25.6906 37.7755 25.9344 37.7082 26.1618 37.7701L27.7357 38.1922C27.9631 38.254 28.1414 38.4324 28.2015 38.6616L28.4908 39.7624H30.2357L30.525 38.6616C30.585 38.4324 30.7633 38.254 30.9908 38.1922L32.5646 37.7701C32.7921 37.7082 33.0359 37.7755 33.2015 37.9429L34.0039 38.7544L35.5141 37.8811L35.2139 36.7821C35.152 36.5546 35.2157 36.3108 35.3831 36.1434L36.5349 34.9917C36.7023 34.8243 36.9461 34.7606 37.1735 34.8224L38.2725 35.1227L39.1459 33.6125L38.3343 32.81C38.167 32.6445 38.0996 32.4007 38.1615 32.1732L38.5836 30.5993C38.6455 30.3719 38.8238 30.1936 39.053 30.1336L40.1539 29.8443V28.0994ZM35.8635 28.9709C35.8635 32.5535 32.9487 35.4682 29.3661 35.4682C25.7836 35.4682 22.8688 32.5534 22.8688 28.9709C22.8688 25.3883 25.7836 22.4736 29.3661 22.4736C32.9487 22.4736 35.8635 25.3884 35.8635 28.9709ZM34.548 28.9709C34.548 26.1125 32.2227 23.789 29.3661 23.789C26.5076 23.789 24.1841 26.1143 24.1841 28.9709C24.1841 31.8293 26.5094 34.1528 29.3661 34.1528C32.2245 34.1528 34.548 31.8275 34.548 28.9709Z" fill="#292F36"/>
</svg>
