<svg width="241" height="571" viewBox="0 0 241 571" fill="none" xmlns="http://www.w3.org/2000/svg">
<g opacity="0.4">
<path d="M204.173 556.907C231.288 555.021 252.684 533.885 264.421 497.39C268.227 485.509 271.479 472.331 274.923 458.381C278.34 444.529 281.875 430.206 286.267 415.87C294.789 388.055 307.05 359.38 327.263 319.989C344.398 286.555 360.194 254.014 365.232 223.47C370.172 193.208 365.83 162.566 352.325 132.388C326.737 75.41 282.129 31.8704 235.909 18.7566C227.797 16.4691 219.877 15.5767 212.368 16.0989C180.729 18.2991 157.639 45.6362 139.225 72.086C136.23 76.3958 133.17 80.8269 130.034 85.3712C117.533 103.475 103.365 123.997 87.4719 145.167C83.7075 150.181 79.7903 155.303 76.0009 160.257C58.304 183.396 40.0056 207.32 25.7707 235.063C8.99592 267.78 2.88551 304.081 8.56569 337.277C13.8633 367.997 28.2552 401.529 51.3436 436.941C93.0243 500.76 138.849 542.398 180.381 554.181C188.675 556.512 196.68 557.428 204.173 556.907ZM212.353 15.4032C219.895 14.8787 227.85 15.776 235.995 18.0702C282.327 31.2181 327.044 74.8671 352.696 131.989C366.278 162.335 370.642 193.168 365.667 223.632C360.608 254.309 344.78 286.921 327.614 320.416C307.424 359.764 295.18 388.397 286.674 416.161C282.29 430.473 278.758 444.782 275.343 458.622C271.896 472.588 268.64 485.78 264.822 497.693C259.076 515.561 251.117 529.781 241.164 539.964C230.675 550.688 218.235 556.625 204.188 557.601C196.661 558.125 188.622 557.203 180.295 554.866C159.615 548.998 137.792 535.693 115.429 515.32C93.2458 495.11 71.5788 468.906 51.0243 437.437C27.8807 401.938 13.4492 368.302 8.12954 337.463C2.41256 304.051 8.55216 267.529 25.4198 234.634C39.6816 206.839 57.9989 182.888 75.7123 159.727C79.5009 154.776 83.4165 149.656 87.1775 144.642C103.067 123.484 117.23 102.969 129.729 84.8665C132.863 80.3253 135.926 75.8909 138.92 71.5797C157.396 45.0386 180.567 17.6136 212.353 15.4032Z" fill="#007BFF" fill-opacity="0.5"/>
<path d="M204.632 548.058C231.621 546.182 252.691 525.972 263.962 491.151C267.958 478.821 271.27 465.292 274.775 450.97C277.896 438.221 281.122 425.038 285.076 411.714C286.942 405.478 289.071 398.986 291.404 392.417C299.141 370.635 309.199 347.645 324.018 317.872C340.236 285.184 355.18 253.371 359.858 223.491C364.445 193.938 360.155 164.097 347.108 134.793C332.082 100.998 310.609 72.91 285.013 53.5637C268.665 40.9175 250.724 31.8702 233.123 27.393C225.374 25.3368 217.784 24.5491 210.566 25.051C191.173 26.3996 173.404 36.781 154.65 57.7221C149.517 63.4895 144.229 70.1411 138.487 78.056C133.95 84.2299 129.326 90.6121 124.429 97.3669C113.452 112.505 101.014 129.666 87.4955 147.296C85.2797 150.166 83.0447 153.045 80.7964 155.941C65.5084 175.635 49.6978 196 36.3598 218.904C33.1905 224.341 30.2343 229.794 27.5763 235.112C11.5499 267.051 5.74071 302.526 11.2162 334.999C16.3485 365.296 30.2091 398.142 52.4072 432.624C67.1939 455.954 83.8617 476.82 101.947 494.645C114.508 507.18 127.594 517.977 140.84 526.737C154.143 535.51 166.867 541.431 180.886 545.366C189.131 547.674 197.122 548.581 204.632 548.058ZM210.552 24.3584C217.801 23.8542 225.424 24.6426 233.204 26.7087C250.846 31.1934 268.832 40.2676 285.216 52.9412C310.879 72.3383 332.411 100.505 347.48 134.394C360.602 163.863 364.913 193.892 360.295 223.645C355.597 253.661 340.623 285.54 324.373 318.291C309.57 348.036 299.523 370.998 291.798 392.745C289.471 399.3 287.346 405.777 285.484 411.997C281.537 425.299 278.314 438.47 275.196 451.207C271.687 465.549 268.371 479.092 264.364 491.456C253.016 526.515 231.808 546.864 204.647 548.753C197.103 549.277 189.08 548.367 180.802 546.051C166.749 542.104 153.992 536.17 140.659 527.376C127.389 518.601 114.282 507.786 101.7 495.23C83.5886 477.378 66.8939 456.479 52.0835 433.115C29.8311 398.549 15.9343 365.598 10.7799 335.181C5.27028 302.495 11.1071 266.805 27.2204 234.69C29.8867 229.36 32.8493 223.893 36.0262 218.446C49.3854 195.502 65.2074 175.122 80.5103 155.409C82.7587 152.516 84.9946 149.636 87.2077 146.764C100.722 129.142 112.622 112.726 124.133 96.8511C129.028 90.0949 133.652 83.7127 138.19 77.5387C143.944 69.608 149.242 62.9437 154.388 57.165C173.218 36.1362 191.064 25.7135 210.552 24.3584Z" fill="#007BFF" fill-opacity="0.5"/>
<path d="M205.269 539.212C232.082 537.348 252.794 518.086 263.589 484.976C267.786 472.178 271.148 458.302 274.708 443.61C277.524 431.989 280.435 419.971 283.951 407.711C285.716 401.66 287.734 395.329 289.95 388.89C297.3 367.536 306.815 345.059 320.804 316.016C336.091 284.117 350.17 253.069 354.484 223.883C358.711 195.067 354.479 166.06 341.901 137.664C327.15 104.157 306.101 77.2789 281.031 59.9306C265.221 48.4384 248.207 40.5956 230.459 36.6241C223.086 34.7965 215.845 34.1149 208.935 34.5954C189.976 35.9138 172.47 45.7261 153.84 65.4729C148.78 70.8973 143.585 77.1406 137.956 84.5603C131.32 93.0735 124.432 102.124 117.142 111.706C107.868 123.895 98.2793 136.498 87.7765 149.884L86.6537 151.3C69.8357 172.463 52.4476 194.349 38.095 219.62C35.0719 224.933 32.2436 230.285 29.6958 235.518C14.4351 266.646 8.92963 301.252 14.1968 332.962C19.1599 362.806 32.4711 394.928 53.7572 428.439C67.8656 451.37 83.988 471.13 103.046 488.859C115.311 500.553 127.995 510.485 141.821 519.228C154.367 527.12 166.252 532.303 181.557 536.555C189.755 538.843 197.733 539.736 205.269 539.212ZM208.921 33.9007C215.86 33.4181 223.132 34.1035 230.532 35.9351C248.321 39.9188 265.377 47.7811 281.222 59.3023C306.364 76.6965 327.478 103.656 342.275 137.268C354.923 165.827 359.179 195.017 354.922 224.029C350.59 253.344 336.481 284.461 321.163 316.425C307.189 345.438 297.685 367.887 290.347 389.21C288.135 395.635 286.122 401.953 284.361 407.989C280.851 420.228 277.942 432.235 275.129 443.846C271.566 458.554 268.199 472.45 263.99 485.282C258.682 501.563 250.942 514.588 240.985 523.995C230.805 533.614 218.793 538.966 205.284 539.906C197.714 540.432 189.703 539.533 181.472 537.237C166.133 532.975 154.222 527.782 141.646 519.869C127.797 511.112 115.092 501.163 102.808 489.453C83.7171 471.695 67.5651 451.895 53.4321 428.924C32.0916 395.33 18.7427 363.104 13.761 333.144C8.45889 301.223 13.9903 266.405 29.3379 235.104C31.893 229.854 34.7271 224.496 37.7592 219.166C52.1355 193.853 69.5401 171.948 86.3737 150.763L87.4924 149.352C97.9902 135.97 107.579 123.366 116.853 111.18C124.145 101.596 131.032 92.5444 137.669 84.0296C143.306 76.6019 148.512 70.3444 153.586 64.904C172.29 45.0772 189.873 35.2252 208.921 33.9007Z" fill="#007BFF" fill-opacity="0.5"/>
<path d="M205.97 530.339C232.249 528.511 253.164 509.692 263.352 478.705C267.777 465.387 271.187 451.138 274.798 436.052C277.31 425.552 279.907 414.699 283 403.528C284.671 397.648 286.582 391.468 288.681 385.162C295.656 364.211 304.647 342.225 317.834 313.875C332.22 282.732 345.461 252.417 349.421 223.885C353.296 195.774 349.111 167.569 336.985 140.054C322.482 106.801 301.818 81.1028 277.224 65.7338C262.179 55.5426 245.577 48.6563 227.875 45.2544C220.875 43.6528 213.98 43.0776 207.376 43.5368C188.811 44.8279 171.522 54.0843 152.965 72.6649C147.966 77.7606 142.852 83.6019 137.332 90.526C127.574 102.264 117.191 115.296 106.198 129.09C100.317 136.473 94.2361 144.105 87.8697 152.019C71.1964 172.344 53.7326 194.328 39.5506 219.957C36.6565 225.168 33.954 230.419 31.5148 235.568C16.9897 265.917 11.7797 299.695 16.847 330.679C21.6497 360.102 34.4375 391.535 54.8527 424.11C68.4441 446.848 84.0517 465.557 103.978 482.991C115.747 493.669 128.413 503.047 142.71 511.667C156.119 519.697 167.345 523.63 182.208 527.713C190.386 529.983 198.38 530.866 205.97 530.339ZM207.361 42.8438C213.993 42.3826 220.918 42.9633 227.943 44.5691C245.68 47.9775 262.324 54.8832 277.404 65.0945C302.075 80.509 322.808 106.295 337.359 139.661C349.556 167.335 353.762 195.72 349.859 224.022C345.884 252.684 332.615 283.069 318.2 314.273C305.026 342.597 296.045 364.555 289.081 385.471C286.986 391.766 285.08 397.932 283.412 403.797C280.326 414.95 277.729 425.795 275.22 436.282C271.604 451.392 268.189 465.661 263.753 479.014C253.488 510.233 232.433 529.194 205.985 531.033C198.362 531.563 190.334 530.675 182.123 528.396C167.235 524.306 155.984 520.363 142.541 512.315C128.223 503.679 115.534 494.286 103.751 483.591C83.7858 466.126 68.1441 447.376 54.5245 424.589C34.0559 391.936 21.2329 360.397 16.4107 330.855C11.3118 299.665 16.5454 265.68 31.1533 235.159C33.5975 230.001 36.309 224.735 39.2096 219.511C53.4194 193.834 70.9022 171.823 87.5919 151.479C93.9551 143.568 100.037 135.936 105.918 128.556C116.911 114.756 127.296 101.724 137.055 89.9888C142.585 83.0505 147.711 77.1964 152.721 72.0864C171.35 53.432 188.712 44.1407 207.361 42.8438Z" fill="#007BFF" fill-opacity="0.5"/>
<path d="M206.697 522.087C232.753 520.275 253.267 502.387 262.982 473.004C267.642 459.111 271.082 444.459 274.726 428.948C276.928 419.573 279.205 409.877 281.874 399.82C283.444 394.112 285.244 388.079 287.226 381.886C293.81 361.318 302.258 339.797 314.618 312.102C327.538 282.895 340.454 252.048 344.043 224.148C347.558 196.704 343.43 169.265 331.773 142.592C317.545 109.549 297.302 84.9926 273.232 71.5775C259.014 62.6692 242.856 56.7216 225.196 53.8929C218.595 52.516 212.07 52.0382 205.801 52.4742C187.655 53.7361 170.601 62.4455 152.135 79.8818C147.211 84.6464 142.19 90.0961 136.783 96.5401C121.789 113.419 105.443 133.257 88.1371 154.26C72.8268 172.355 55.2883 194.372 41.2759 220.48C38.5198 225.59 35.946 230.748 33.6219 235.82C19.8592 265.423 14.9559 298.416 19.8179 328.72C24.4506 357.762 36.6932 388.55 56.2038 420.23C69.3418 442.938 84.4149 460.648 105.08 477.66C116.42 487.461 128.691 496.049 143.692 504.692C157.465 512.553 168.293 515.503 182.003 519.242L182.883 519.48C191.038 521.743 199.049 522.619 206.697 522.087ZM205.787 51.7804C212.083 51.3425 218.633 51.8199 225.255 53.2044C242.95 56.0382 259.149 62.0024 273.397 70.9296C297.55 84.3869 317.867 109.035 332.148 142.202C343.873 169.029 348.025 196.644 344.485 224.273C340.878 252.303 327.935 283.224 314.988 312.49C302.64 340.157 294.203 361.651 287.628 382.186C285.651 388.369 283.853 394.389 282.289 400.08C279.624 410.119 277.349 419.807 275.149 429.178C271.5 444.71 268.054 459.385 263.381 473.314C253.591 502.929 232.935 520.958 206.711 522.781C199.031 523.315 190.985 522.437 182.798 520.164L181.919 519.926C168.188 516.182 157.344 513.225 143.53 505.343C128.506 496.688 116.219 488.086 104.862 478.27C84.1501 461.222 69.0422 443.465 55.8717 420.704C36.3119 388.945 24.035 358.053 19.3811 328.892C14.4877 298.388 19.4163 265.193 33.256 235.42C35.5865 230.337 38.171 225.162 40.9318 220.039C54.9719 193.877 72.5344 171.831 87.8646 153.715C105.17 132.709 121.521 112.867 136.52 95.9878C141.93 89.5362 146.962 84.0707 151.902 79.2916C170.439 61.7874 187.561 53.0478 205.787 51.7804Z" fill="#007BFF" fill-opacity="0.5"/>
<path d="M206.857 513.63C232.913 511.818 253.428 493.929 263.142 464.546C267.802 450.653 271.243 436.002 274.886 420.49C277.088 411.116 279.366 401.42 282.034 391.362C283.604 385.654 285.404 379.621 287.387 373.429C293.97 352.861 302.418 331.34 314.779 303.645C327.698 274.437 340.614 243.59 344.203 215.691C347.719 188.247 343.59 160.808 331.933 134.134C317.705 101.091 297.462 76.5351 273.392 63.12C259.175 54.2116 243.016 48.2641 225.356 45.4354C218.755 44.0585 212.231 43.5807 205.962 44.0167C187.815 45.2786 170.761 53.988 152.295 71.4243C147.371 76.1889 142.351 81.6386 136.943 88.0826C121.949 104.961 105.603 124.799 88.2972 145.803C72.9869 163.897 55.4485 185.914 41.436 212.023C38.6799 217.132 36.1062 222.291 33.7821 227.362C20.0194 256.965 15.1161 289.958 19.9781 320.262C24.6108 349.305 36.8534 380.093 56.364 411.773C69.502 434.481 84.5751 452.191 105.24 469.203C116.58 479.003 128.851 487.592 143.852 496.234C157.626 504.095 168.453 507.046 182.163 510.784L183.043 511.022C191.198 513.286 199.209 514.162 206.857 513.63ZM205.947 43.3229C212.243 42.885 218.793 43.3625 225.415 44.7469C243.11 47.5806 259.309 53.5448 273.557 62.4721C297.71 75.9294 318.027 100.578 332.308 133.744C344.033 160.572 348.185 188.186 344.645 215.816C341.038 243.845 328.095 274.766 315.149 304.032C302.8 331.7 294.363 353.193 287.789 373.729C285.811 379.912 284.014 385.931 282.449 391.623C279.784 401.662 277.509 411.35 275.309 420.72C271.66 436.253 268.214 450.927 263.542 464.857C253.751 494.471 233.095 512.5 206.872 514.324C199.191 514.858 191.145 513.98 182.959 511.707L182.079 511.468C168.349 507.724 157.504 504.767 143.691 496.885C128.666 488.231 116.38 479.628 105.022 469.813C84.3103 452.765 69.2023 435.008 56.0318 412.247C36.4721 380.488 24.1951 349.596 19.5413 320.435C14.6479 289.931 19.5765 256.736 33.4162 226.963C35.7467 221.88 38.3311 216.704 41.092 211.581C55.1321 185.42 72.6946 163.374 88.0248 145.257C105.331 124.252 121.681 104.41 136.68 87.5303C142.09 81.0786 147.123 75.6132 152.062 70.8341C170.599 53.3299 187.721 44.5903 205.947 43.3229Z" fill="#007BFF" fill-opacity="0.5"/>
<path d="M207.017 505.172C233.073 503.36 253.588 485.471 263.302 456.089C267.962 442.196 271.403 427.544 275.046 412.033C277.248 402.658 279.526 392.962 282.194 382.905C283.765 377.196 285.564 371.163 287.547 364.971C294.131 344.403 302.578 322.882 314.939 295.187C327.859 265.98 340.774 235.133 344.364 207.233C347.879 179.789 343.75 152.35 332.093 125.677C317.866 92.6335 297.622 68.0773 273.552 54.6622C259.335 45.7539 243.176 39.8063 225.516 36.9776C218.915 35.6007 212.391 35.123 206.122 35.5589C187.975 36.8208 170.922 45.5302 152.456 62.9666C147.531 67.7311 142.511 73.1808 137.103 79.6248C122.109 96.5037 105.763 116.341 88.4574 137.345C73.1471 155.439 55.6086 177.456 41.5962 203.565C38.8401 208.675 36.2663 213.833 33.9422 218.905C20.1795 248.508 15.2762 281.501 20.1382 311.805C24.7709 340.847 37.0135 371.635 56.5241 403.315C69.6621 426.023 84.7352 443.733 105.4 460.745C116.741 470.545 129.011 479.134 144.012 487.777C157.786 495.638 168.613 498.588 182.323 502.326L183.203 502.565C191.358 504.828 199.369 505.704 207.017 505.172ZM206.107 34.8651C212.403 34.4273 218.953 34.9046 225.576 36.2891C243.27 39.1229 259.47 45.0871 273.717 54.0143C297.87 67.4716 318.188 92.1199 332.468 125.287C344.193 152.114 348.345 179.728 344.805 207.358C341.198 235.388 328.255 266.308 315.309 295.575C302.96 323.242 294.523 344.735 287.949 365.271C285.971 371.454 284.174 377.473 282.609 383.165C279.944 393.204 277.669 402.892 275.469 412.262C271.821 427.795 268.374 442.469 263.702 456.399C253.911 486.013 233.255 504.042 207.032 505.866C199.351 506.4 191.306 505.522 183.119 503.249L182.24 503.011C168.509 499.266 157.664 496.31 143.851 488.427C128.826 479.773 116.54 471.17 105.182 461.355C84.4705 444.307 69.3625 426.55 56.192 403.789C36.6322 372.03 24.3553 341.138 19.7014 311.977C14.8081 281.473 19.7367 248.278 33.5763 218.505C35.9069 213.422 38.4913 208.247 41.2522 203.123C55.2923 176.962 72.8547 154.916 88.1849 136.799C105.491 115.794 121.841 95.9518 136.84 79.0725C142.251 72.6209 147.283 67.1555 152.222 62.3764C170.759 44.8721 187.881 36.1325 206.107 34.8651Z" fill="#007BFF" fill-opacity="0.5"/>
<path d="M207.177 496.714C233.233 494.902 253.748 477.014 263.462 447.631C268.122 433.738 271.563 419.086 275.207 403.575C277.409 394.2 279.686 384.504 282.355 374.447C283.925 368.738 285.724 362.706 287.707 356.513C294.291 335.945 302.738 314.424 315.099 286.729C328.019 257.522 340.934 226.675 344.524 198.775C348.039 171.331 343.91 143.892 332.253 117.219C318.026 84.1757 297.782 59.6196 273.712 46.2045C259.495 37.2961 243.336 31.3486 225.677 28.5198C219.075 27.143 212.551 26.6652 206.282 27.1011C188.135 28.3631 171.082 37.0725 152.616 54.5088C147.691 59.2734 142.671 64.7231 137.263 71.167C122.269 88.0459 105.923 107.884 88.6175 128.887C73.3072 146.982 55.7687 168.999 41.7563 195.107C39.0002 200.217 36.4264 205.375 34.1024 210.447C20.3396 240.05 15.4363 273.043 20.2984 303.347C24.9311 332.389 37.1736 363.177 56.6843 394.857C69.8223 417.565 84.8954 435.275 105.56 452.287C116.901 462.088 129.171 470.676 144.172 479.319C157.946 487.18 168.773 490.13 182.483 493.869L183.363 494.107C191.518 496.37 199.529 497.246 207.177 496.714ZM206.267 26.4073C212.563 25.9695 219.114 26.4469 225.736 27.8313C243.43 30.6651 259.63 36.6294 273.877 45.5566C298.03 59.0138 318.348 83.6622 332.628 116.829C344.354 143.656 348.505 171.27 344.965 198.9C341.358 226.93 328.415 257.851 315.469 287.117C303.12 314.784 294.683 336.277 288.109 356.813C286.131 362.996 284.334 369.015 282.769 374.707C280.104 384.746 277.829 394.434 275.629 403.805C271.981 419.337 268.534 434.012 263.862 447.941C254.071 477.556 233.415 495.585 207.192 497.408C199.511 497.942 191.466 497.064 183.279 494.791L182.4 494.553C168.669 490.808 157.825 487.852 144.011 479.97C128.986 471.315 116.7 462.713 105.342 452.897C84.6306 435.849 69.5226 418.092 56.3521 395.331C36.7924 363.572 24.5154 332.68 19.8616 303.519C14.9682 273.015 19.8968 239.82 33.7364 210.047C36.067 204.964 38.6515 199.789 41.4123 194.666C55.4524 168.504 73.0149 146.458 88.3451 128.342C105.651 107.336 122.002 87.494 137.001 70.6148C142.411 64.1631 147.443 58.6977 152.382 53.9186C170.92 36.4144 188.042 27.6747 206.267 26.4073Z" fill="#007BFF" fill-opacity="0.5"/>
<path d="M207.337 488.257C233.393 486.445 253.908 468.556 263.622 439.173C268.282 425.28 271.723 410.629 275.367 395.117C277.569 385.742 279.846 376.046 282.515 365.989C284.085 360.281 285.884 354.248 287.867 348.056C294.451 327.488 302.898 305.966 315.259 278.271C328.179 249.064 341.094 218.217 344.684 190.317C348.199 162.874 344.071 135.434 332.414 108.761C318.186 75.7179 297.942 51.1618 273.873 37.7467C259.655 28.8383 243.496 22.8908 225.837 20.0621C219.235 18.6852 212.711 18.2074 206.442 18.6434C188.295 19.9053 171.242 28.6147 152.776 46.051C147.852 50.8156 142.831 56.2653 137.423 62.7093C122.429 79.5882 106.084 99.4258 88.7777 120.429C73.4674 138.524 55.9289 160.541 41.9165 186.65C39.1604 191.759 36.5866 196.917 34.2626 201.989C20.4998 231.592 15.5965 264.585 20.4585 294.889C25.0912 323.932 37.3338 354.72 56.8444 386.399C69.9824 409.108 85.0555 426.817 105.72 443.83C117.061 453.63 129.331 462.218 144.333 470.861C158.106 478.722 168.933 481.673 182.644 485.411L183.524 485.649C191.678 487.912 199.69 488.788 207.337 488.257ZM206.427 17.9496C212.723 17.5117 219.274 17.9891 225.896 19.3736C243.59 22.2073 259.79 28.1716 274.038 37.0988C298.19 50.5561 318.508 75.2044 332.788 108.371C344.514 135.198 348.665 162.813 345.125 190.442C341.518 218.472 328.576 249.393 315.629 278.659C303.28 306.326 294.843 327.82 288.269 348.356C286.291 354.539 284.494 360.558 282.929 366.249C280.265 376.288 277.99 385.977 275.789 395.347C272.141 410.88 268.695 425.554 264.022 439.484C254.231 469.098 233.576 487.127 207.352 488.95C199.671 489.485 191.626 488.606 183.439 486.333L182.56 486.095C168.829 482.351 157.985 479.394 144.171 471.512C129.147 462.857 116.86 454.255 105.502 444.439C84.7908 427.391 69.6828 409.635 56.5123 386.873C36.9525 355.115 24.6756 324.223 20.0217 295.062C15.1284 264.558 20.057 231.362 33.8966 201.589C36.2272 196.506 38.8116 191.331 41.5725 186.208C55.6126 160.046 73.1751 138 88.5052 119.884C105.811 98.8787 122.162 79.0362 137.161 62.157C142.571 55.7054 147.603 50.2399 152.542 45.4608C171.08 27.9566 188.202 19.217 206.427 17.9496Z" fill="#007BFF" fill-opacity="0.5"/>
<path d="M207.498 479.799C233.553 477.987 254.068 460.098 263.782 430.715C268.442 416.822 271.883 402.171 275.527 386.659C277.729 377.285 280.006 367.589 282.675 357.531C284.245 351.823 286.045 345.79 288.027 339.598C294.611 319.03 303.058 297.509 315.419 269.814C328.339 240.606 341.255 209.759 344.844 181.86C348.359 154.416 344.231 126.976 332.574 100.303C318.346 67.2602 298.103 42.7041 274.033 29.2889C259.815 20.3806 243.656 14.433 225.997 11.6043C219.395 10.2274 212.871 9.74966 206.602 10.1856C188.455 11.4476 171.402 20.1569 152.936 37.5933C148.012 42.3578 142.991 47.8075 137.583 54.2515C122.589 71.1304 106.244 90.968 88.9378 111.972C73.6275 130.066 56.0891 152.083 42.0766 178.192C39.3205 183.301 36.7468 188.459 34.4227 193.531C20.66 223.134 15.7567 256.127 20.6187 286.431C25.2514 315.474 37.4939 346.262 57.0046 377.942C70.1426 400.65 85.2157 418.36 105.881 435.372C117.221 445.172 129.491 453.761 144.493 462.403C158.266 470.264 169.093 473.215 182.804 476.953L183.684 477.191C191.838 479.455 199.85 480.331 207.498 479.799ZM206.587 9.4918C212.884 9.05396 219.434 9.53135 226.056 10.9158C243.75 13.7496 259.95 19.7138 274.198 28.641C298.351 42.0983 318.668 66.7466 332.948 99.9133C344.674 126.741 348.826 154.355 345.285 181.985C341.679 210.014 328.736 240.935 315.789 270.201C303.44 297.868 295.003 319.362 288.429 339.898C286.451 346.081 284.654 352.1 283.09 357.791C280.425 367.83 278.15 377.519 275.949 386.889C272.301 402.422 268.855 417.096 264.182 431.026C254.391 460.64 233.736 478.669 207.512 480.493C199.832 481.027 191.786 480.149 183.599 477.876L182.72 477.637C168.989 473.893 158.145 470.936 144.331 463.054C129.307 454.399 117.02 445.797 105.662 435.982C84.9509 418.934 69.8429 401.177 56.6724 378.416C37.1127 346.657 24.8358 315.765 20.1819 286.604C15.2885 256.1 20.2171 222.905 34.0567 193.132C36.3873 188.049 38.9718 182.873 41.7326 177.75C55.7727 151.588 73.3352 129.543 88.6654 111.426C105.971 90.4209 122.322 70.5785 137.321 53.6992C142.731 47.2476 147.763 41.7822 152.702 37.0031C171.24 19.4989 188.362 10.7592 206.587 9.4918Z" fill="#007BFF" fill-opacity="0.5"/>
</g>
</svg>
