<svg width="48" height="49" viewBox="0 0 48 49" fill="none" xmlns="http://www.w3.org/2000/svg">
<path d="M13 40.5H10C7.79086 40.5 6 38.7091 6 36.5V8.5C6 6.29086 7.79086 4.5 10 4.5H38C40.2091 4.5 42 6.29086 42 8.5V36.5C42 38.7091 40.2091 40.5 38 40.5H35M24 38.5C27.3137 38.5 30 35.8137 30 32.5C30 29.1863 27.3137 26.5 24 26.5C20.6863 26.5 18 29.1863 18 32.5C18 35.8137 20.6863 38.5 24 38.5ZM24 38.5L24.0429 38.4996L17.6573 44.8851L12.0005 39.2283L18.0393 33.1895M24 38.5L30.3856 44.8851L36.0425 39.2283L30.0037 33.1895M18 12.5H30M14 19.5H34" stroke="#fff" stroke-width="2" stroke-linecap="round" stroke-linejoin="round"/>
</svg>
