<svg width="139" height="104" viewBox="0 0 139 104" fill="none" xmlns="http://www.w3.org/2000/svg">
<path d="M138.094 82.1283C138.094 79.4084 137.02 77.1275 135.021 75.5561C133.951 74.6987 132.664 74.1137 131.134 73.7867H133.907L138.093 73.9444V25.8769C138.093 11.6817 126.568 0.132 112.403 0.132H97.4294C93.6782 0.132 90.0504 0.931124 86.6488 2.50429C83.4277 0.983981 79.8348 0.130208 76.0461 0.130208H57.7122V0.132896H37.4974V23.2609L11.9115 0.0253906H0V73.8019H0.952096V91.1838H2.91708C1.13179 92.4058 0.00268177 94.4439 0.00268177 96.8493C0.00268177 100.717 2.9582 103.634 6.87655 103.634C7.28689 103.634 7.68292 103.596 8.06823 103.538H15.8638L23.5843 103.537L24.2619 101.778L24.9592 103.537H33.7873C34.3926 103.632 35.021 103.687 35.6763 103.687C37.4205 103.687 39.0869 103.403 40.2464 102.908L40.7023 102.714C42.046 103.341 43.6114 103.687 45.3394 103.687C46.068 103.687 46.7716 103.627 47.4412 103.534L55.7884 103.534V103.54H68.3533C69.1204 103.597 69.9384 103.626 70.8413 103.626C72.7088 103.626 74.3788 103.339 75.8056 102.802V103.539H84.9422L94.3397 103.538L95.0165 101.78L95.7129 103.538H105.071L114.209 103.539V103.131C115.233 103.498 116.358 103.704 117.563 103.704C118.842 103.704 120.035 103.48 121.113 103.074V103.539H125.638C127.502 103.538 128.599 102.941 129.245 102.212L130.214 103.539H137.489V85.9017H137.325C137.829 84.7577 138.094 83.4828 138.094 82.1283ZM46.2084 73.5466V73.9641C45.1785 73.5932 44.0467 73.3854 42.8327 73.3854C41.5677 73.3854 40.3805 73.6156 39.3023 74.0304V73.5466H36.5006V73.5448H26.3816V48.8454L53.5775 73.5457H46.2084V73.5466ZM111.712 73.5439H105.326L104.392 75.9019C102.784 74.3216 100.519 73.3854 97.8924 73.3854C95.7487 73.3854 93.8257 74.042 92.2934 75.1601C92.1539 75.0508 92.0163 74.9397 91.8652 74.8403C90.0844 73.6291 88.0926 73.4723 86.5522 73.4723C85.4973 73.4723 84.3861 73.5484 83.4993 73.681H81.613C91.4012 72.7251 99.5481 66.0822 102.72 57.1019H111.713L111.712 73.5439ZM99.9889 32.2296C100.538 30.3885 100.869 28.4973 100.977 26.5694H111.712V32.2296H99.9889Z" fill="white"/>
<path d="M51.4631 3.95996V54.8002L13.9648 20.746V69.98H22.557V40.2198L55.3064 69.9639H59.9068C59.9569 69.9639 60.0025 69.9701 60.0525 69.9719V3.95996H51.4631Z" fill="url(#paint0_linear_82_732)"/>
<path d="M12.4016 69.979V17.2135L49.8999 51.2677V3.95899H41.3069V31.8898L10.4312 3.85059H3.80859V69.979H12.4016Z" fill="url(#paint1_linear_82_732)"/>
<path d="M112.415 14.1348H97.4412C96.9352 14.1348 96.4346 14.176 95.9375 14.2414C97.3572 16.8188 98.3209 19.6829 98.6454 22.7469H112.415C114.137 22.7469 115.539 24.1516 115.539 25.878V36.056H97.9865C99.602 38.44 100.74 41.0981 101.36 43.8833H124.133V25.8771C124.134 19.4025 118.877 14.1348 112.415 14.1348Z" fill="url(#paint2_linear_82_732)"/>
<path d="M115.538 53.2812V69.966H124.131V45.4512H101.65C101.814 46.5459 101.9 47.6595 101.9 48.7785C101.9 50.3194 101.742 51.8236 101.449 53.2803H115.538V53.2812Z" fill="url(#paint3_linear_82_732)"/>
<path d="M112.414 12.5712C119.736 12.5712 125.695 18.5404 125.695 25.8803V69.9639H133.946C134.064 69.9639 134.173 69.9755 134.287 69.98V25.8803C134.287 13.7949 124.474 3.95996 112.413 3.95996H97.4393C94.2227 3.95996 91.0965 4.66502 88.25 5.98465C90.9874 7.73878 93.3153 10.0734 95.0899 12.7996C95.8596 12.6616 96.6436 12.572 97.4393 12.572H112.414V12.5712Z" fill="url(#paint4_linear_82_732)"/>
<path d="M86.9088 25.1595C86.9088 19.0809 81.9739 14.1348 75.9074 14.1348H61.5195V22.746H76.037C77.3654 22.746 78.4454 23.8291 78.4454 25.1595C78.4454 26.4907 77.3646 27.573 76.037 27.573H61.5195V36.1841H75.9074C81.9731 36.1859 86.9088 31.2407 86.9088 25.1595Z" fill="url(#paint5_linear_82_732)"/>
<path d="M90.0341 48.7757C90.0341 42.6971 85.0993 37.751 79.0327 37.751H75.9083H61.5195V46.3622H76.037H79.1615C80.4899 46.3622 81.5699 47.4453 81.5699 48.7757C81.5699 50.1069 80.489 51.1892 79.1615 51.1892H61.5195V59.8004H79.0327C85.1002 59.8013 90.0341 54.8551 90.0341 48.7757Z" fill="url(#paint6_linear_82_732)"/>
<path d="M94.9171 34.6748C96.3609 31.8089 97.1941 28.5837 97.1941 25.1579C97.1941 13.4675 87.7017 3.95508 76.0361 3.95508H61.5195V12.5663H75.9073C82.8349 12.5663 88.4723 18.2139 88.4723 25.1579C88.4723 30.0942 85.6169 34.3639 81.4787 36.4271C87.2395 37.5721 91.5968 42.6696 91.5968 48.775C91.5968 55.7172 85.9611 61.3666 79.0318 61.3666H61.5195V69.9778H79.1615C90.8289 69.9778 100.319 60.4654 100.319 48.775C100.319 43.3585 98.2633 38.4249 94.9171 34.6748Z" fill="url(#paint7_linear_82_732)"/>
<path d="M4.75781 87.3612V77.373H6.39917L10.1325 82.4267C10.9961 83.5976 11.6701 84.6512 12.2226 85.6716L12.2566 85.6581C12.1189 84.3233 12.0831 83.1085 12.0831 81.5541V77.373H13.4983V87.3612H11.9785L8.2828 82.2932C7.47106 81.1823 6.69329 80.041 6.10773 78.9596L6.05588 78.9731C6.1417 80.2318 6.17746 81.4332 6.17746 83.0914V87.3594C6.17657 87.3612 4.75781 87.3612 4.75781 87.3612Z" fill="#00C2C0"/>
<path d="M18.022 84.2185L16.8134 87.3612H15.2578L19.2146 77.373H21.0294L25.0041 87.3612H23.3967L22.1522 84.2203H18.0229L18.022 84.2185ZM21.8411 83.2115L20.7004 80.3375C20.4411 79.6835 20.2677 79.0922 20.097 78.5153H20.0612C19.8896 79.1066 19.6982 79.7167 19.473 80.3223L18.3322 83.2124L21.8411 83.2115Z" fill="#00C2C0"/>
<path d="M27.581 78.4705H24.0391V77.373H32.6616V78.4705H29.1017V87.3612H27.5819L27.581 78.4705Z" fill="#00C2C0"/>
<path d="M35.4802 77.373V87.3612H33.9766V77.373H35.4802Z" fill="#00C2C0"/>
<path d="M48.0531 82.2628C48.0531 85.7012 45.6161 87.5243 42.6444 87.5243C39.5691 87.5243 37.4102 85.4799 37.4102 82.4563C37.4102 79.2849 39.7077 77.2109 42.8188 77.2109C45.9969 77.2083 48.0531 79.2992 48.0531 82.2628ZM39.0175 82.4241C39.0175 84.558 40.3648 86.4707 42.7321 86.4707C45.1154 86.4707 46.4627 84.5885 46.4627 82.3219C46.4627 80.3376 45.254 78.2609 42.7482 78.2609C40.2602 78.2627 39.0175 80.2327 39.0175 82.4241Z" fill="#00C2C0"/>
<path d="M50.0078 87.3612V77.373H51.6492L55.3825 82.4267C56.2478 83.5976 56.9201 84.6512 57.4735 85.6716L57.5075 85.6581C57.3698 84.3233 57.3358 83.1085 57.3358 81.5541V77.373H58.751V87.3612H57.2294L53.5328 82.2932C52.7211 81.1823 51.9433 80.041 51.3551 78.9596L51.3032 78.9731C51.389 80.2318 51.4248 81.4332 51.4248 83.0914V87.3594C51.4257 87.3612 50.0078 87.3612 50.0078 87.3612Z" fill="#00C2C0"/>
<path d="M63.2738 84.2154L62.0633 87.3563H60.5078L64.4646 77.3682H66.2794L70.2541 87.3563H68.6467L67.4022 84.2154H63.2738ZM67.0929 83.2084L65.954 80.3344C65.6929 79.6804 65.5213 79.0891 65.3505 78.5122H65.3139C65.1405 79.1035 64.9509 79.7136 64.7274 80.3192L63.5867 83.2093L67.0929 83.2084Z" fill="#00C2C0"/>
<path d="M71.9766 77.373H73.4802V86.279H78.4553V87.3621H71.9766V77.373Z" fill="#00C2C0"/>
<path d="M83.7978 77.5057C84.454 77.3874 85.491 77.2979 86.5459 77.2979C88.0496 77.2979 89.0169 77.52 89.7428 78.0235C90.3462 78.4096 90.7101 79.0009 90.7101 79.7866C90.7101 80.7497 89.9681 81.5954 88.7397 81.9815V82.0093C89.8465 82.2476 91.141 83.0324 91.141 84.5133C91.141 85.3724 90.7423 86.0264 90.1558 86.5138C89.3441 87.1516 88.0308 87.4473 86.1302 87.4473C85.0932 87.4473 84.3002 87.3872 83.7969 87.3272L83.7978 77.5057ZM85.3032 81.5936H86.6675C88.257 81.5936 89.1894 80.8823 89.1894 79.9192C89.1894 78.7483 88.1524 78.2878 86.6335 78.2878C85.9416 78.2878 85.5446 78.3317 85.3032 78.3783V81.5936ZM85.3032 86.3812C85.5965 86.4251 86.0292 86.4412 86.5638 86.4412C88.1193 86.4412 89.5524 85.952 89.5524 84.4989C89.5524 83.1354 88.1881 82.5719 86.545 82.5719H85.3006V86.3803L85.3032 86.3812Z" fill="#00C2C0"/>
<path d="M103.123 82.2628C103.123 85.7012 100.688 87.5243 97.7148 87.5243C94.6394 87.5243 92.4805 85.4799 92.4805 82.4563C92.4805 79.2849 94.7798 77.2109 97.8891 77.2109C101.068 77.2083 103.123 79.2992 103.123 82.2628ZM94.0861 82.4241C94.0861 84.558 95.4333 86.4707 97.8006 86.4707C100.186 86.4707 101.534 84.5885 101.534 82.3219C101.534 80.3376 100.323 78.2609 97.8194 78.2609C95.3323 78.2627 94.0861 80.2327 94.0861 82.4241Z" fill="#00C2C0"/>
<path d="M106.711 84.2154L105.501 87.3563H103.945L107.902 77.3682H109.717L113.692 87.3563H112.084L110.84 84.2154H106.711ZM110.53 83.2084L109.391 80.3344C109.13 79.6804 108.958 79.0891 108.787 78.5122H108.751C108.578 79.1035 108.388 79.7136 108.165 80.3192L107.024 83.2093L110.53 83.2084Z" fill="#00C2C0"/>
<path d="M115.418 77.5057C116.18 77.3713 117.267 77.2979 118.303 77.2979C119.91 77.2979 120.947 77.5496 121.673 78.1131C122.261 78.5566 122.589 79.2383 122.589 80.0097C122.589 81.3284 121.621 82.2019 120.393 82.5576V82.6015C121.292 82.8675 121.829 83.5789 122.104 84.6154C122.483 86.0085 122.76 86.9716 123.003 87.3568H121.448C121.257 87.0746 120.997 86.2154 120.67 84.9711C120.323 83.5923 119.703 83.0745 118.337 83.0288H116.922V87.355H115.418V77.5057ZM116.922 82.0541H118.459C120.067 82.0541 121.086 81.2989 121.086 80.1575C121.086 78.8683 119.997 78.3048 118.407 78.2914C117.682 78.2914 117.163 78.3514 116.922 78.4096V82.0541Z" fill="#00C2C0"/>
<path d="M124.727 77.5057C125.642 77.3874 126.731 77.2979 127.923 77.2979C130.085 77.2979 131.623 77.7279 132.64 78.5431C133.677 79.3584 134.281 80.5132 134.281 82.1284C134.281 83.7598 133.693 85.092 132.606 86.0094C131.517 86.9429 129.721 87.4482 127.457 87.4482C126.384 87.4482 125.486 87.4043 124.727 87.3281V77.5057ZM126.229 86.3364C126.608 86.3964 127.163 86.4107 127.751 86.4107C130.964 86.4107 132.708 84.8698 132.708 82.1723C132.726 79.8162 131.17 78.3174 127.991 78.3174C127.214 78.3174 126.625 78.3774 126.228 78.4517L126.229 86.3364Z" fill="#00C2C0"/>
<path d="M10.0218 96.7363C10.0218 98.7448 8.60036 99.8082 6.86513 99.8082C5.06912 99.8082 3.80859 98.6131 3.80859 96.8491C3.80859 94.9965 5.15047 93.7861 6.96705 93.7861C8.82118 93.7843 10.0218 95.0063 10.0218 96.7363ZM4.74549 96.833C4.74549 98.0801 5.53309 99.1946 6.9152 99.1946C8.30714 99.1946 9.09474 98.0953 9.09474 96.7721C9.09474 95.6128 8.3867 94.3998 6.92503 94.3998C5.47141 94.398 4.74549 95.5519 4.74549 96.833Z" fill="#00C2C0"/>
<path d="M11.1571 93.8828H14.8198V94.5144H12.0341V96.4531H14.6061V97.0766H12.0341V99.715H11.1563L11.1571 93.8828Z" fill="#00C2C0"/>
<path d="M22.1626 96.5718L20.954 99.7128H19.3984L23.3552 89.7246H25.17L29.1447 99.7128H27.5373L26.2929 96.5718H22.1626ZM25.9791 95.5648L24.8401 92.6909C24.5809 92.0369 24.4074 91.4456 24.2367 90.8686H24.2009C24.0293 91.4599 23.838 92.07 23.6127 92.6756L22.472 95.5657L25.9791 95.5648Z" fill="#00C2C0"/>
<path d="M38.7383 99.3905C38.1858 99.6261 37.079 99.8635 35.663 99.8635C32.3811 99.8635 29.9102 98.0843 29.9102 94.8098C29.9102 91.685 32.3811 89.5645 35.992 89.5645C37.4438 89.5645 38.3592 89.8305 38.7562 90.0097L38.3932 91.0624C37.8228 90.8241 37.012 90.6467 36.0438 90.6467C33.3136 90.6467 31.4997 92.1437 31.4997 94.765C31.4997 97.209 33.141 98.7804 35.9741 98.7804C36.8895 98.7804 37.8228 98.6164 38.4272 98.3647L38.7383 99.3905Z" fill="#00C2C0"/>
<path d="M48.3945 99.3905C47.842 99.6261 46.7353 99.8635 45.3192 99.8635C42.0374 99.8635 39.5664 98.0843 39.5664 94.8098C39.5664 91.685 42.0374 89.5645 45.6482 89.5645C47.1 89.5645 48.0155 89.8305 48.4124 90.0097L48.0494 91.0624C47.4791 90.8241 46.6682 90.6467 45.7001 90.6467C42.9698 90.6467 41.1559 92.1437 41.1559 94.765C41.1559 97.209 42.7973 98.7804 45.6303 98.7804C46.5458 98.7804 47.4791 98.6164 48.0834 98.3647L48.3945 99.3905Z" fill="#00C2C0"/>
<path d="M50.2909 89.8612C51.0507 89.7268 52.1396 89.6533 53.1757 89.6533C54.7831 89.6533 55.8202 89.9051 56.5461 90.4686C57.1325 90.912 57.4615 91.5938 57.4615 92.3651C57.4615 93.6839 56.4942 94.5574 55.2659 94.913V94.9569C56.1635 95.223 56.6998 95.9343 56.977 96.9709C57.356 98.364 57.6332 99.327 57.8745 99.7123H56.319C56.1295 99.43 55.8684 98.5709 55.5412 97.3265C55.1962 95.9478 54.5739 95.4299 53.2079 95.3843H51.7928V99.7105H50.2891V89.8612H50.2909ZM51.7928 94.4113H53.3304C54.9378 94.4113 55.9569 93.6561 55.9569 92.5148C55.9569 91.2256 54.8681 90.6621 53.2786 90.6486C52.5526 90.6486 52.0341 90.7087 51.7928 90.7669V94.4113Z" fill="#00C2C0"/>
<path d="M65.6267 95.0321H61.1004V98.6336H66.1461V99.7167H59.5977V89.7285H65.8878V90.8116H61.1022V93.9687H65.6285L65.6267 95.0321Z" fill="#00C2C0"/>
<path d="M68.1055 89.8612C69.0209 89.7429 70.1098 89.6533 71.3024 89.6533C73.464 89.6533 75.0017 90.0833 76.0208 90.8986C77.0579 91.7138 77.6622 92.8686 77.6622 94.4839C77.6622 96.1153 77.0739 97.4475 75.9869 98.3649C74.898 99.2984 73.102 99.8036 70.8375 99.8036C69.7647 99.8036 68.8672 99.7597 68.1073 99.6836V89.8621L68.1055 89.8612ZM69.6083 98.6936C69.9873 98.7537 70.5416 98.768 71.1298 98.768C74.3428 98.768 76.087 97.2271 76.087 94.5296C76.1049 92.1734 74.5493 90.6746 71.3703 90.6746C70.5925 90.6746 70.0043 90.7346 69.6074 90.809L69.6083 98.6936Z" fill="#00C2C0"/>
<path d="M81.1131 89.7285V99.7167H79.6094V89.7285H81.1131Z" fill="#00C2C0"/>
<path d="M85.9573 90.8221H82.418V89.7246H91.0387V90.8221H87.4788V99.7128H85.9573V90.8221Z" fill="#00C2C0"/>
<path d="M92.9183 96.5718L91.7079 99.7128H90.1523L94.1091 89.7246H95.9239L99.8986 99.7128H98.2912L97.0468 96.5718H92.9183ZM96.7366 95.5648L95.5976 92.6909C95.3366 92.0369 95.1649 91.4456 94.9942 90.8686H94.9584C94.785 91.4599 94.5955 92.07 94.372 92.6756L93.2312 95.5657L96.7366 95.5648Z" fill="#00C2C0"/>
<path d="M102.499 90.8221H98.957V89.7246H107.578V90.8221H104.018V99.7128H102.496V90.8221H102.499Z" fill="#00C2C0"/>
<path d="M110.371 89.7285V99.7167H108.867V89.7285H110.371Z" fill="#00C2C0"/>
<path d="M122.959 94.6163C122.959 98.0547 120.524 99.8778 117.551 99.8778C114.475 99.8778 112.316 97.8334 112.316 94.8098C112.316 91.6384 114.616 89.5645 117.725 89.5645C120.905 89.5627 122.959 91.6536 122.959 94.6163ZM113.924 94.7794C113.924 96.9134 115.271 98.8261 117.638 98.8261C120.023 98.8261 121.372 96.9438 121.372 94.6772C121.372 92.6929 120.161 90.6162 117.657 90.6162C115.168 90.6144 113.924 92.5872 113.924 94.7794Z" fill="#00C2C0"/>
<path d="M124.918 99.7167V89.7285H126.559L130.293 94.7822C131.156 95.9531 131.83 97.0066 132.383 98.027L132.417 98.0136C132.279 96.6787 132.245 95.4639 132.245 93.9096V89.7285H133.66V99.7167H132.139L128.442 94.6487C127.63 93.5378 126.853 92.3964 126.264 91.3151L126.212 91.3286C126.3 92.5873 126.334 93.7886 126.334 95.4469V99.7149C126.333 99.7167 124.918 99.7167 124.918 99.7167Z" fill="#00C2C0"/>
<path d="M69.0156 51.3534C69.029 51.3534 69.0424 51.3525 69.055 51.3525L69.0702 52.3452C69.0532 52.3568 69.0344 52.3676 69.0174 52.3765L69.0156 51.3534Z" fill="white"/>
<path d="M69.0391 51.8223H69.0721L69.0391 51.9044V51.8223Z" fill="white"/>
<defs>
<linearGradient id="paint0_linear_82_732" x1="13.9653" y1="36.9697" x2="60.0531" y2="36.9697" gradientUnits="userSpaceOnUse">
<stop stop-color="#00C2C0"/>
<stop offset="1" stop-color="#00AEEF"/>
</linearGradient>
<linearGradient id="paint1_linear_82_732" x1="3.80841" y1="36.9148" x2="49.8997" y2="36.9148" gradientUnits="userSpaceOnUse">
<stop stop-color="#00C2C0"/>
<stop offset="1" stop-color="#00AEEF"/>
</linearGradient>
<linearGradient id="paint2_linear_82_732" x1="95.9375" y1="29.0083" x2="124.133" y2="29.0083" gradientUnits="userSpaceOnUse">
<stop stop-color="#00C2C0"/>
<stop offset="1" stop-color="#00AEEF"/>
</linearGradient>
<linearGradient id="paint3_linear_82_732" x1="101.45" y1="57.7085" x2="124.131" y2="57.7085" gradientUnits="userSpaceOnUse">
<stop stop-color="#00C2C0"/>
<stop offset="1" stop-color="#00AEEF"/>
</linearGradient>
<linearGradient id="paint4_linear_82_732" x1="88.25" y1="36.9697" x2="134.287" y2="36.9697" gradientUnits="userSpaceOnUse">
<stop stop-color="#00C2C0"/>
<stop offset="1" stop-color="#00AEEF"/>
</linearGradient>
<linearGradient id="paint5_linear_82_732" x1="61.5193" y1="25.1595" x2="86.9088" y2="25.1595" gradientUnits="userSpaceOnUse">
<stop stop-color="#00C2C0"/>
<stop offset="1" stop-color="#00AEEF"/>
</linearGradient>
<linearGradient id="paint6_linear_82_732" x1="61.5194" y1="48.7761" x2="90.0341" y2="48.7761" gradientUnits="userSpaceOnUse">
<stop stop-color="#00C2C0"/>
<stop offset="1" stop-color="#00AEEF"/>
</linearGradient>
<linearGradient id="paint7_linear_82_732" x1="61.5193" y1="36.9662" x2="100.319" y2="36.9662" gradientUnits="userSpaceOnUse">
<stop stop-color="#00C2C0"/>
<stop offset="1" stop-color="#00AEEF"/>
</linearGradient>
</defs>
</svg>
