<svg width="63" height="63" viewBox="0 0 63 63" fill="none" xmlns="http://www.w3.org/2000/svg">
<mask id="mask0_124_16947" style="mask-type:alpha" maskUnits="userSpaceOnUse" x="0" y="0" width="63" height="63">
<rect width="63" height="63" fill="#007BFF"/>
</mask>
<g mask="url(#mask0_124_16947)">
<path d="M13.6191 29.4455L20.0504 32.1663C20.8646 30.5375 21.7514 28.9609 22.7108 27.4367C23.6698 25.912 24.7281 24.4295 25.8858 22.9893L21.8577 22.2169C21.5882 22.1495 21.3272 22.1578 21.0748 22.2418C20.8224 22.3263 20.5953 22.4693 20.3936 22.671L13.6191 29.4455ZM22.13 33.8325L29.5608 41.2481C31.6341 40.3123 33.7207 39.1225 35.8207 37.6788C37.9207 36.235 39.9398 34.5441 41.8779 32.606C44.705 29.7788 46.8648 26.7643 48.3571 23.5622C49.8498 20.3601 50.6887 16.6624 50.8738 12.4689C46.6804 12.654 42.9885 13.4929 39.7983 14.9857C36.608 16.478 33.5993 18.6377 30.7722 21.4648C28.8341 23.4029 27.1431 25.4305 25.6994 27.5476C24.2556 29.6642 23.0659 31.7592 22.13 33.8325ZM35.7295 27.5981C34.9591 26.8273 34.5739 25.9026 34.5739 24.8242C34.5739 23.7457 34.9591 22.8211 35.7295 22.0502C36.5004 21.2793 37.436 20.8939 38.5363 20.8939C39.6366 20.8939 40.5722 21.2793 41.3431 22.0502C42.114 22.8211 42.4994 23.7457 42.4994 24.8242C42.4994 25.9026 42.114 26.8273 41.3431 27.5981C40.5722 28.3686 39.6366 28.7538 38.5363 28.7538C37.436 28.7538 36.5004 28.3686 35.7295 27.5981ZM33.8973 49.7741L40.6717 42.9997C40.8734 42.798 41.0165 42.5709 41.1009 42.3185C41.1849 42.066 41.1932 41.8051 41.1259 41.5356L40.3535 37.5075C38.9132 38.6651 37.4307 39.721 35.906 40.6752C34.3818 41.6294 32.8053 42.5136 31.1764 43.3278L33.8973 49.7741ZM53.3275 10.0507C53.6202 14.8732 52.9377 19.3097 51.28 23.3601C49.6228 27.4104 47.0406 31.1889 43.5336 34.6955C43.3656 34.8639 43.2143 35.0155 43.0795 35.1503C42.9448 35.2846 42.7934 35.4359 42.6254 35.6044L43.6852 40.9909C43.8265 41.6974 43.7996 42.3821 43.6045 43.0449C43.4094 43.7082 43.0561 44.2955 42.5447 44.807L32.9838 54.3173L28.6322 44.0648L19.278 34.7106L9.02539 30.3091L18.5207 20.7981C19.0321 20.2866 19.6219 19.9248 20.2899 19.7126C20.958 19.5009 21.6455 19.4657 22.3525 19.607L27.8394 20.7173C28.0079 20.5493 28.1509 20.398 28.2686 20.2632C28.3863 20.1285 28.5294 19.9771 28.6978 19.8091C32.2044 16.3021 35.9802 13.7259 40.0253 12.0804C44.0705 10.4346 48.5045 9.75797 53.3275 10.0507ZM13.4321 42.4392C14.4585 41.4128 15.7062 40.9056 17.1754 40.9174C18.6445 40.9292 19.8922 41.4483 20.9186 42.4747C21.945 43.501 22.4558 44.7488 22.451 46.2179C22.4457 47.687 21.9299 48.9348 20.9035 49.9612C20.0115 50.8528 18.5804 51.6167 16.6103 52.2528C14.6398 52.8889 12.3605 53.3282 9.7722 53.5705C10.0146 50.9823 10.4621 48.7031 11.1149 46.7331C11.7681 44.7626 12.5405 43.3313 13.4321 42.4392ZM15.305 44.3476C14.8002 44.8525 14.329 45.6761 13.8915 46.8184C13.454 47.9611 13.1646 49.14 13.0233 50.3549C14.2382 50.2136 15.417 49.9183 16.5598 49.469C17.7021 49.0197 18.5257 48.5426 19.0306 48.0377C19.5556 47.5127 19.8231 46.8866 19.8332 46.1595C19.8432 45.4328 19.5858 44.807 19.0608 44.282C18.5358 43.757 17.9099 43.5054 17.1832 43.5273C16.4561 43.5492 15.83 43.8226 15.305 44.3476Z" fill="#007BFF"/>
</g>
</svg>
