<svg width="145" height="251" viewBox="0 0 145 251" fill="none" xmlns="http://www.w3.org/2000/svg">
<path d="M3.69318 132.483C4.63353 113.477 20.0964 98.5645 37.3337 89.3134C49.4598 82.8077 57.8775 79.674 67.1749 63.9921C71.4975 56.7029 73.2948 48.4055 74.0684 40.2171C74.1214 39.6381 74.895 39.3792 75.35 39.7879C75.35 39.7879 79.0052 45.2378 80.2869 47.0226C80.3854 47.1589 80.4537 47.3019 80.4992 47.4382C81.6898 50.5582 95.2492 88.6254 70.5496 138.287C64.2932 150.863 56.4822 163.847 49.1261 175.223C49.02 175.387 48.8759 175.516 48.7015 175.619C37.3868 182.083 29.4013 192.881 27.6951 205.477C27.6116 206.07 27.0656 206.519 26.4059 206.519H1.33471C0.599106 206.519 0 205.981 0 205.32V201.192C0 200.831 0.182 200.49 0.492925 200.259C4.47428 197.391 31.4868 177.594 44.5912 159.746C58.7648 140.447 52.1975 127.026 47.071 121.195C38.9111 111.917 17.7076 109.56 9.50976 129.956C9.42634 130.16 9.26707 130.439 9.01681 130.603L4.24678 133.43C3.92069 133.43 3.65526 133.185 3.67043 132.892" fill="white"/>
<path d="M97.48 240.677C97.3207 240.323 96.8733 240.153 96.4789 240.296C84.9975 244.533 62.9142 240.262 54.9818 231.74C54.6861 231.426 54.5951 230.909 54.5875 230.636C54.5344 230.336 55.1866 230.588 55.4369 230.67C75.374 237.156 110.372 236.801 113.276 216.174C113.36 215.588 112.632 215.193 112.093 215.54C91.7241 228.545 54.0112 222.782 39.1019 205.274C38.9427 205.09 38.8972 204.845 38.973 204.627C39.1323 204.164 39.7465 203.973 40.1864 204.245C50.6972 210.792 67.798 214.661 81.2891 213.639C96.5927 212.338 110.425 207.29 110.926 194.885C110.948 194.279 110.122 193.959 109.644 194.395C95.4931 207.284 63.1417 200.757 50.2497 188.72C49.9919 188.482 49.9616 188.114 50.1587 187.834C50.409 187.487 50.9322 187.398 51.3038 187.65C63.392 195.846 96.0846 197.59 94.4465 179.523C94.3631 178.624 93.9915 178.372 93.3924 178.113C88.7816 176.144 80.8569 173.597 73.5994 173.597C50.7502 173.597 32.2237 190.239 32.2237 210.765C31.0558 240.752 71.969 257.756 97.2146 241.509C97.5027 241.318 97.6165 240.977 97.48 240.677Z" fill="white"/>
<path d="M132.987 206.123C133.48 187.539 121.597 171.272 104.087 163.696C97.633 160.365 79.8496 156.973 79.8496 156.973L86.9933 143.546C87.1677 143.212 87.0161 142.81 86.6445 142.646L83.4063 141.863C83.2016 141.774 83.2698 141.495 83.4973 141.495H134.815C135.05 141.495 135.255 141.366 135.346 141.175L144.954 120.234C145.114 119.893 144.833 119.519 144.423 119.519H85.0292C84.8093 119.519 84.6045 119.634 84.5135 119.811L57.9408 170.393C57.6602 170.931 58.229 171.503 58.8508 171.319C64.1669 169.718 69.9152 168.969 75.8834 169.248C100.158 170.386 119.421 188.663 119.375 210.497C119.337 227.8 107.507 242.494 90.8382 248.625C89.8751 248.98 90.2922 250.26 91.3159 250.09C114.544 246.221 132.388 228.175 132.98 206.11L132.987 206.123Z" fill="white"/>
<path d="M30.232 13.5475L34.1906 12.2464C39.0517 10.9725 39.7949 11.4834 43.4501 14.7738C43.6625 14.9713 43.89 15.1757 44.1175 15.3937C44.891 16.1907 45.6569 17.0082 46.3925 17.8257C46.5973 18.0505 46.9006 18.1595 47.1964 18.1254C47.3253 18.1118 47.4542 18.0709 47.5756 17.996C47.9244 17.7848 48.0306 17.3829 47.8258 17.0422C47.2646 16.1294 46.6807 15.2097 46.074 14.3173C45.8996 14.0312 45.7328 13.7587 45.5659 13.493L45.4901 13.3772C43.0027 9.52827 42.7448 9.12635 46.0058 6.81698L49.2894 4.85503C49.6155 4.65747 49.7217 4.30324 49.5473 3.98987C49.3577 3.65607 48.8648 3.41763 48.3718 3.58113L44.4056 4.88909C39.7114 6.14256 38.991 5.67251 35.0021 3.05658L34.4485 2.69553C34.183 2.52522 33.9024 2.3481 33.6143 2.16417C32.6132 1.48294 31.5819 0.815333 30.5581 0.174976C30.1334 -0.0907039 29.5419 -0.0498305 29.2537 0.270348C29.0111 0.536028 29.049 0.89708 29.3523 1.15595C30.1941 1.87124 31.0283 2.62741 31.8322 3.37676C32.0672 3.622 32.2947 3.85362 32.4995 4.07162C34.2437 5.93819 35.0551 6.96685 34.9641 7.79114C34.8883 8.44512 34.2361 9.14679 32.6057 10.3117L29.3372 12.2668C29.0111 12.4644 28.9049 12.8254 29.0793 13.1388C29.2613 13.4658 29.7543 13.711 30.2472 13.5475H30.232Z" fill="white"/>
<path d="M54.4181 25.9855L59.9995 23.6693C66.6427 21.4008 67.6513 22.2592 70.3131 28.1109C70.4572 28.4584 70.6089 28.8194 70.7606 29.2009C71.2232 30.5974 71.6175 32.0212 71.9284 33.4313C72.0119 33.806 72.3304 33.9491 72.611 33.9218C72.611 33.9218 72.611 33.9218 72.6185 33.9218C73.0356 33.8741 73.4906 33.4586 73.4831 32.9272C73.4376 31.34 73.3162 29.7323 73.1115 28.1518C73.0736 27.6477 73.0205 27.1708 72.975 26.7144L72.8157 25.5972C71.9663 19.616 71.7919 18.3693 77.1156 14.1457C78.7764 12.9876 80.4296 11.8295 82.0828 10.6782C82.4923 10.3921 82.4999 9.93569 82.2951 9.62913C82.0752 9.30895 81.6657 9.19314 81.2865 9.34983L75.6899 11.666C69.259 13.8664 68.3869 13.0217 64.216 8.9479C63.8823 8.62091 63.5183 8.27348 63.1315 7.8988C62.8206 7.60588 62.4869 7.30613 62.1229 6.99277C60.9399 5.84149 59.6734 4.71064 58.3691 3.64111C57.9596 3.30731 57.406 3.36862 57.1102 3.61386C56.822 3.85229 56.7993 4.22697 57.0496 4.5199C58.0809 5.72568 59.0744 6.99958 59.9844 8.28711C60.2498 8.70266 60.4925 9.10458 60.72 9.47245C64.0188 15.2833 64.1629 16.6799 58.6345 21.1692C56.9813 22.3273 55.3205 23.4854 53.6597 24.6435C53.2426 24.9364 53.235 25.4133 53.4398 25.713C53.6521 26.0196 54.0541 26.1285 54.4181 25.9787V25.9855Z" fill="white"/>
<path d="M52.177 66.4247C52.0632 61.8468 50.3569 57.739 47.6951 54.8233C47.3842 54.4827 46.8154 54.435 46.4211 54.6939L44.3659 56.0564C44.1915 56.1722 43.964 55.9951 44.0702 55.8247C44.6314 54.946 45.5187 53.5358 45.7992 53.0794L49.7958 46.7371C50.1674 46.1513 49.6593 45.4292 48.9161 45.4769L26.2337 46.7984C25.9076 46.8189 25.6195 46.9824 25.4678 47.2412L11.3548 70.5598C10.9984 71.1456 11.5065 71.8541 12.2421 71.8064L24.1482 71.1116C24.6033 71.0843 25.0052 71.3568 25.1189 71.7587C27.0224 78.3939 32.4219 83.1353 38.6707 83.0127C46.3377 82.8628 52.3817 75.4374 52.1618 66.4247H52.177Z" fill="white"/>
</svg>
