<svg width="37" height="37" viewBox="0 0 37 37" fill="none" xmlns="http://www.w3.org/2000/svg">
<path d="M34.2839 0H2.66476C1.19298 0 0 1.17868 0 2.63282V33.8729C0 35.327 1.19298 36.5057 2.66476 36.5057H34.2839C35.7557 36.5057 36.9487 35.327 36.9487 33.8729V2.63282C36.9487 1.17868 35.7557 0 34.2839 0ZM30.0181 18.2457C30.018 18.2646 30.018 18.2785 30.0179 18.2974C30.0168 18.6287 29.9948 22.0605 29.5427 23.7583C29.2763 24.7353 28.4966 25.5057 27.5077 25.7686C25.701 26.2385 18.4743 26.2385 18.4743 26.2385V26.2385C18.4743 26.2385 11.2665 26.2385 9.44098 25.75C8.45209 25.4871 7.67237 24.7164 7.40597 23.7394C6.93041 21.9733 6.93041 18.2529 6.93041 18.2529C6.93041 18.2529 6.93041 18.2529 6.93041 18.2529C6.93041 18.2529 6.93041 14.5514 7.40597 12.7664C7.67208 11.7893 8.47098 11 9.44098 10.7371C11.2477 10.2672 18.4743 10.2672 18.4743 10.2672V10.2672C18.4743 10.2672 25.701 10.2672 27.5077 10.7558C28.4966 11.0187 29.2763 11.7893 29.5427 12.7664C30.0131 14.4644 30.0186 17.9136 30.0181 18.2457Z" fill="white"/>
<path d="M16.5647 21.6725L22.4608 18.2529L16.5647 14.8333V21.6725Z" fill="white"/>
</svg>
